<?xml version="1.0" encoding="UTF-8" standalone="no"?>
<!DOCTYPE svg PUBLIC "-//W3C//DTD SVG 1.1//EN"
 "http://www.w3.org/Graphics/SVG/1.1/DTD/svg11.dtd">
<!-- Generated by graphviz version 7.0.6 (0)
 -->
<!-- Title: 表关系依赖图 Pages: 1 -->
<svg width="699pt" height="810pt"
 viewBox="0.00 0.00 699.00 810.00" xmlns="http://www.w3.org/2000/svg" xmlns:xlink="http://www.w3.org/1999/xlink">
<g id="graph0" class="graph" transform="scale(1 1) rotate(0) translate(144 666)">
<title>表关系依赖图</title>
<polygon fill="white" stroke="none" points="-144,144 -144,-666 555,-666 555,144 -144,144"/>
<text text-anchor="middle" x="205.5" y="-9" font-family="Sans-Serif" font-size="15.00" fill="#2d3436">表关系依赖图</text>
<!-- 0f159aabfa4444099560d0d1c03ee666 -->
<g id="node1" class="node">
<title>0f159aabfa4444099560d0d1c03ee666</title>
<image xlink:href="/home/sura/.local/lib/python3.10/site-packages/resources/digitalocean/database/dbaas-primary.png" width="101px" height="101px" preserveAspectRatio="xMinYMin meet" x="0" y="-324"/>
<text text-anchor="middle" x="50.5" y="-208.6" font-family="Sans-Serif" font-size="13.00" fill="#2d3436">Root</text>
</g>
<!-- 083b8a1ed2d14a7e94271c1bcb6a6465 -->
<g id="node2" class="node">
<title>083b8a1ed2d14a7e94271c1bcb6a6465</title>
<image xlink:href="/home/sura/.local/lib/python3.10/site-packages/resources/digitalocean/database/dbaas-primary.png" width="101px" height="101px" preserveAspectRatio="xMinYMin meet" x="155" y="-504"/>
<text text-anchor="middle" x="205.5" y="-388.6" font-family="Sans-Serif" font-size="13.00" fill="#2d3436">dqa_lszh_result_0715</text>
</g>
<!-- 0f159aabfa4444099560d0d1c03ee666&#45;&gt;083b8a1ed2d14a7e94271c1bcb6a6465 -->
<g id="edge1" class="edge">
<title>0f159aabfa4444099560d0d1c03ee666&#45;&gt;083b8a1ed2d14a7e94271c1bcb6a6465</title>
<path fill="none" stroke="#7b8894" d="M51,-341.81C51,-392.73 51,-453.5 51,-453.5 51,-453.5 143.82,-453.5 143.82,-453.5"/>
<polygon fill="#7b8894" stroke="#7b8894" points="143.82,-457 153.82,-453.5 143.82,-450 143.82,-457"/>
</g>
<!-- 543926f359154aceb59442e9d025b1e3 -->
<g id="node3" class="node">
<title>543926f359154aceb59442e9d025b1e3</title>
<image xlink:href="/home/sura/.local/lib/python3.10/site-packages/resources/digitalocean/database/dbaas-primary.png" width="101px" height="101px" preserveAspectRatio="xMinYMin meet" x="155" y="-324"/>
<text text-anchor="middle" x="205.5" y="-208.6" font-family="Sans-Serif" font-size="13.00" fill="#2d3436">green_action10_trans</text>
</g>
<!-- 0f159aabfa4444099560d0d1c03ee666&#45;&gt;543926f359154aceb59442e9d025b1e3 -->
<g id="edge2" class="edge">
<title>0f159aabfa4444099560d0d1c03ee666&#45;&gt;543926f359154aceb59442e9d025b1e3</title>
<path fill="none" stroke="#7b8894" d="M100.82,-273.5C100.82,-273.5 143.65,-273.5 143.65,-273.5"/>
<polygon fill="#7b8894" stroke="#7b8894" points="143.65,-277 153.65,-273.5 143.65,-270 143.65,-277"/>
</g>
<!-- 419a445b55454c20868b851dfd3c07f9 -->
<g id="node5" class="node">
<title>419a445b55454c20868b851dfd3c07f9</title>
<image xlink:href="/home/sura/.local/lib/python3.10/site-packages/resources/digitalocean/database/dbaas-primary.png" width="101px" height="101px" preserveAspectRatio="xMinYMin meet" x="155" y="-144"/>
<text text-anchor="middle" x="205.5" y="-28.6" font-family="Sans-Serif" font-size="13.00" fill="#2d3436">ctis_txn_tif_bas_p</text>
</g>
<!-- 0f159aabfa4444099560d0d1c03ee666&#45;&gt;419a445b55454c20868b851dfd3c07f9 -->
<g id="edge4" class="edge">
<title>0f159aabfa4444099560d0d1c03ee666&#45;&gt;419a445b55454c20868b851dfd3c07f9</title>
<path fill="none" stroke="#7b8894" d="M51,-205.19C51,-154.27 51,-93.5 51,-93.5 51,-93.5 143.82,-93.5 143.82,-93.5"/>
<polygon fill="#7b8894" stroke="#7b8894" points="143.82,-97 153.82,-93.5 143.82,-90 143.82,-97"/>
</g>
<!-- 0a001829138c415dbe2d3c64c3e1ecc5 -->
<g id="node4" class="node">
<title>0a001829138c415dbe2d3c64c3e1ecc5</title>
<image xlink:href="/home/sura/.local/lib/python3.10/site-packages/resources/digitalocean/database/dbaas-primary.png" width="101px" height="101px" preserveAspectRatio="xMinYMin meet" x="310" y="-324"/>
<text text-anchor="middle" x="360.5" y="-208.6" font-family="Sans-Serif" font-size="13.00" fill="#2d3436">ctis_txn_tif_bas_p</text>
</g>
<!-- 543926f359154aceb59442e9d025b1e3&#45;&gt;0a001829138c415dbe2d3c64c3e1ecc5 -->
<g id="edge3" class="edge">
<title>543926f359154aceb59442e9d025b1e3&#45;&gt;0a001829138c415dbe2d3c64c3e1ecc5</title>
<path fill="none" stroke="#7b8894" d="M255.82,-273.5C255.82,-273.5 298.65,-273.5 298.65,-273.5"/>
<polygon fill="#7b8894" stroke="#7b8894" points="298.65,-277 308.65,-273.5 298.65,-270 298.65,-277"/>
</g>
</g>
</svg>
