<?xml version="1.0" encoding="UTF-8" standalone="no"?>
<!DOCTYPE svg PUBLIC "-//W3C//DTD SVG 1.1//EN"
 "http://www.w3.org/Graphics/SVG/1.1/DTD/svg11.dtd">
<!-- Generated by graphviz version 7.0.6 (0)
 -->
<!-- Title: 表关系依赖图 Pages: 1 -->
<svg width="1217pt" height="847pt"
 viewBox="0.00 0.00 1217.00 847.00" xmlns="http://www.w3.org/2000/svg" xmlns:xlink="http://www.w3.org/1999/xlink">
<g id="graph0" class="graph" transform="scale(1 1) rotate(0) translate(144 703)">
<title>表关系依赖图</title>
<polygon fill="white" stroke="none" points="-144,144 -144,-703 1073,-703 1073,144 -144,144"/>
<text text-anchor="middle" x="464.5" y="-9" font-family="Sans-Serif" font-size="15.00" fill="#2d3436">表关系依赖图</text>
<!-- 954f2f9687b847309c031c30ff2f7bee -->
<g id="node1" class="node">
<title>954f2f9687b847309c031c30ff2f7bee</title>
<image xlink:href="/home/sura/.local/lib/python3.10/site-packages/resources/programming/flowchart/database.png" width="101px" height="101px" preserveAspectRatio="xMinYMin meet" x="396" y="-541"/>
<text text-anchor="middle" x="446.5" y="-425.6" font-family="Sans-Serif" font-size="13.00" fill="#2d3436">Root</text>
</g>
<!-- b7be2a057a5d43c69efab80a88441585 -->
<g id="node2" class="node">
<title>b7be2a057a5d43c69efab80a88441585</title>
<image xlink:href="/home/sura/.local/lib/python3.10/site-packages/resources/programming/flowchart/database.png" width="101px" height="101px" preserveAspectRatio="xMinYMin meet" x="0" y="-349"/>
<text text-anchor="middle" x="50.5" y="-233.6" font-family="Sans-Serif" font-size="13.00" fill="#2d3436">dqa_lszh_result_0715</text>
</g>
<!-- 954f2f9687b847309c031c30ff2f7bee&#45;&gt;b7be2a057a5d43c69efab80a88441585 -->
<g id="edge1" class="edge">
<title>954f2f9687b847309c031c30ff2f7bee&#45;&gt;b7be2a057a5d43c69efab80a88441585</title>
<path fill="none" stroke="#7b8894" d="M396.35,-513C289.79,-513 50.5,-513 50.5,-513 50.5,-513 50.5,-429.73 50.5,-366.96"/>
</g>
<!-- 036f165d7051441d879e7a33a02d8e61 -->
<g id="node3" class="node">
<title>036f165d7051441d879e7a33a02d8e61</title>
<image xlink:href="/home/sura/.local/lib/python3.10/site-packages/resources/programming/flowchart/database.png" width="101px" height="101px" preserveAspectRatio="xMinYMin meet" x="144" y="-349"/>
<text text-anchor="middle" x="194.5" y="-233.6" font-family="Sans-Serif" font-size="13.00" fill="#2d3436">green_action10_trans</text>
</g>
<!-- 954f2f9687b847309c031c30ff2f7bee&#45;&gt;036f165d7051441d879e7a33a02d8e61 -->
<g id="edge2" class="edge">
<title>954f2f9687b847309c031c30ff2f7bee&#45;&gt;036f165d7051441d879e7a33a02d8e61</title>
<path fill="none" stroke="#7b8894" d="M396.11,-467C322.57,-467 194.5,-467 194.5,-467 194.5,-467 194.5,-413.31 194.5,-366.55"/>
</g>
<!-- 752c808d8fb04dd0a536e0a3e54c384f -->
<g id="node5" class="node">
<title>752c808d8fb04dd0a536e0a3e54c384f</title>
<image xlink:href="/home/sura/.local/lib/python3.10/site-packages/resources/programming/flowchart/database.png" width="101px" height="101px" preserveAspectRatio="xMinYMin meet" x="288" y="-349"/>
<text text-anchor="middle" x="338.5" y="-233.6" font-family="Sans-Serif" font-size="13.00" fill="#2d3436">green2_card_all</text>
</g>
<!-- 954f2f9687b847309c031c30ff2f7bee&#45;&gt;752c808d8fb04dd0a536e0a3e54c384f -->
<g id="edge4" class="edge">
<title>954f2f9687b847309c031c30ff2f7bee&#45;&gt;752c808d8fb04dd0a536e0a3e54c384f</title>
<path fill="none" stroke="#7b8894" d="M410.5,-422.09C410.5,-366.76 410.5,-298 410.5,-298 410.5,-298 401,-298 388.9,-298"/>
</g>
<!-- 8524d6d79d0e4fadbbe92ab17b1ba428 -->
<g id="node9" class="node">
<title>8524d6d79d0e4fadbbe92ab17b1ba428</title>
<image xlink:href="/home/sura/.local/lib/python3.10/site-packages/resources/programming/flowchart/database.png" width="101px" height="101px" preserveAspectRatio="xMinYMin meet" x="432" y="-349"/>
<text text-anchor="middle" x="482.5" y="-233.6" font-family="Sans-Serif" font-size="13.00" fill="#2d3436">green2_card_res</text>
</g>
<!-- 954f2f9687b847309c031c30ff2f7bee&#45;&gt;8524d6d79d0e4fadbbe92ab17b1ba428 -->
<g id="edge8" class="edge">
<title>954f2f9687b847309c031c30ff2f7bee&#45;&gt;8524d6d79d0e4fadbbe92ab17b1ba428</title>
<path fill="none" stroke="#7b8894" d="M464.5,-422.27C464.5,-404.27 464.5,-384.84 464.5,-366.84"/>
</g>
<!-- d32b119bf2c149bbaba6b96580f6e933 -->
<g id="node10" class="node">
<title>d32b119bf2c149bbaba6b96580f6e933</title>
<image xlink:href="/home/sura/.local/lib/python3.10/site-packages/resources/programming/flowchart/database.png" width="101px" height="101px" preserveAspectRatio="xMinYMin meet" x="576" y="-349"/>
<text text-anchor="middle" x="626.5" y="-233.6" font-family="Sans-Serif" font-size="13.00" fill="#2d3436">green2_action2_all</text>
</g>
<!-- 954f2f9687b847309c031c30ff2f7bee&#45;&gt;d32b119bf2c149bbaba6b96580f6e933 -->
<g id="edge9" class="edge">
<title>954f2f9687b847309c031c30ff2f7bee&#45;&gt;d32b119bf2c149bbaba6b96580f6e933</title>
<path fill="none" stroke="#7b8894" d="M496.64,-467C549.9,-467 626.5,-467 626.5,-467 626.5,-467 626.5,-413.31 626.5,-366.55"/>
</g>
<!-- 577c7feaf07b4a829dcef044012e0724 -->
<g id="node11" class="node">
<title>577c7feaf07b4a829dcef044012e0724</title>
<image xlink:href="/home/sura/.local/lib/python3.10/site-packages/resources/programming/flowchart/database.png" width="101px" height="101px" preserveAspectRatio="xMinYMin meet" x="720" y="-349"/>
<text text-anchor="middle" x="770.5" y="-233.6" font-family="Sans-Serif" font-size="13.00" fill="#2d3436">green_action3_all</text>
</g>
<!-- 954f2f9687b847309c031c30ff2f7bee&#45;&gt;577c7feaf07b4a829dcef044012e0724 -->
<g id="edge10" class="edge">
<title>954f2f9687b847309c031c30ff2f7bee&#45;&gt;577c7feaf07b4a829dcef044012e0724</title>
<path fill="none" stroke="#7b8894" d="M496.77,-513C587.78,-513 770.5,-513 770.5,-513 770.5,-513 770.5,-429.73 770.5,-366.96"/>
</g>
<!-- bc01017d06de436d8239b9bf5f00fabd -->
<g id="node4" class="node">
<title>bc01017d06de436d8239b9bf5f00fabd</title>
<image xlink:href="/home/sura/.local/lib/python3.10/site-packages/resources/programming/flowchart/database.png" width="101px" height="101px" preserveAspectRatio="xMinYMin meet" x="36" y="-144"/>
<text text-anchor="middle" x="86.5" y="-28.6" font-family="Sans-Serif" font-size="13.00" fill="#2d3436">ctis_txn_tif_bas_p</text>
</g>
<!-- 036f165d7051441d879e7a33a02d8e61&#45;&gt;bc01017d06de436d8239b9bf5f00fabd -->
<g id="edge3" class="edge">
<title>036f165d7051441d879e7a33a02d8e61&#45;&gt;bc01017d06de436d8239b9bf5f00fabd</title>
<path fill="none" stroke="#521ce9" d="M162,-218.56C162,-218.56 162,-93 162,-93 162,-93 150.71,-93 136.86,-93"/>
<polygon fill="#521ce9" stroke="#521ce9" points="158.5,-218.56 162,-228.56 165.5,-218.56 158.5,-218.56"/>
<text text-anchor="middle" x="108.5" y="-192.6" font-family="Sans-Serif" font-size="13.00" fill="#2d3436">test.sql</text>
</g>
<!-- bc10d85d739c45c2bc656027dfaa5d34 -->
<g id="node6" class="node">
<title>bc10d85d739c45c2bc656027dfaa5d34</title>
<image xlink:href="/home/sura/.local/lib/python3.10/site-packages/resources/programming/flowchart/database.png" width="101px" height="101px" preserveAspectRatio="xMinYMin meet" x="180" y="-144"/>
<text text-anchor="middle" x="230.5" y="-28.6" font-family="Sans-Serif" font-size="13.00" fill="#2d3436">bancs_cadm</text>
</g>
<!-- 752c808d8fb04dd0a536e0a3e54c384f&#45;&gt;bc10d85d739c45c2bc656027dfaa5d34 -->
<g id="edge5" class="edge">
<title>752c808d8fb04dd0a536e0a3e54c384f&#45;&gt;bc10d85d739c45c2bc656027dfaa5d34</title>
<path fill="none" stroke="#c2356e" d="M306,-218.56C306,-218.56 306,-93 306,-93 306,-93 294.71,-93 280.86,-93"/>
<polygon fill="#c2356e" stroke="#c2356e" points="302.5,-218.56 306,-228.56 309.5,-218.56 302.5,-218.56"/>
<text text-anchor="middle" x="252.5" y="-192.6" font-family="Sans-Serif" font-size="13.00" fill="#2d3436">test.sql</text>
</g>
<!-- 05c6d7d5104842128f58de20ccf40a2a -->
<g id="node7" class="node">
<title>05c6d7d5104842128f58de20ccf40a2a</title>
<image xlink:href="/home/sura/.local/lib/python3.10/site-packages/resources/programming/flowchart/database.png" width="101px" height="101px" preserveAspectRatio="xMinYMin meet" x="324" y="-144"/>
<text text-anchor="middle" x="374.5" y="-28.6" font-family="Sans-Serif" font-size="13.00" fill="#2d3436">bocnet_customer</text>
</g>
<!-- 752c808d8fb04dd0a536e0a3e54c384f&#45;&gt;05c6d7d5104842128f58de20ccf40a2a -->
<g id="edge6" class="edge">
<title>752c808d8fb04dd0a536e0a3e54c384f&#45;&gt;05c6d7d5104842128f58de20ccf40a2a</title>
<path fill="none" stroke="#c2356e" d="M345.67,-218.72C345.67,-218.72 345.67,-161.81 345.67,-161.81"/>
<polygon fill="#c2356e" stroke="#c2356e" points="342.17,-218.72 345.67,-228.72 349.17,-218.72 342.17,-218.72"/>
<text text-anchor="middle" x="396.5" y="-192.6" font-family="Sans-Serif" font-size="13.00" fill="#2d3436">test.sql</text>
</g>
<!-- 56ec027130164af39d068c878f08e42b -->
<g id="node8" class="node">
<title>56ec027130164af39d068c878f08e42b</title>
<image xlink:href="/home/sura/.local/lib/python3.10/site-packages/resources/programming/flowchart/database.png" width="101px" height="101px" preserveAspectRatio="xMinYMin meet" x="468" y="-144"/>
<text text-anchor="middle" x="518.5" y="-28.6" font-family="Sans-Serif" font-size="13.00" fill="#2d3436">bocnet_users_chnl</text>
</g>
<!-- 752c808d8fb04dd0a536e0a3e54c384f&#45;&gt;56ec027130164af39d068c878f08e42b -->
<g id="edge7" class="edge">
<title>752c808d8fb04dd0a536e0a3e54c384f&#45;&gt;56ec027130164af39d068c878f08e42b</title>
<path fill="none" stroke="#c2356e" d="M367.33,-218.62C367.33,-218.62 367.33,-196 367.33,-196 367.33,-196 500.5,-196 500.5,-196 500.5,-196 500.5,-180.67 500.5,-161.87"/>
<polygon fill="#c2356e" stroke="#c2356e" points="363.83,-218.62 367.33,-228.62 370.83,-218.62 363.83,-218.62"/>
<text text-anchor="middle" x="540.5" y="-192.6" font-family="Sans-Serif" font-size="13.00" fill="#2d3436">test.sql</text>
</g>
<!-- 2963d294331c4487be42145d5d9c06bd -->
<g id="node12" class="node">
<title>2963d294331c4487be42145d5d9c06bd</title>
<image xlink:href="/home/sura/.local/lib/python3.10/site-packages/resources/programming/flowchart/database.png" width="101px" height="101px" preserveAspectRatio="xMinYMin meet" x="684" y="-144"/>
<text text-anchor="middle" x="734.5" y="-28.6" font-family="Sans-Serif" font-size="13.00" fill="#2d3436">grxxzl_20200803</text>
</g>
<!-- 577c7feaf07b4a829dcef044012e0724&#45;&gt;2963d294331c4487be42145d5d9c06bd -->
<g id="edge11" class="edge">
<title>577c7feaf07b4a829dcef044012e0724&#45;&gt;2963d294331c4487be42145d5d9c06bd</title>
<path fill="none" stroke="#b98a30" d="M752.5,-218.72C752.5,-218.72 752.5,-161.81 752.5,-161.81"/>
<polygon fill="#b98a30" stroke="#b98a30" points="749,-218.72 752.5,-228.72 756,-218.72 749,-218.72"/>
<text text-anchor="middle" x="756.5" y="-192.6" font-family="Sans-Serif" font-size="13.00" fill="#2d3436">test.sql</text>
</g>
<!-- 7e348edb390d4f91a9f4bb198885f8cf -->
<g id="node13" class="node">
<title>7e348edb390d4f91a9f4bb198885f8cf</title>
<image xlink:href="/home/sura/.local/lib/python3.10/site-packages/resources/programming/flowchart/database.png" width="101px" height="101px" preserveAspectRatio="xMinYMin meet" x="828" y="-144"/>
<text text-anchor="middle" x="878.5" y="-28.6" font-family="Sans-Serif" font-size="13.00" fill="#2d3436">v3_1_issu@card</text>
</g>
<!-- 577c7feaf07b4a829dcef044012e0724&#45;&gt;7e348edb390d4f91a9f4bb198885f8cf -->
<g id="edge12" class="edge">
<title>577c7feaf07b4a829dcef044012e0724&#45;&gt;7e348edb390d4f91a9f4bb198885f8cf</title>
<path fill="none" stroke="#b98a30" d="M803,-218.56C803,-218.56 803,-93 803,-93 803,-93 814.29,-93 828.14,-93"/>
<polygon fill="#b98a30" stroke="#b98a30" points="799.5,-218.56 803,-228.56 806.5,-218.56 799.5,-218.56"/>
<text text-anchor="middle" x="900.5" y="-192.6" font-family="Sans-Serif" font-size="13.00" fill="#2d3436">test.sql</text>
</g>
</g>
</svg>
