<?xml version="1.0" encoding="UTF-8" standalone="no"?>
<!DOCTYPE svg PUBLIC "-//W3C//DTD SVG 1.1//EN"
 "http://www.w3.org/Graphics/SVG/1.1/DTD/svg11.dtd">
<!-- Generated by graphviz version 7.0.6 (0)
 -->
<!-- Title: 表关系依赖图 Pages: 1 -->
<svg width="1088pt" height="864pt"
 viewBox="0.00 0.00 1088.00 864.00" xmlns="http://www.w3.org/2000/svg" xmlns:xlink="http://www.w3.org/1999/xlink">
<g id="graph0" class="graph" transform="scale(1 1) rotate(0) translate(144 720)">
<title>表关系依赖图</title>
<polygon fill="white" stroke="none" points="-144,144 -144,-720 944,-720 944,144 -144,144"/>
<text text-anchor="middle" x="400" y="-9" font-family="Sans-Serif" font-size="15.00" fill="#2d3436">表关系依赖图</text>
<g id="clust1" class="cluster">
<title>cluster_fromcluser</title>
<path fill="#e5f5fd" stroke="#aeb6be" d="M472,-33C472,-33 565,-33 565,-33 571,-33 577,-39 577,-45 577,-45 577,-556 577,-556 577,-562 571,-568 565,-568 565,-568 472,-568 472,-568 466,-568 460,-562 460,-556 460,-556 460,-45 460,-45 460,-39 466,-33 472,-33"/>
<text text-anchor="middle" x="499.5" y="-554.4" font-family="Sans-Serif" font-size="12.00" fill="#2d3436">fromcluser</text>
</g>
<!-- a6a7f72e61e743f0a44651aa614af581 -->
<g id="node1" class="node">
<title>a6a7f72e61e743f0a44651aa614af581</title>
<image xlink:href="/home/sura/.local/lib/python3.10/site-packages/resources/digitalocean/database/dbaas-primary.png" width="101px" height="101px" preserveAspectRatio="xMinYMin meet" x="468" y="-520.5"/>
<text text-anchor="middle" x="518.5" y="-405.1" font-family="Sans-Serif" font-size="13.00" fill="#2d3436">web1</text>
</g>
<!-- c8a2ae5e22274353bcbc73c757a189ad -->
<g id="node8" class="node">
<title>c8a2ae5e22274353bcbc73c757a189ad</title>
<image xlink:href="/home/sura/.local/lib/python3.10/site-packages/resources/digitalocean/database/dbaas-primary.png" width="101px" height="101px" preserveAspectRatio="xMinYMin meet" x="699" y="-340.5"/>
<text text-anchor="middle" x="749.5" y="-225.1" font-family="Sans-Serif" font-size="13.00" fill="#2d3436">web3</text>
</g>
<!-- a6a7f72e61e743f0a44651aa614af581&#45;&gt;c8a2ae5e22274353bcbc73c757a189ad -->
<g id="edge7" class="edge">
<title>a6a7f72e61e743f0a44651aa614af581&#45;&gt;c8a2ae5e22274353bcbc73c757a189ad</title>
<path fill="none" stroke="black" stroke-width="2" d="M568.73,-470C636.82,-470 750,-470 750,-470 750,-470 750,-369.82 750,-369.82"/>
<polygon fill="black" stroke="black" stroke-width="2" points="753.5,-371.33 750,-361.33 746.5,-371.33 753.5,-371.33"/>
<text text-anchor="middle" x="634" y="-414.6" font-family="Sans-Serif" font-size="13.00" fill="#2d3436">使用SQL脚本</text>
</g>
<!-- d4041e1e680340198aca29cd1200c03e -->
<g id="node2" class="node">
<title>d4041e1e680340198aca29cd1200c03e</title>
<image xlink:href="/home/sura/.local/lib/python3.10/site-packages/resources/digitalocean/database/dbaas-primary.png" width="101px" height="101px" preserveAspectRatio="xMinYMin meet" x="468" y="-340.5"/>
<text text-anchor="middle" x="518.5" y="-225.1" font-family="Sans-Serif" font-size="13.00" fill="#2d3436">web2</text>
</g>
<!-- d4041e1e680340198aca29cd1200c03e&#45;&gt;c8a2ae5e22274353bcbc73c757a189ad -->
<g id="edge8" class="edge">
<title>d4041e1e680340198aca29cd1200c03e&#45;&gt;c8a2ae5e22274353bcbc73c757a189ad</title>
<path fill="none" stroke="black" stroke-width="2" d="M568.91,-290C568.91,-290 687.69,-290 687.69,-290"/>
<polygon fill="black" stroke="black" stroke-width="2" points="686.17,-293.5 696.17,-290 686.17,-286.5 686.17,-293.5"/>
<text text-anchor="middle" x="634" y="-293.6" font-family="Sans-Serif" font-size="13.00" fill="#2d3436">使用SQL脚本</text>
</g>
<!-- 75c25104368e456196d4369eb696aecb -->
<g id="node3" class="node">
<title>75c25104368e456196d4369eb696aecb</title>
<image xlink:href="/home/sura/.local/lib/python3.10/site-packages/resources/digitalocean/database/dbaas-primary.png" width="101px" height="101px" preserveAspectRatio="xMinYMin meet" x="468" y="-160.5"/>
<text text-anchor="middle" x="518.5" y="-45.1" font-family="Sans-Serif" font-size="13.00" fill="#2d3436">web3</text>
</g>
<!-- 75c25104368e456196d4369eb696aecb&#45;&gt;c8a2ae5e22274353bcbc73c757a189ad -->
<g id="edge9" class="edge">
<title>75c25104368e456196d4369eb696aecb&#45;&gt;c8a2ae5e22274353bcbc73c757a189ad</title>
<path fill="none" stroke="black" stroke-width="2" d="M568.73,-110C636.82,-110 750,-110 750,-110 750,-110 750,-210.18 750,-210.18"/>
<polygon fill="black" stroke="black" stroke-width="2" points="746.5,-208.67 750,-218.67 753.5,-208.67 746.5,-208.67"/>
<text text-anchor="middle" x="634" y="-172.6" font-family="Sans-Serif" font-size="13.00" fill="#2d3436">使用SQL脚本</text>
</g>
<!-- 9c5a133f69144f5fa66afa072fe04776 -->
<g id="node4" class="node">
<title>9c5a133f69144f5fa66afa072fe04776</title>
<image xlink:href="/home/sura/.local/lib/python3.10/site-packages/resources/digitalocean/database/dbaas-primary.png" width="101px" height="101px" preserveAspectRatio="xMinYMin meet" x="0" y="-430.5"/>
<text text-anchor="middle" x="50.5" y="-315.1" font-family="Sans-Serif" font-size="13.00" fill="#2d3436">lb</text>
</g>
<!-- b2598e247035432cb151c5812eacd8f1 -->
<g id="node6" class="node">
<title>b2598e247035432cb151c5812eacd8f1</title>
<image xlink:href="/home/sura/.local/lib/python3.10/site-packages/resources/digitalocean/database/dbaas-primary.png" width="101px" height="101px" preserveAspectRatio="xMinYMin meet" x="156" y="-340.5"/>
<text text-anchor="middle" x="206.5" y="-225.1" font-family="Sans-Serif" font-size="13.00" fill="#2d3436">web</text>
</g>
<!-- 9c5a133f69144f5fa66afa072fe04776&#45;&gt;b2598e247035432cb151c5812eacd8f1 -->
<g id="edge1" class="edge">
<title>9c5a133f69144f5fa66afa072fe04776&#45;&gt;b2598e247035432cb151c5812eacd8f1</title>
<path fill="none" stroke="#7b8894" d="M112.23,-335C112.23,-335 156.11,-335 156.11,-335"/>
<polygon fill="#7b8894" stroke="#7b8894" points="112.23,-331.5 102.23,-335 112.23,-338.5 112.23,-331.5"/>
</g>
<!-- a7d333affc9b4cb8b98a644a52dd2e4b -->
<g id="node5" class="node">
<title>a7d333affc9b4cb8b98a644a52dd2e4b</title>
<image xlink:href="/home/sura/.local/lib/python3.10/site-packages/resources/digitalocean/database/dbaas-primary.png" width="101px" height="101px" preserveAspectRatio="xMinYMin meet" x="0" y="-250.5"/>
<text text-anchor="middle" x="50.5" y="-135.1" font-family="Sans-Serif" font-size="13.00" fill="#2d3436">rb</text>
</g>
<!-- a7d333affc9b4cb8b98a644a52dd2e4b&#45;&gt;b2598e247035432cb151c5812eacd8f1 -->
<g id="edge2" class="edge">
<title>a7d333affc9b4cb8b98a644a52dd2e4b&#45;&gt;b2598e247035432cb151c5812eacd8f1</title>
<path fill="none" stroke="#7b8894" d="M112.23,-245C112.23,-245 156.11,-245 156.11,-245"/>
<polygon fill="#7b8894" stroke="#7b8894" points="112.23,-241.5 102.23,-245 112.23,-248.5 112.23,-241.5"/>
</g>
<!-- 6c167b926f314a8aba9d867eac88754d -->
<g id="node7" class="node">
<title>6c167b926f314a8aba9d867eac88754d</title>
<image xlink:href="/home/sura/.local/lib/python3.10/site-packages/resources/digitalocean/database/dbaas-primary.png" width="101px" height="101px" preserveAspectRatio="xMinYMin meet" x="312" y="-340.5"/>
<text text-anchor="middle" x="362.5" y="-225.1" font-family="Sans-Serif" font-size="13.00" fill="#2d3436">userdb</text>
</g>
<!-- b2598e247035432cb151c5812eacd8f1&#45;&gt;6c167b926f314a8aba9d867eac88754d -->
<g id="edge3" class="edge">
<title>b2598e247035432cb151c5812eacd8f1&#45;&gt;6c167b926f314a8aba9d867eac88754d</title>
<path fill="none" stroke="#7b8894" d="M256.72,-290C256.72,-290 300.6,-290 300.6,-290"/>
<polygon fill="#7b8894" stroke="#7b8894" points="300.6,-293.5 310.6,-290 300.6,-286.5 300.6,-293.5"/>
</g>
<!-- 6c167b926f314a8aba9d867eac88754d&#45;&gt;a6a7f72e61e743f0a44651aa614af581 -->
<g id="edge4" class="edge">
<title>6c167b926f314a8aba9d867eac88754d&#45;&gt;a6a7f72e61e743f0a44651aa614af581</title>
<path fill="none" stroke="#7b8894" d="M363,-358.29C363,-391.78 363,-425 363,-425 363,-425 456.5,-425 456.5,-425"/>
<polygon fill="#7b8894" stroke="#7b8894" points="456.5,-428.5 466.5,-425 456.5,-421.5 456.5,-428.5"/>
</g>
<!-- 6c167b926f314a8aba9d867eac88754d&#45;&gt;d4041e1e680340198aca29cd1200c03e -->
<g id="edge5" class="edge">
<title>6c167b926f314a8aba9d867eac88754d&#45;&gt;d4041e1e680340198aca29cd1200c03e</title>
<path fill="none" stroke="#7b8894" d="M412.72,-290C412.72,-290 456.6,-290 456.6,-290"/>
<polygon fill="#7b8894" stroke="#7b8894" points="456.6,-293.5 466.6,-290 456.6,-286.5 456.6,-293.5"/>
</g>
<!-- 6c167b926f314a8aba9d867eac88754d&#45;&gt;75c25104368e456196d4369eb696aecb -->
<g id="edge6" class="edge">
<title>6c167b926f314a8aba9d867eac88754d&#45;&gt;75c25104368e456196d4369eb696aecb</title>
<path fill="none" stroke="#7b8894" d="M363,-221.71C363,-188.22 363,-155 363,-155 363,-155 456.5,-155 456.5,-155"/>
<polygon fill="#7b8894" stroke="#7b8894" points="456.5,-158.5 466.5,-155 456.5,-151.5 456.5,-158.5"/>
</g>
</g>
</svg>
