<?xml version="1.0" encoding="UTF-8" standalone="no"?>
<!DOCTYPE svg PUBLIC "-//W3C//DTD SVG 1.1//EN"
 "http://www.w3.org/Graphics/SVG/1.1/DTD/svg11.dtd">
<!-- Generated by graphviz version 7.1.0 (0)
 -->
<!-- Title: 表关系依赖图 Pages: 1 -->
<svg width="2211pt" height="1416pt"
 viewBox="0.00 0.00 2210.50 1416.00" xmlns="http://www.w3.org/2000/svg" xmlns:xlink="http://www.w3.org/1999/xlink">
<g id="graph0" class="graph" transform="scale(1 1) rotate(0) translate(144 1272)">
<title>表关系依赖图</title>
<polygon fill="white" stroke="none" points="-144,144 -144,-1272 2066.5,-1272 2066.5,144 -144,144"/>
<text text-anchor="middle" x="961.25" y="-9" font-family="Sans-Serif" font-size="15.00" fill="#2d3436">表关系依赖图</text>
<g id="clust1" class="cluster">
<title>cluster_Root源</title>
<path fill="#e5f5fd" stroke="#aeb6be" d="M121.5,-33C121.5,-33 1902.5,-33 1902.5,-33 1908.5,-33 1914.5,-39 1914.5,-45 1914.5,-45 1914.5,-1108 1914.5,-1108 1914.5,-1114 1908.5,-1120 1902.5,-1120 1902.5,-1120 121.5,-1120 121.5,-1120 115.5,-1120 109.5,-1114 109.5,-1108 109.5,-1108 109.5,-45 109.5,-45 109.5,-39 115.5,-33 121.5,-33"/>
<text text-anchor="middle" x="137.5" y="-1106.4" font-family="Sans-Serif" font-size="12.00" fill="#2d3436">Root源</text>
</g>
<g id="clust2" class="cluster">
<title>cluster_dqa_lszh_result_0715源</title>
<path fill="#ebf3e7" stroke="#aeb6be" d="M129.5,-41C129.5,-41 1462.5,-41 1462.5,-41 1468.5,-41 1474.5,-47 1474.5,-53 1474.5,-53 1474.5,-1079 1474.5,-1079 1474.5,-1085 1468.5,-1091 1462.5,-1091 1462.5,-1091 129.5,-1091 129.5,-1091 123.5,-1091 117.5,-1085 117.5,-1079 117.5,-1079 117.5,-53 117.5,-53 117.5,-47 123.5,-41 129.5,-41"/>
<text text-anchor="middle" x="191.5" y="-1077.4" font-family="Sans-Serif" font-size="12.00" fill="#2d3436">dqa_lszh_result_0715源</text>
</g>
<g id="clust3" class="cluster">
<title>cluster_green2_card_res源</title>
<path fill="#ece8f6" stroke="#aeb6be" d="M614.5,-49C614.5,-49 1148.5,-49 1148.5,-49 1154.5,-49 1160.5,-55 1160.5,-61 1160.5,-61 1160.5,-434 1160.5,-434 1160.5,-440 1154.5,-446 1148.5,-446 1148.5,-446 614.5,-446 614.5,-446 608.5,-446 602.5,-440 602.5,-434 602.5,-434 602.5,-61 602.5,-61 602.5,-55 608.5,-49 614.5,-49"/>
<text text-anchor="middle" x="663" y="-432.4" font-family="Sans-Serif" font-size="12.00" fill="#2d3436">green2_card_res源</text>
</g>
<g id="clust4" class="cluster">
<title>cluster_green2_card_all源</title>
<path fill="#fdf7e3" stroke="#aeb6be" d="M1046.5,-57C1046.5,-57 1140.5,-57 1140.5,-57 1146.5,-57 1152.5,-63 1152.5,-69 1152.5,-69 1152.5,-219 1152.5,-219 1152.5,-225 1146.5,-231 1140.5,-231 1140.5,-231 1046.5,-231 1046.5,-231 1040.5,-231 1034.5,-225 1034.5,-219 1034.5,-219 1034.5,-69 1034.5,-69 1034.5,-63 1040.5,-57 1046.5,-57"/>
<text text-anchor="middle" x="1092.5" y="-217.4" font-family="Sans-Serif" font-size="12.00" fill="#2d3436">green2_card_all源</text>
</g>
<g id="clust5" class="cluster">
<title>cluster_dqa_lszh_result_0620源</title>
<path fill="#ece8f6" stroke="#aeb6be" d="M641.5,-479C641.5,-479 1225.5,-479 1225.5,-479 1231.5,-479 1237.5,-485 1237.5,-491 1237.5,-491 1237.5,-864 1237.5,-864 1237.5,-870 1231.5,-876 1225.5,-876 1225.5,-876 641.5,-876 641.5,-876 635.5,-876 629.5,-870 629.5,-864 629.5,-864 629.5,-491 629.5,-491 629.5,-485 635.5,-479 641.5,-479"/>
<text text-anchor="middle" x="703.5" y="-862.4" font-family="Sans-Serif" font-size="12.00" fill="#2d3436">dqa_lszh_result_0620源</text>
</g>
<g id="clust6" class="cluster">
<title>cluster_green_action3_all源</title>
<path fill="#fdf7e3" stroke="#aeb6be" d="M649.5,-487C649.5,-487 887.5,-487 887.5,-487 893.5,-487 899.5,-493 899.5,-499 899.5,-499 899.5,-649 899.5,-649 899.5,-655 893.5,-661 887.5,-661 887.5,-661 649.5,-661 649.5,-661 643.5,-661 637.5,-655 637.5,-649 637.5,-649 637.5,-499 637.5,-499 637.5,-493 643.5,-487 649.5,-487"/>
<text text-anchor="middle" x="701" y="-647.4" font-family="Sans-Serif" font-size="12.00" fill="#2d3436">green_action3_all源</text>
</g>
<!-- 013afd489b80455eae544d07f20efb6a -->
<g id="node1" class="node">
<title>013afd489b80455eae544d07f20efb6a</title>
<image xlink:href="/home/sura/.local/lib/python3.10/site-packages/resources/programming/flowchart/database.png" width="101px" height="101px" preserveAspectRatio="xMinYMin meet" x="0" y="-1044"/>
<text text-anchor="middle" x="50.5" y="-928.6" font-family="Sans-Serif" font-size="13.00" fill="#2d3436">Root</text>
</g>
<!-- 100417d5b6cb4e00818f7904a13cdc71 -->
<g id="node2" class="node">
<title>100417d5b6cb4e00818f7904a13cdc71</title>
<image xlink:href="/home/sura/.local/lib/python3.10/site-packages/resources/programming/flowchart/database.png" width="101px" height="101px" preserveAspectRatio="xMinYMin meet" x="1694" y="-829"/>
<text text-anchor="middle" x="1744.5" y="-713.6" font-family="Sans-Serif" font-size="13.00" fill="#2d3436">dqa_lszh_result_0715</text>
</g>
<!-- ddb77930b4f44fb08e470e8816ec5152 -->
<g id="node3" class="node">
<title>ddb77930b4f44fb08e470e8816ec5152</title>
<image xlink:href="/home/sura/.local/lib/python3.10/site-packages/resources/programming/flowchart/database.png" width="101px" height="101px" preserveAspectRatio="xMinYMin meet" x="1280" y="-399"/>
<text text-anchor="middle" x="1330.5" y="-283.6" font-family="Sans-Serif" font-size="13.00" fill="#2d3436">green2_card_res</text>
</g>
<!-- 100417d5b6cb4e00818f7904a13cdc71&#45;&gt;ddb77930b4f44fb08e470e8816ec5152 -->
<g id="edge1" class="edge">
<title>100417d5b6cb4e00818f7904a13cdc71&#45;&gt;ddb77930b4f44fb08e470e8816ec5152</title>
<path fill="none" stroke="#789732" d="M1766.14,-698.77C1766.14,-698.77 1766.14,-348 1766.14,-348 1766.14,-348 1495.57,-348 1380.9,-348"/>
<polygon fill="#789732" stroke="#789732" points="1762.64,-698.77 1766.14,-708.77 1769.64,-698.77 1762.64,-698.77"/>
<text text-anchor="middle" x="1704.5" y="-560.1" font-family="Sans-Serif" font-size="13.00" fill="#2d3436">test.sql</text>
</g>
<!-- e5e0e6487b93439ab778f15a7c572593 -->
<g id="node4" class="node">
<title>e5e0e6487b93439ab778f15a7c572593</title>
<image xlink:href="/home/sura/.local/lib/python3.10/site-packages/resources/programming/flowchart/database.png" width="101px" height="101px" preserveAspectRatio="xMinYMin meet" x="611" y="-184"/>
<text text-anchor="middle" x="661.5" y="-68.6" font-family="Sans-Serif" font-size="13.00" fill="#2d3436">bocnet_users_chnl</text>
</g>
<!-- 100417d5b6cb4e00818f7904a13cdc71&#45;&gt;e5e0e6487b93439ab778f15a7c572593 -->
<g id="edge11" class="edge">
<title>100417d5b6cb4e00818f7904a13cdc71&#45;&gt;e5e0e6487b93439ab778f15a7c572593</title>
<path fill="none" stroke="#789732" d="M1737.29,-698.59C1737.29,-698.59 1737.29,-482 1737.29,-482 1737.29,-482 668,-482 668,-482 668,-482 668,-303.43 668,-201.94"/>
<polygon fill="#789732" stroke="#789732" points="1733.79,-698.59 1737.29,-708.59 1740.79,-698.59 1733.79,-698.59"/>
<text text-anchor="middle" x="1608.5" y="-457.6" font-family="Sans-Serif" font-size="13.00" fill="#2d3436">test.sql</text>
</g>
<!-- 429a3b3a5da8435b9f2e70a54d3aaf00 -->
<g id="node5" class="node">
<title>429a3b3a5da8435b9f2e70a54d3aaf00</title>
<image xlink:href="/home/sura/.local/lib/python3.10/site-packages/resources/programming/flowchart/database.png" width="101px" height="101px" preserveAspectRatio="xMinYMin meet" x="899" y="-184"/>
<text text-anchor="middle" x="949.5" y="-68.6" font-family="Sans-Serif" font-size="13.00" fill="#2d3436">bancs_cadm</text>
</g>
<!-- 100417d5b6cb4e00818f7904a13cdc71&#45;&gt;429a3b3a5da8435b9f2e70a54d3aaf00 -->
<g id="edge12" class="edge">
<title>100417d5b6cb4e00818f7904a13cdc71&#45;&gt;429a3b3a5da8435b9f2e70a54d3aaf00</title>
<path fill="none" stroke="#789732" d="M1708.43,-698.54C1708.43,-698.54 1708.43,-654 1708.43,-654 1708.43,-654 994.67,-654 994.67,-654 994.67,-654 994.67,-343.03 994.67,-201.81"/>
<polygon fill="#789732" stroke="#789732" points="1704.93,-698.54 1708.43,-708.54 1711.93,-698.54 1704.93,-698.54"/>
<text text-anchor="middle" x="1792.5" y="-457.6" font-family="Sans-Serif" font-size="13.00" fill="#2d3436">test.sql</text>
</g>
<!-- d849cf2b5bb64ab29364d2f3b6efc7fc -->
<g id="node6" class="node">
<title>d849cf2b5bb64ab29364d2f3b6efc7fc</title>
<image xlink:href="/home/sura/.local/lib/python3.10/site-packages/resources/programming/flowchart/database.png" width="101px" height="101px" preserveAspectRatio="xMinYMin meet" x="755" y="-184"/>
<text text-anchor="middle" x="805.5" y="-68.6" font-family="Sans-Serif" font-size="13.00" fill="#2d3436">ctis_txn_tif_bas_p</text>
</g>
<!-- 100417d5b6cb4e00818f7904a13cdc71&#45;&gt;d849cf2b5bb64ab29364d2f3b6efc7fc -->
<g id="edge13" class="edge">
<title>100417d5b6cb4e00818f7904a13cdc71&#45;&gt;d849cf2b5bb64ab29364d2f3b6efc7fc</title>
<path fill="none" stroke="#789732" d="M1751.71,-698.68C1751.71,-698.68 1751.71,-469 1751.71,-469 1751.71,-469 803.2,-469 803.2,-469 803.2,-469 803.2,-299.89 803.2,-201.8"/>
<polygon fill="#789732" stroke="#789732" points="1748.21,-698.68 1751.71,-708.68 1755.21,-698.68 1748.21,-698.68"/>
<text text-anchor="middle" x="1700.5" y="-457.6" font-family="Sans-Serif" font-size="13.00" fill="#2d3436">test.sql</text>
</g>
<!-- 679ce146449b4416a8fb9296876cfd97 -->
<g id="node7" class="node">
<title>679ce146449b4416a8fb9296876cfd97</title>
<image xlink:href="/home/sura/.local/lib/python3.10/site-packages/resources/programming/flowchart/database.png" width="101px" height="101px" preserveAspectRatio="xMinYMin meet" x="1051" y="-399"/>
<text text-anchor="middle" x="1101.5" y="-283.6" font-family="Sans-Serif" font-size="13.00" fill="#2d3436">green2_card_all</text>
</g>
<!-- 100417d5b6cb4e00818f7904a13cdc71&#45;&gt;679ce146449b4416a8fb9296876cfd97 -->
<g id="edge46" class="edge">
<title>100417d5b6cb4e00818f7904a13cdc71&#45;&gt;679ce146449b4416a8fb9296876cfd97</title>
<path fill="none" stroke="#789732" d="M1722.86,-698.84C1722.86,-698.84 1722.86,-643 1722.86,-643 1722.86,-643 1140,-643 1140,-643 1140,-643 1140,-503.8 1140,-416.8"/>
<polygon fill="#789732" stroke="#789732" points="1719.36,-698.84 1722.86,-708.84 1726.36,-698.84 1719.36,-698.84"/>
<text text-anchor="middle" x="1574.5" y="-560.1" font-family="Sans-Serif" font-size="13.00" fill="#2d3436">test.sql</text>
</g>
<!-- d02bb87ddbac4e3eba8d6c05cd485456 -->
<g id="node8" class="node">
<title>d02bb87ddbac4e3eba8d6c05cd485456</title>
<image xlink:href="/home/sura/.local/lib/python3.10/site-packages/resources/programming/flowchart/database.png" width="101px" height="101px" preserveAspectRatio="xMinYMin meet" x="1043" y="-184"/>
<text text-anchor="middle" x="1093.5" y="-68.6" font-family="Sans-Serif" font-size="13.00" fill="#2d3436">bocnet_customer</text>
</g>
<!-- 100417d5b6cb4e00818f7904a13cdc71&#45;&gt;d02bb87ddbac4e3eba8d6c05cd485456 -->
<g id="edge47" class="edge">
<title>100417d5b6cb4e00818f7904a13cdc71&#45;&gt;d02bb87ddbac4e3eba8d6c05cd485456</title>
<path fill="none" stroke="#789732" d="M1780.57,-698.59C1780.57,-698.59 1780.57,-110 1780.57,-110 1780.57,-110 1302.13,-110 1143.74,-110"/>
<polygon fill="#789732" stroke="#789732" points="1777.07,-698.59 1780.57,-708.59 1784.07,-698.59 1777.07,-698.59"/>
<text text-anchor="middle" x="1884.5" y="-457.6" font-family="Sans-Serif" font-size="13.00" fill="#2d3436">test.sql</text>
</g>
<!-- ece85baecff7425aaeefef7823290c60 -->
<g id="node9" class="node">
<title>ece85baecff7425aaeefef7823290c60</title>
<image xlink:href="/home/sura/.local/lib/python3.10/site-packages/resources/programming/flowchart/database.png" width="101px" height="101px" preserveAspectRatio="xMinYMin meet" x="743" y="-1044"/>
<text text-anchor="middle" x="793.5" y="-928.6" font-family="Sans-Serif" font-size="13.00" fill="#2d3436">dqa_lszh_result_0620</text>
</g>
<!-- 100417d5b6cb4e00818f7904a13cdc71&#45;&gt;ece85baecff7425aaeefef7823290c60 -->
<g id="edge14" class="edge">
<title>100417d5b6cb4e00818f7904a13cdc71&#45;&gt;ece85baecff7425aaeefef7823290c60</title>
<path fill="none" stroke="#789732" d="M1761.33,-858.21C1761.33,-858.21 1761.33,-1046 1761.33,-1046 1761.33,-1046 1042.5,-1046 843.83,-1046"/>
<polygon fill="#789732" stroke="#789732" points="1764.83,-858.21 1761.33,-848.21 1757.83,-858.21 1764.83,-858.21"/>
<text text-anchor="middle" x="1596.5" y="-887.6" font-family="Sans-Serif" font-size="13.00" fill="#2d3436">test.sql</text>
</g>
<!-- ddb77930b4f44fb08e470e8816ec5152&#45;&gt;e5e0e6487b93439ab778f15a7c572593 -->
<g id="edge2" class="edge">
<title>ddb77930b4f44fb08e470e8816ec5152&#45;&gt;e5e0e6487b93439ab778f15a7c572593</title>
<path fill="none" stroke="#64283c" d="M1300.2,-268.57C1300.2,-268.57 1300.2,-260 1300.2,-260 1300.2,-260 701,-260 701,-260 701,-260 701,-231.74 701,-201.93"/>
<polygon fill="#64283c" stroke="#64283c" points="1296.7,-268.57 1300.2,-278.57 1303.7,-268.57 1296.7,-268.57"/>
<text text-anchor="middle" x="1168.5" y="-242.6" font-family="Sans-Serif" font-size="13.00" fill="#2d3436">test.sql</text>
</g>
<!-- ddb77930b4f44fb08e470e8816ec5152&#45;&gt;429a3b3a5da8435b9f2e70a54d3aaf00 -->
<g id="edge3" class="edge">
<title>ddb77930b4f44fb08e470e8816ec5152&#45;&gt;429a3b3a5da8435b9f2e70a54d3aaf00</title>
<path fill="none" stroke="#64283c" d="M1340.6,-268.76C1340.6,-268.76 1340.6,-221 1340.6,-221 1340.6,-221 998.22,-221 998.22,-221 998.22,-221 998.22,-212.88 998.22,-201.58"/>
<polygon fill="#64283c" stroke="#64283c" points="1337.1,-268.76 1340.6,-278.76 1344.1,-268.76 1337.1,-268.76"/>
<text text-anchor="middle" x="1352.5" y="-242.6" font-family="Sans-Serif" font-size="13.00" fill="#2d3436">test.sql</text>
</g>
<!-- ddb77930b4f44fb08e470e8816ec5152&#45;&gt;d849cf2b5bb64ab29364d2f3b6efc7fc -->
<g id="edge4" class="edge">
<title>ddb77930b4f44fb08e470e8816ec5152&#45;&gt;d849cf2b5bb64ab29364d2f3b6efc7fc</title>
<path fill="none" stroke="#64283c" d="M1320.4,-268.6C1320.4,-268.6 1320.4,-241 1320.4,-241 1320.4,-241 842.8,-241 842.8,-241 842.8,-241 842.8,-223.09 842.8,-201.89"/>
<polygon fill="#64283c" stroke="#64283c" points="1316.9,-268.6 1320.4,-278.6 1323.9,-268.6 1316.9,-268.6"/>
<text text-anchor="middle" x="1260.5" y="-242.6" font-family="Sans-Serif" font-size="13.00" fill="#2d3436">test.sql</text>
</g>
<!-- ddb77930b4f44fb08e470e8816ec5152&#45;&gt;679ce146449b4416a8fb9296876cfd97 -->
<g id="edge5" class="edge">
<title>ddb77930b4f44fb08e470e8816ec5152&#45;&gt;679ce146449b4416a8fb9296876cfd97</title>
<path fill="none" stroke="#64283c" d="M1268.73,-348C1268.73,-348 1151.64,-348 1151.64,-348"/>
<polygon fill="#64283c" stroke="#64283c" points="1268.73,-351.5 1278.73,-348 1268.73,-344.5 1268.73,-351.5"/>
</g>
<!-- ddb77930b4f44fb08e470e8816ec5152&#45;&gt;d02bb87ddbac4e3eba8d6c05cd485456 -->
<g id="edge10" class="edge">
<title>ddb77930b4f44fb08e470e8816ec5152&#45;&gt;d02bb87ddbac4e3eba8d6c05cd485456</title>
<path fill="none" stroke="#64283c" d="M1360.8,-268.58C1360.8,-268.58 1360.8,-156 1360.8,-156 1360.8,-156 1221.21,-156 1143.78,-156"/>
<polygon fill="#64283c" stroke="#64283c" points="1357.3,-268.58 1360.8,-278.58 1364.3,-268.58 1357.3,-268.58"/>
<text text-anchor="middle" x="1444.5" y="-242.6" font-family="Sans-Serif" font-size="13.00" fill="#2d3436">test.sql</text>
</g>
<!-- 679ce146449b4416a8fb9296876cfd97&#45;&gt;e5e0e6487b93439ab778f15a7c572593 -->
<g id="edge7" class="edge">
<title>679ce146449b4416a8fb9296876cfd97&#45;&gt;e5e0e6487b93439ab778f15a7c572593</title>
<path fill="none" stroke="#793a33" d="M1039.53,-338C1039.53,-338 690,-338 690,-338 690,-338 690,-261.33 690,-201.88"/>
<polygon fill="#793a33" stroke="#793a33" points="1039.53,-341.5 1049.53,-338 1039.53,-334.5 1039.53,-341.5"/>
<text text-anchor="middle" x="800.5" y="-242.6" font-family="Sans-Serif" font-size="13.00" fill="#2d3436">test.sql</text>
</g>
<!-- 679ce146449b4416a8fb9296876cfd97&#45;&gt;429a3b3a5da8435b9f2e70a54d3aaf00 -->
<g id="edge6" class="edge">
<title>679ce146449b4416a8fb9296876cfd97&#45;&gt;429a3b3a5da8435b9f2e70a54d3aaf00</title>
<path fill="none" stroke="#793a33" d="M1039.61,-299C1039.61,-299 996.44,-299 996.44,-299 996.44,-299 996.44,-247.36 996.44,-201.77"/>
<polygon fill="#793a33" stroke="#793a33" points="1039.61,-302.5 1049.61,-299 1039.61,-295.5 1039.61,-302.5"/>
<text text-anchor="middle" x="984.5" y="-242.6" font-family="Sans-Serif" font-size="13.00" fill="#2d3436">test.sql</text>
</g>
<!-- 679ce146449b4416a8fb9296876cfd97&#45;&gt;d849cf2b5bb64ab29364d2f3b6efc7fc -->
<g id="edge8" class="edge">
<title>679ce146449b4416a8fb9296876cfd97&#45;&gt;d849cf2b5bb64ab29364d2f3b6efc7fc</title>
<path fill="none" stroke="#793a33" d="M1039.8,-319C1039.8,-319 829.6,-319 829.6,-319 829.6,-319 829.6,-254.68 829.6,-201.78"/>
<polygon fill="#793a33" stroke="#793a33" points="1039.8,-322.5 1049.8,-319 1039.8,-315.5 1039.8,-322.5"/>
<text text-anchor="middle" x="892.5" y="-242.6" font-family="Sans-Serif" font-size="13.00" fill="#2d3436">test.sql</text>
</g>
<!-- 679ce146449b4416a8fb9296876cfd97&#45;&gt;d02bb87ddbac4e3eba8d6c05cd485456 -->
<g id="edge9" class="edge">
<title>679ce146449b4416a8fb9296876cfd97&#45;&gt;d02bb87ddbac4e3eba8d6c05cd485456</title>
<path fill="none" stroke="#793a33" d="M1097.5,-268.66C1097.5,-268.66 1097.5,-201.65 1097.5,-201.65"/>
<polygon fill="#793a33" stroke="#793a33" points="1094,-268.66 1097.5,-278.66 1101,-268.66 1094,-268.66"/>
<text text-anchor="middle" x="1076.5" y="-242.6" font-family="Sans-Serif" font-size="13.00" fill="#2d3436">test.sql</text>
</g>
<!-- ece85baecff7425aaeefef7823290c60&#45;&gt;100417d5b6cb4e00818f7904a13cdc71 -->
<g id="edge45" class="edge">
<title>ece85baecff7425aaeefef7823290c60&#45;&gt;100417d5b6cb4e00818f7904a13cdc71</title>
<path fill="none" stroke="#a4919d" d="M855.24,-1031C855.24,-1031 1727.67,-1031 1727.67,-1031 1727.67,-1031 1727.67,-921.61 1727.67,-846.83"/>
<polygon fill="#a4919d" stroke="#a4919d" points="855.24,-1027.5 845.24,-1031 855.24,-1034.5 855.24,-1027.5"/>
<text text-anchor="middle" x="1740.5" y="-887.6" font-family="Sans-Serif" font-size="13.00" fill="#2d3436">test.sql</text>
</g>
<!-- ece85baecff7425aaeefef7823290c60&#45;&gt;ddb77930b4f44fb08e470e8816ec5152 -->
<g id="edge32" class="edge">
<title>ece85baecff7425aaeefef7823290c60&#45;&gt;ddb77930b4f44fb08e470e8816ec5152</title>
<path fill="none" stroke="#a4919d" d="M855.4,-1016C855.4,-1016 1355.75,-1016 1355.75,-1016 1355.75,-1016 1355.75,-586.92 1355.75,-416.8"/>
<polygon fill="#a4919d" stroke="#a4919d" points="855.4,-1012.5 845.4,-1016 855.4,-1019.5 855.4,-1012.5"/>
<text text-anchor="middle" x="1444.5" y="-672.6" font-family="Sans-Serif" font-size="13.00" fill="#2d3436">test.sql</text>
</g>
<!-- ece85baecff7425aaeefef7823290c60&#45;&gt;e5e0e6487b93439ab778f15a7c572593 -->
<g id="edge35" class="edge">
<title>ece85baecff7425aaeefef7823290c60&#45;&gt;e5e0e6487b93439ab778f15a7c572593</title>
<path fill="none" stroke="#a4919d" d="M731.58,-1027C731.58,-1027 628.5,-1027 628.5,-1027 628.5,-1027 628.5,-410.63 628.5,-201.76"/>
<polygon fill="#a4919d" stroke="#a4919d" points="731.58,-1030.5 741.58,-1027 731.58,-1023.5 731.58,-1030.5"/>
<text text-anchor="middle" x="190.5" y="-560.1" font-family="Sans-Serif" font-size="13.00" fill="#2d3436">test.sql</text>
</g>
<!-- ece85baecff7425aaeefef7823290c60&#45;&gt;429a3b3a5da8435b9f2e70a54d3aaf00 -->
<g id="edge36" class="edge">
<title>ece85baecff7425aaeefef7823290c60&#45;&gt;429a3b3a5da8435b9f2e70a54d3aaf00</title>
<path fill="none" stroke="#a4919d" d="M855.26,-940C855.26,-940 962.5,-940 962.5,-940 962.5,-940 962.5,-396.65 962.5,-201.91"/>
<polygon fill="#a4919d" stroke="#a4919d" points="855.26,-936.5 845.26,-940 855.26,-943.5 855.26,-936.5"/>
<text text-anchor="middle" x="450.5" y="-560.1" font-family="Sans-Serif" font-size="13.00" fill="#2d3436">test.sql</text>
</g>
<!-- ece85baecff7425aaeefef7823290c60&#45;&gt;d849cf2b5bb64ab29364d2f3b6efc7fc -->
<g id="edge37" class="edge">
<title>ece85baecff7425aaeefef7823290c60&#45;&gt;d849cf2b5bb64ab29364d2f3b6efc7fc</title>
<path fill="none" stroke="#a4919d" d="M805.6,-913.58C805.6,-913.58 805.6,-687 805.6,-687 805.6,-687 772.5,-687 772.5,-687 772.5,-687 772.5,-350.01 772.5,-201.93"/>
<polygon fill="#a4919d" stroke="#a4919d" points="802.1,-913.58 805.6,-923.58 809.1,-913.58 802.1,-913.58"/>
<text text-anchor="middle" x="320.5" y="-560.1" font-family="Sans-Serif" font-size="13.00" fill="#2d3436">test.sql</text>
</g>
<!-- ece85baecff7425aaeefef7823290c60&#45;&gt;679ce146449b4416a8fb9296876cfd97 -->
<g id="edge40" class="edge">
<title>ece85baecff7425aaeefef7823290c60&#45;&gt;679ce146449b4416a8fb9296876cfd97</title>
<path fill="none" stroke="#a4919d" d="M855.3,-985C855.3,-985 1106.5,-985 1106.5,-985 1106.5,-985 1106.5,-581.31 1106.5,-416.92"/>
<polygon fill="#a4919d" stroke="#a4919d" points="855.3,-981.5 845.3,-985 855.3,-988.5 855.3,-981.5"/>
<text text-anchor="middle" x="1352.5" y="-672.6" font-family="Sans-Serif" font-size="13.00" fill="#2d3436">test.sql</text>
</g>
<!-- ece85baecff7425aaeefef7823290c60&#45;&gt;d02bb87ddbac4e3eba8d6c05cd485456 -->
<g id="edge41" class="edge">
<title>ece85baecff7425aaeefef7823290c60&#45;&gt;d02bb87ddbac4e3eba8d6c05cd485456</title>
<path fill="none" stroke="#a4919d" d="M822.8,-913.82C822.8,-913.82 822.8,-698 822.8,-698 822.8,-698 1047,-698 1047,-698 1047,-698 1047,-352.16 1047,-201.87"/>
<polygon fill="#a4919d" stroke="#a4919d" points="819.3,-913.82 822.8,-923.82 826.3,-913.82 819.3,-913.82"/>
<text text-anchor="middle" x="580.5" y="-560.1" font-family="Sans-Serif" font-size="13.00" fill="#2d3436">test.sql</text>
</g>
<!-- ece85baecff7425aaeefef7823290c60&#45;&gt;ece85baecff7425aaeefef7823290c60 -->
<g id="edge38" class="edge">
<title>ece85baecff7425aaeefef7823290c60&#45;&gt;ece85baecff7425aaeefef7823290c60</title>
<path fill="none" stroke="#a4919d" d="M793.5,-1073.17C793.5,-1073.17 793.5,-1080 793.5,-1080 793.5,-1080 719.5,-1080 719.5,-1080 719.5,-1080 719.5,-886 719.5,-886 719.5,-886 761,-886 761,-886 761,-886 761,-903.91 761,-925.11"/>
<polygon fill="#a4919d" stroke="#a4919d" points="797,-1073.17 793.5,-1063.17 790,-1073.17 797,-1073.17"/>
</g>
<!-- ca0e118f21af4e79a6d524a970ac4808 -->
<g id="node10" class="node">
<title>ca0e118f21af4e79a6d524a970ac4808</title>
<image xlink:href="/home/sura/.local/lib/python3.10/site-packages/resources/programming/flowchart/database.png" width="101px" height="101px" preserveAspectRatio="xMinYMin meet" x="984" y="-829"/>
<text text-anchor="middle" x="1034.5" y="-713.6" font-family="Sans-Serif" font-size="13.00" fill="#2d3436">green_action3_all</text>
</g>
<!-- ece85baecff7425aaeefef7823290c60&#45;&gt;ca0e118f21af4e79a6d524a970ac4808 -->
<g id="edge15" class="edge">
<title>ece85baecff7425aaeefef7823290c60&#45;&gt;ca0e118f21af4e79a6d524a970ac4808</title>
<path fill="none" stroke="#a4919d" d="M855.34,-970C855.34,-970 1051.33,-970 1051.33,-970 1051.33,-970 1051.33,-901.82 1051.33,-846.82"/>
<polygon fill="#a4919d" stroke="#a4919d" points="855.34,-966.5 845.34,-970 855.34,-973.5 855.34,-966.5"/>
<text text-anchor="middle" x="1050.5" y="-887.6" font-family="Sans-Serif" font-size="13.00" fill="#2d3436">test.sql</text>
</g>
<!-- 16668251a2064d6daf7f174569d15a32 -->
<g id="node11" class="node">
<title>16668251a2064d6daf7f174569d15a32</title>
<image xlink:href="/home/sura/.local/lib/python3.10/site-packages/resources/programming/flowchart/database.png" width="101px" height="101px" preserveAspectRatio="xMinYMin meet" x="646" y="-614"/>
<text text-anchor="middle" x="696.5" y="-498.6" font-family="Sans-Serif" font-size="13.00" fill="#2d3436">green2_action2_all</text>
</g>
<!-- ece85baecff7425aaeefef7823290c60&#45;&gt;16668251a2064d6daf7f174569d15a32 -->
<g id="edge33" class="edge">
<title>ece85baecff7425aaeefef7823290c60&#45;&gt;16668251a2064d6daf7f174569d15a32</title>
<path fill="none" stroke="#a4919d" d="M731.78,-993C731.78,-993 662.67,-993 662.67,-993 662.67,-993 662.67,-752.66 662.67,-631.56"/>
<polygon fill="#a4919d" stroke="#a4919d" points="731.78,-996.5 741.78,-993 731.78,-989.5 731.78,-996.5"/>
<text text-anchor="middle" x="500.5" y="-775.1" font-family="Sans-Serif" font-size="13.00" fill="#2d3436">test.sql</text>
</g>
<!-- 1284e3139ebe4b0bac63e885fbbd77b5 -->
<g id="node12" class="node">
<title>1284e3139ebe4b0bac63e885fbbd77b5</title>
<image xlink:href="/home/sura/.local/lib/python3.10/site-packages/resources/programming/flowchart/database.png" width="101px" height="101px" preserveAspectRatio="xMinYMin meet" x="790" y="-614"/>
<text text-anchor="middle" x="840.5" y="-498.6" font-family="Sans-Serif" font-size="13.00" fill="#2d3436">v3_1_issu@card</text>
</g>
<!-- ece85baecff7425aaeefef7823290c60&#45;&gt;1284e3139ebe4b0bac63e885fbbd77b5 -->
<g id="edge34" class="edge">
<title>ece85baecff7425aaeefef7823290c60&#45;&gt;1284e3139ebe4b0bac63e885fbbd77b5</title>
<path fill="none" stroke="#a4919d" d="M814.2,-913.85C814.2,-913.85 814.2,-631.67 814.2,-631.67"/>
<polygon fill="#a4919d" stroke="#a4919d" points="810.7,-913.85 814.2,-923.85 817.7,-913.85 810.7,-913.85"/>
<text text-anchor="middle" x="630.5" y="-775.1" font-family="Sans-Serif" font-size="13.00" fill="#2d3436">test.sql</text>
</g>
<!-- b2a5555af8c04d82a4546ee87a3f0ca5 -->
<g id="node13" class="node">
<title>b2a5555af8c04d82a4546ee87a3f0ca5</title>
<image xlink:href="/home/sura/.local/lib/python3.10/site-packages/resources/programming/flowchart/database.png" width="101px" height="101px" preserveAspectRatio="xMinYMin meet" x="1128" y="-829"/>
<text text-anchor="middle" x="1178.5" y="-713.6" font-family="Sans-Serif" font-size="13.00" fill="#2d3436">sj_all</text>
</g>
<!-- ece85baecff7425aaeefef7823290c60&#45;&gt;b2a5555af8c04d82a4546ee87a3f0ca5 -->
<g id="edge39" class="edge">
<title>ece85baecff7425aaeefef7823290c60&#45;&gt;b2a5555af8c04d82a4546ee87a3f0ca5</title>
<path fill="none" stroke="#a4919d" d="M855.35,-1001C855.35,-1001 1178.5,-1001 1178.5,-1001 1178.5,-1001 1178.5,-912.17 1178.5,-846.77"/>
<polygon fill="#a4919d" stroke="#a4919d" points="855.35,-997.5 845.35,-1001 855.35,-1004.5 855.35,-997.5"/>
<text text-anchor="middle" x="1171.5" y="-887.6" font-family="Sans-Serif" font-size="13.00" fill="#2d3436">test.sql</text>
</g>
<!-- c848afc5a5ac4f51aecd54072f5d1497 -->
<g id="node14" class="node">
<title>c848afc5a5ac4f51aecd54072f5d1497</title>
<image xlink:href="/home/sura/.local/lib/python3.10/site-packages/resources/programming/flowchart/database.png" width="101px" height="101px" preserveAspectRatio="xMinYMin meet" x="696" y="-829"/>
<text text-anchor="middle" x="746.5" y="-713.6" font-family="Sans-Serif" font-size="13.00" fill="#2d3436">bocnet_g_mgr_elect_social_card</text>
</g>
<!-- ece85baecff7425aaeefef7823290c60&#45;&gt;c848afc5a5ac4f51aecd54072f5d1497 -->
<g id="edge42" class="edge">
<title>ece85baecff7425aaeefef7823290c60&#45;&gt;c848afc5a5ac4f51aecd54072f5d1497</title>
<path fill="none" stroke="#a4919d" d="M779,-913.66C779,-913.66 779,-846.65 779,-846.65"/>
<polygon fill="#a4919d" stroke="#a4919d" points="775.5,-913.66 779,-923.66 782.5,-913.66 775.5,-913.66"/>
<text text-anchor="middle" x="769.5" y="-887.6" font-family="Sans-Serif" font-size="13.00" fill="#2d3436">test.sql</text>
</g>
<!-- 98a1b7c092aa4dbb893bda86236ad604 -->
<g id="node15" class="node">
<title>98a1b7c092aa4dbb893bda86236ad604</title>
<image xlink:href="/home/sura/.local/lib/python3.10/site-packages/resources/programming/flowchart/database.png" width="101px" height="101px" preserveAspectRatio="xMinYMin meet" x="840" y="-829"/>
<text text-anchor="middle" x="890.5" y="-713.6" font-family="Sans-Serif" font-size="13.00" fill="#2d3436">green_action10_trans</text>
</g>
<!-- ece85baecff7425aaeefef7823290c60&#45;&gt;98a1b7c092aa4dbb893bda86236ad604 -->
<g id="edge43" class="edge">
<title>ece85baecff7425aaeefef7823290c60&#45;&gt;98a1b7c092aa4dbb893bda86236ad604</title>
<path fill="none" stroke="#a4919d" d="M831.4,-913.5C831.4,-913.5 831.4,-778 831.4,-778 831.4,-778 834.87,-778 840.12,-778"/>
<polygon fill="#a4919d" stroke="#a4919d" points="827.9,-913.5 831.4,-923.5 834.9,-913.5 827.9,-913.5"/>
<text text-anchor="middle" x="862.5" y="-887.6" font-family="Sans-Serif" font-size="13.00" fill="#2d3436">test.sql</text>
</g>
<!-- ca0e118f21af4e79a6d524a970ac4808&#45;&gt;ddb77930b4f44fb08e470e8816ec5152 -->
<g id="edge16" class="edge">
<title>ca0e118f21af4e79a6d524a970ac4808&#45;&gt;ddb77930b4f44fb08e470e8816ec5152</title>
<path fill="none" stroke="#552b42" d="M1062.33,-698.62C1062.33,-698.62 1062.33,-676 1062.33,-676 1062.33,-676 1330.5,-676 1330.5,-676 1330.5,-676 1330.5,-512.74 1330.5,-416.76"/>
<polygon fill="#552b42" stroke="#552b42" points="1058.83,-698.62 1062.33,-708.62 1065.83,-698.62 1058.83,-698.62"/>
<text text-anchor="middle" x="1354.5" y="-560.1" font-family="Sans-Serif" font-size="13.00" fill="#2d3436">test.sql</text>
</g>
<!-- ca0e118f21af4e79a6d524a970ac4808&#45;&gt;e5e0e6487b93439ab778f15a7c572593 -->
<g id="edge26" class="edge">
<title>ca0e118f21af4e79a6d524a970ac4808&#45;&gt;e5e0e6487b93439ab778f15a7c572593</title>
<path fill="none" stroke="#552b42" d="M989.33,-698.78C989.33,-698.78 989.33,-397 989.33,-397 989.33,-397 679,-397 679,-397 679,-397 679,-279.77 679,-201.7"/>
<polygon fill="#552b42" stroke="#552b42" points="985.83,-698.78 989.33,-708.78 992.83,-698.78 985.83,-698.78"/>
<text text-anchor="middle" x="478.5" y="-457.6" font-family="Sans-Serif" font-size="13.00" fill="#2d3436">test.sql</text>
</g>
<!-- ca0e118f21af4e79a6d524a970ac4808&#45;&gt;429a3b3a5da8435b9f2e70a54d3aaf00 -->
<g id="edge27" class="edge">
<title>ca0e118f21af4e79a6d524a970ac4808&#45;&gt;429a3b3a5da8435b9f2e70a54d3aaf00</title>
<path fill="none" stroke="#552b42" d="M992.89,-698.57C992.89,-698.57 992.89,-201.7 992.89,-201.7"/>
<polygon fill="#552b42" stroke="#552b42" points="989.39,-698.57 992.89,-708.57 996.39,-698.57 989.39,-698.57"/>
<text text-anchor="middle" x="968.5" y="-457.6" font-family="Sans-Serif" font-size="13.00" fill="#2d3436">test.sql</text>
</g>
<!-- ca0e118f21af4e79a6d524a970ac4808&#45;&gt;d849cf2b5bb64ab29364d2f3b6efc7fc -->
<g id="edge28" class="edge">
<title>ca0e118f21af4e79a6d524a970ac4808&#45;&gt;d849cf2b5bb64ab29364d2f3b6efc7fc</title>
<path fill="none" stroke="#552b42" d="M991.11,-698.88C991.11,-698.88 991.11,-377 991.11,-377 991.11,-377 816.4,-377 816.4,-377 816.4,-377 816.4,-274 816.4,-201.98"/>
<polygon fill="#552b42" stroke="#552b42" points="987.61,-698.88 991.11,-708.88 994.61,-698.88 987.61,-698.88"/>
<text text-anchor="middle" x="761.5" y="-457.6" font-family="Sans-Serif" font-size="13.00" fill="#2d3436">test.sql</text>
</g>
<!-- ca0e118f21af4e79a6d524a970ac4808&#45;&gt;679ce146449b4416a8fb9296876cfd97 -->
<g id="edge30" class="edge">
<title>ca0e118f21af4e79a6d524a970ac4808&#45;&gt;679ce146449b4416a8fb9296876cfd97</title>
<path fill="none" stroke="#552b42" d="M1073.67,-698.85C1073.67,-698.85 1073.67,-416.67 1073.67,-416.67"/>
<polygon fill="#552b42" stroke="#552b42" points="1070.17,-698.85 1073.67,-708.85 1077.17,-698.85 1070.17,-698.85"/>
<text text-anchor="middle" x="1224.5" y="-560.1" font-family="Sans-Serif" font-size="13.00" fill="#2d3436">test.sql</text>
</g>
<!-- ca0e118f21af4e79a6d524a970ac4808&#45;&gt;d02bb87ddbac4e3eba8d6c05cd485456 -->
<g id="edge31" class="edge">
<title>ca0e118f21af4e79a6d524a970ac4808&#45;&gt;d02bb87ddbac4e3eba8d6c05cd485456</title>
<path fill="none" stroke="#552b42" d="M1049,-698.57C1049,-698.57 1049,-201.7 1049,-201.7"/>
<polygon fill="#552b42" stroke="#552b42" points="1045.5,-698.57 1049,-708.57 1052.5,-698.57 1045.5,-698.57"/>
<text text-anchor="middle" x="1152.5" y="-457.6" font-family="Sans-Serif" font-size="13.00" fill="#2d3436">test.sql</text>
</g>
<!-- ca0e118f21af4e79a6d524a970ac4808&#45;&gt;ece85baecff7425aaeefef7823290c60 -->
<g id="edge29" class="edge">
<title>ca0e118f21af4e79a6d524a970ac4808&#45;&gt;ece85baecff7425aaeefef7823290c60</title>
<path fill="none" stroke="#552b42" d="M1017.67,-858.51C1017.67,-858.51 1017.67,-955 1017.67,-955 1017.67,-955 909.9,-955 843.81,-955"/>
<polygon fill="#552b42" stroke="#552b42" points="1021.17,-858.51 1017.67,-848.51 1014.17,-858.51 1021.17,-858.51"/>
<text text-anchor="middle" x="957.5" y="-887.6" font-family="Sans-Serif" font-size="13.00" fill="#2d3436">test.sql</text>
</g>
<!-- ca0e118f21af4e79a6d524a970ac4808&#45;&gt;16668251a2064d6daf7f174569d15a32 -->
<g id="edge17" class="edge">
<title>ca0e118f21af4e79a6d524a970ac4808&#45;&gt;16668251a2064d6daf7f174569d15a32</title>
<path fill="none" stroke="#552b42" d="M985.78,-698.67C985.78,-698.67 985.78,-665 985.78,-665 985.78,-665 721.5,-665 721.5,-665 721.5,-665 721.5,-650.13 721.5,-631.77"/>
<polygon fill="#552b42" stroke="#552b42" points="982.28,-698.67 985.78,-708.67 989.28,-698.67 982.28,-698.67"/>
<text text-anchor="middle" x="753.5" y="-672.6" font-family="Sans-Serif" font-size="13.00" fill="#2d3436">test.sql</text>
</g>
<!-- ca0e118f21af4e79a6d524a970ac4808&#45;&gt;1284e3139ebe4b0bac63e885fbbd77b5 -->
<g id="edge25" class="edge">
<title>ca0e118f21af4e79a6d524a970ac4808&#45;&gt;1284e3139ebe4b0bac63e885fbbd77b5</title>
<path fill="none" stroke="#552b42" d="M987.56,-698.5C987.56,-698.5 987.56,-563 987.56,-563 987.56,-563 933.3,-563 890.7,-563"/>
<polygon fill="#552b42" stroke="#552b42" points="984.06,-698.5 987.56,-708.5 991.06,-698.5 984.06,-698.5"/>
<text text-anchor="middle" x="881.5" y="-672.6" font-family="Sans-Serif" font-size="13.00" fill="#2d3436">test.sql</text>
</g>
<!-- 16668251a2064d6daf7f174569d15a32&#45;&gt;ddb77930b4f44fb08e470e8816ec5152 -->
<g id="edge18" class="edge">
<title>16668251a2064d6daf7f174569d15a32&#45;&gt;ddb77930b4f44fb08e470e8816ec5152</title>
<path fill="none" stroke="#b766b9" d="M729.5,-483.6C729.5,-483.6 729.5,-456 729.5,-456 729.5,-456 1305.25,-456 1305.25,-456 1305.25,-456 1305.25,-438.09 1305.25,-416.89"/>
<polygon fill="#b766b9" stroke="#b766b9" points="726,-483.6 729.5,-493.6 733,-483.6 726,-483.6"/>
<text text-anchor="middle" x="1289.5" y="-457.6" font-family="Sans-Serif" font-size="13.00" fill="#2d3436">test.sql</text>
</g>
<!-- 16668251a2064d6daf7f174569d15a32&#45;&gt;e5e0e6487b93439ab778f15a7c572593 -->
<g id="edge19" class="edge">
<title>16668251a2064d6daf7f174569d15a32&#45;&gt;e5e0e6487b93439ab778f15a7c572593</title>
<path fill="none" stroke="#b766b9" d="M657,-483.85C657,-483.85 657,-201.67 657,-201.67"/>
<polygon fill="#b766b9" stroke="#b766b9" points="653.5,-483.85 657,-493.85 660.5,-483.85 653.5,-483.85"/>
<text text-anchor="middle" x="235.5" y="-345.1" font-family="Sans-Serif" font-size="13.00" fill="#2d3436">test.sql</text>
</g>
<!-- 16668251a2064d6daf7f174569d15a32&#45;&gt;429a3b3a5da8435b9f2e70a54d3aaf00 -->
<g id="edge20" class="edge">
<title>16668251a2064d6daf7f174569d15a32&#45;&gt;429a3b3a5da8435b9f2e70a54d3aaf00</title>
<path fill="none" stroke="#b766b9" d="M717.83,-483.67C717.83,-483.67 717.83,-430 717.83,-430 717.83,-430 920,-430 920,-430 920,-430 920,-289.46 920,-201.9"/>
<polygon fill="#b766b9" stroke="#b766b9" points="714.33,-483.67 717.83,-493.67 721.33,-483.67 714.33,-483.67"/>
<text text-anchor="middle" x="675.5" y="-345.1" font-family="Sans-Serif" font-size="13.00" fill="#2d3436">test.sql</text>
</g>
<!-- 16668251a2064d6daf7f174569d15a32&#45;&gt;d849cf2b5bb64ab29364d2f3b6efc7fc -->
<g id="edge21" class="edge">
<title>16668251a2064d6daf7f174569d15a32&#45;&gt;d849cf2b5bb64ab29364d2f3b6efc7fc</title>
<path fill="none" stroke="#b766b9" d="M735.33,-483.77C735.33,-483.77 735.33,-133 735.33,-133 735.33,-133 744.01,-133 755.25,-133"/>
<polygon fill="#b766b9" stroke="#b766b9" points="731.83,-483.77 735.33,-493.77 738.83,-483.77 731.83,-483.77"/>
<text text-anchor="middle" x="410.5" y="-345.1" font-family="Sans-Serif" font-size="13.00" fill="#2d3436">test.sql</text>
</g>
<!-- 16668251a2064d6daf7f174569d15a32&#45;&gt;679ce146449b4416a8fb9296876cfd97 -->
<g id="edge23" class="edge">
<title>16668251a2064d6daf7f174569d15a32&#45;&gt;679ce146449b4416a8fb9296876cfd97</title>
<path fill="none" stroke="#b766b9" d="M741.17,-483.56C741.17,-483.56 741.17,-358 741.17,-358 741.17,-358 951.85,-358 1051.02,-358"/>
<polygon fill="#b766b9" stroke="#b766b9" points="737.67,-483.56 741.17,-493.56 744.67,-483.56 737.67,-483.56"/>
<text text-anchor="middle" x="1060.5" y="-457.6" font-family="Sans-Serif" font-size="13.00" fill="#2d3436">test.sql</text>
</g>
<!-- 16668251a2064d6daf7f174569d15a32&#45;&gt;d02bb87ddbac4e3eba8d6c05cd485456 -->
<g id="edge24" class="edge">
<title>16668251a2064d6daf7f174569d15a32&#45;&gt;d02bb87ddbac4e3eba8d6c05cd485456</title>
<path fill="none" stroke="#b766b9" d="M723.67,-483.64C723.67,-483.64 723.67,-443 723.67,-443 723.67,-443 1045,-443 1045,-443 1045,-443 1045,-292.95 1045,-201.8"/>
<polygon fill="#b766b9" stroke="#b766b9" points="720.17,-483.64 723.67,-493.64 727.17,-483.64 720.17,-483.64"/>
<text text-anchor="middle" x="895.5" y="-345.1" font-family="Sans-Serif" font-size="13.00" fill="#2d3436">test.sql</text>
</g>
<!-- 16668251a2064d6daf7f174569d15a32&#45;&gt;ece85baecff7425aaeefef7823290c60 -->
<g id="edge22" class="edge">
<title>16668251a2064d6daf7f174569d15a32&#45;&gt;ece85baecff7425aaeefef7823290c60</title>
<path fill="none" stroke="#b766b9" d="M679.33,-643.45C679.33,-643.45 679.33,-959 679.33,-959 679.33,-959 712.51,-959 743.09,-959"/>
<polygon fill="#b766b9" stroke="#b766b9" points="682.83,-643.45 679.33,-633.45 675.83,-643.45 682.83,-643.45"/>
<text text-anchor="middle" x="370.5" y="-775.1" font-family="Sans-Serif" font-size="13.00" fill="#2d3436">test.sql</text>
</g>
<!-- 98a1b7c092aa4dbb893bda86236ad604&#45;&gt;d849cf2b5bb64ab29364d2f3b6efc7fc -->
<g id="edge44" class="edge">
<title>98a1b7c092aa4dbb893bda86236ad604&#45;&gt;d849cf2b5bb64ab29364d2f3b6efc7fc</title>
<path fill="none" stroke="#40124f" d="M895,-698.52C895,-698.52 895,-133 895,-133 895,-133 876.15,-133 855.74,-133"/>
<polygon fill="#40124f" stroke="#40124f" points="891.5,-698.52 895,-708.52 898.5,-698.52 891.5,-698.52"/>
<text text-anchor="middle" x="570.5" y="-457.6" font-family="Sans-Serif" font-size="13.00" fill="#2d3436">test.sql</text>
</g>
</g>
</svg>
