<?xml version="1.0" encoding="UTF-8" standalone="no"?>
<!DOCTYPE svg PUBLIC "-//W3C//DTD SVG 1.1//EN"
 "http://www.w3.org/Graphics/SVG/1.1/DTD/svg11.dtd">
<!-- Generated by graphviz version 7.1.0 (0)
 -->
<!-- Title: 表关系依赖图 Pages: 1 -->
<svg width="1908pt" height="1519pt"
 viewBox="0.00 0.00 1907.50 1519.00" xmlns="http://www.w3.org/2000/svg" xmlns:xlink="http://www.w3.org/1999/xlink">
<g id="graph0" class="graph" transform="scale(1 1) rotate(0) translate(144 1375)">
<title>表关系依赖图</title>
<polygon fill="white" stroke="none" points="-144,144 -144,-1375 1763.5,-1375 1763.5,144 -144,144"/>
<text text-anchor="middle" x="809.75" y="-9" font-family="Sans-Serif" font-size="15.00" fill="#2d3436">表关系依赖图</text>
<g id="clust1" class="cluster">
<title>cluster_Root源</title>
<path fill="#e5f5fd" stroke="#aeb6be" d="M121.5,-33C121.5,-33 1599.5,-33 1599.5,-33 1605.5,-33 1611.5,-39 1611.5,-45 1611.5,-45 1611.5,-1211 1611.5,-1211 1611.5,-1217 1605.5,-1223 1599.5,-1223 1599.5,-1223 121.5,-1223 121.5,-1223 115.5,-1223 109.5,-1217 109.5,-1211 109.5,-1211 109.5,-45 109.5,-45 109.5,-39 115.5,-33 121.5,-33"/>
<text text-anchor="middle" x="137.5" y="-1209.4" font-family="Sans-Serif" font-size="12.00" fill="#2d3436">Root源</text>
</g>
<g id="clust2" class="cluster">
<title>cluster_脚本:test.sql</title>
<path fill="#ebf3e7" stroke="#aeb6be" d="M129.5,-41C129.5,-41 1591.5,-41 1591.5,-41 1597.5,-41 1603.5,-47 1603.5,-53 1603.5,-53 1603.5,-1182 1603.5,-1182 1603.5,-1188 1597.5,-1194 1591.5,-1194 1591.5,-1194 129.5,-1194 129.5,-1194 123.5,-1194 117.5,-1188 117.5,-1182 117.5,-1182 117.5,-53 117.5,-53 117.5,-47 123.5,-41 129.5,-41"/>
<text text-anchor="middle" x="160" y="-1180.4" font-family="Sans-Serif" font-size="12.00" fill="#2d3436">脚本:test.sql</text>
</g>
<g id="clust3" class="cluster">
<title>cluster_dqa_lszh_result_0715源</title>
<path fill="#ece8f6" stroke="#aeb6be" d="M137.5,-49C137.5,-49 1384.5,-49 1384.5,-49 1390.5,-49 1396.5,-55 1396.5,-61 1396.5,-61 1396.5,-1153 1396.5,-1153 1396.5,-1159 1390.5,-1165 1384.5,-1165 1384.5,-1165 137.5,-1165 137.5,-1165 131.5,-1165 125.5,-1159 125.5,-1153 125.5,-1153 125.5,-61 125.5,-61 125.5,-55 131.5,-49 137.5,-49"/>
<text text-anchor="middle" x="199.5" y="-1151.4" font-family="Sans-Serif" font-size="12.00" fill="#2d3436">dqa_lszh_result_0715源</text>
</g>
<g id="clust4" class="cluster">
<title>cluster_green2_card_all源</title>
<path fill="#fdf7e3" stroke="#aeb6be" d="M1023.5,-57C1023.5,-57 1261.5,-57 1261.5,-57 1267.5,-57 1273.5,-63 1273.5,-69 1273.5,-69 1273.5,-240 1273.5,-240 1273.5,-246 1267.5,-252 1261.5,-252 1261.5,-252 1023.5,-252 1023.5,-252 1017.5,-252 1011.5,-246 1011.5,-240 1011.5,-240 1011.5,-69 1011.5,-69 1011.5,-63 1017.5,-57 1023.5,-57"/>
<text text-anchor="middle" x="1069.5" y="-238.4" font-family="Sans-Serif" font-size="12.00" fill="#2d3436">green2_card_all源</text>
</g>
<g id="clust5" class="cluster">
<title>cluster_dqa_lszh_result_0620源</title>
<path fill="#fdf7e3" stroke="#aeb6be" d="M560.5,-285C560.5,-285 1086.5,-285 1086.5,-285 1092.5,-285 1098.5,-291 1098.5,-297 1098.5,-297 1098.5,-917 1098.5,-917 1098.5,-923 1092.5,-929 1086.5,-929 1086.5,-929 560.5,-929 560.5,-929 554.5,-929 548.5,-923 548.5,-917 548.5,-917 548.5,-297 548.5,-297 548.5,-291 554.5,-285 560.5,-285"/>
<text text-anchor="middle" x="622.5" y="-915.4" font-family="Sans-Serif" font-size="12.00" fill="#2d3436">dqa_lszh_result_0620源</text>
</g>
<g id="clust7" class="cluster">
<title>cluster_green2_action2_all源</title>
<path fill="#e5f5fd" stroke="#aeb6be" d="M761.5,-293C761.5,-293 871.5,-293 871.5,-293 877.5,-293 883.5,-299 883.5,-305 883.5,-305 883.5,-476 883.5,-476 883.5,-482 877.5,-488 871.5,-488 871.5,-488 761.5,-488 761.5,-488 755.5,-488 749.5,-482 749.5,-476 749.5,-476 749.5,-305 749.5,-305 749.5,-299 755.5,-293 761.5,-293"/>
<text text-anchor="middle" x="816.5" y="-474.4" font-family="Sans-Serif" font-size="12.00" fill="#2d3436">green2_action2_all源</text>
</g>
<!-- beff148a3bdd4a719e1100d34b784de8 -->
<g id="node1" class="node">
<title>beff148a3bdd4a719e1100d34b784de8</title>
<image xlink:href="/home/sura/.local/lib/python3.10/site-packages/resources/programming/flowchart/database.png" width="101px" height="101px" preserveAspectRatio="xMinYMin meet" x="0" y="-1097"/>
<text text-anchor="middle" x="50.5" y="-981.6" font-family="Sans-Serif" font-size="13.00" fill="#2d3436">Root</text>
</g>
<!-- 27f601cc202a40f7ba2ffd3e0cb2da53 -->
<g id="node2" class="node">
<title>27f601cc202a40f7ba2ffd3e0cb2da53</title>
<image xlink:href="/home/sura/.local/lib/python3.10/site-packages/resources/programming/flowchart/database.png" width="101px" height="101px" preserveAspectRatio="xMinYMin meet" x="1407" y="-861"/>
<text text-anchor="middle" x="1457.5" y="-745.6" font-family="Sans-Serif" font-size="13.00" fill="#2d3436">dqa_lszh_result_0715</text>
</g>
<!-- 6fd8367748d2488699b7c2e79175b525 -->
<g id="node3" class="node">
<title>6fd8367748d2488699b7c2e79175b525</title>
<image xlink:href="/home/sura/.local/lib/python3.10/site-packages/resources/programming/flowchart/database.png" width="101px" height="101px" preserveAspectRatio="xMinYMin meet" x="466" y="-184"/>
<text text-anchor="middle" x="516.5" y="-68.6" font-family="Sans-Serif" font-size="13.00" fill="#2d3436">bancs_cadm</text>
</g>
<!-- 27f601cc202a40f7ba2ffd3e0cb2da53&#45;&gt;6fd8367748d2488699b7c2e79175b525 -->
<g id="edge1" class="edge">
<title>27f601cc202a40f7ba2ffd3e0cb2da53&#45;&gt;6fd8367748d2488699b7c2e79175b525</title>
<path fill="none" stroke="#d47d5e" d="M1457.5,-730.57C1457.5,-730.57 1457.5,-712 1457.5,-712 1457.5,-712 559.5,-712 559.5,-712 559.5,-712 559.5,-354.93 559.5,-201.85"/>
<polygon fill="#d47d5e" stroke="#d47d5e" points="1454,-730.57 1457.5,-740.57 1461,-730.57 1454,-730.57"/>
<text text-anchor="middle" x="1489.5" y="-499.6" font-family="Sans-Serif" font-size="13.00" fill="#2d3436"> </text>
</g>
<!-- d91a7ab5fca54d0583454bd7fc1f032e -->
<g id="node4" class="node">
<title>d91a7ab5fca54d0583454bd7fc1f032e</title>
<image xlink:href="/home/sura/.local/lib/python3.10/site-packages/resources/programming/flowchart/database.png" width="101px" height="101px" preserveAspectRatio="xMinYMin meet" x="285" y="-184"/>
<text text-anchor="middle" x="335.5" y="-68.6" font-family="Sans-Serif" font-size="13.00" fill="#2d3436">bocnet_customer</text>
</g>
<!-- 27f601cc202a40f7ba2ffd3e0cb2da53&#45;&gt;d91a7ab5fca54d0583454bd7fc1f032e -->
<g id="edge2" class="edge">
<title>27f601cc202a40f7ba2ffd3e0cb2da53&#45;&gt;d91a7ab5fca54d0583454bd7fc1f032e</title>
<path fill="none" stroke="#d47d5e" d="M1432.25,-730.57C1432.25,-730.57 1432.25,-722 1432.25,-722 1432.25,-722 328.29,-722 328.29,-722 328.29,-722 328.29,-356.95 328.29,-201.87"/>
<polygon fill="#d47d5e" stroke="#d47d5e" points="1428.75,-730.57 1432.25,-740.57 1435.75,-730.57 1428.75,-730.57"/>
<text text-anchor="middle" x="1437.5" y="-499.6" font-family="Sans-Serif" font-size="13.00" fill="#2d3436"> </text>
</g>
<!-- 1528e4cd99f94c2a99091f173c5b37d9 -->
<g id="node5" class="node">
<title>1528e4cd99f94c2a99091f173c5b37d9</title>
<image xlink:href="/home/sura/.local/lib/python3.10/site-packages/resources/programming/flowchart/database.png" width="101px" height="101px" preserveAspectRatio="xMinYMin meet" x="1107" y="-420"/>
<text text-anchor="middle" x="1157.5" y="-304.6" font-family="Sans-Serif" font-size="13.00" fill="#2d3436">green2_card_all</text>
</g>
<!-- 27f601cc202a40f7ba2ffd3e0cb2da53&#45;&gt;1528e4cd99f94c2a99091f173c5b37d9 -->
<g id="edge3" class="edge">
<title>27f601cc202a40f7ba2ffd3e0cb2da53&#45;&gt;1528e4cd99f94c2a99091f173c5b37d9</title>
<path fill="none" stroke="#d47d5e" d="M1395.59,-810C1395.59,-810 1182.75,-810 1182.75,-810 1182.75,-810 1182.75,-561.57 1182.75,-437.84"/>
<polygon fill="#d47d5e" stroke="#d47d5e" points="1395.59,-813.5 1405.59,-810 1395.59,-806.5 1395.59,-813.5"/>
<text text-anchor="middle" x="1413.5" y="-602.1" font-family="Sans-Serif" font-size="13.00" fill="#2d3436"> </text>
</g>
<!-- 0a942916bbf84345a85710cbe812d3f7 -->
<g id="node6" class="node">
<title>0a942916bbf84345a85710cbe812d3f7</title>
<image xlink:href="/home/sura/.local/lib/python3.10/site-packages/resources/programming/flowchart/database.png" width="101px" height="101px" preserveAspectRatio="xMinYMin meet" x="1164" y="-184"/>
<text text-anchor="middle" x="1214.5" y="-68.6" font-family="Sans-Serif" font-size="13.00" fill="#2d3436">ctis_txn_tif_bas_p</text>
</g>
<!-- 27f601cc202a40f7ba2ffd3e0cb2da53&#45;&gt;0a942916bbf84345a85710cbe812d3f7 -->
<g id="edge8" class="edge">
<title>27f601cc202a40f7ba2ffd3e0cb2da53&#45;&gt;0a942916bbf84345a85710cbe812d3f7</title>
<path fill="none" stroke="#d47d5e" d="M1395.58,-776C1395.58,-776 1253.6,-776 1253.6,-776 1253.6,-776 1253.6,-367.51 1253.6,-201.95"/>
<polygon fill="#d47d5e" stroke="#d47d5e" points="1395.58,-779.5 1405.58,-776 1395.58,-772.5 1395.58,-779.5"/>
<text text-anchor="middle" x="1593.5" y="-499.6" font-family="Sans-Serif" font-size="13.00" fill="#2d3436"> </text>
</g>
<!-- 392bfa46944d458f87974d37ee86ea04 -->
<g id="node7" class="node">
<title>392bfa46944d458f87974d37ee86ea04</title>
<image xlink:href="/home/sura/.local/lib/python3.10/site-packages/resources/programming/flowchart/database.png" width="101px" height="101px" preserveAspectRatio="xMinYMin meet" x="1020" y="-184"/>
<text text-anchor="middle" x="1070.5" y="-68.6" font-family="Sans-Serif" font-size="13.00" fill="#2d3436">bocnet_users_chnl</text>
</g>
<!-- 27f601cc202a40f7ba2ffd3e0cb2da53&#45;&gt;392bfa46944d458f87974d37ee86ea04 -->
<g id="edge47" class="edge">
<title>27f601cc202a40f7ba2ffd3e0cb2da53&#45;&gt;392bfa46944d458f87974d37ee86ea04</title>
<path fill="none" stroke="#d47d5e" d="M1395.71,-844C1395.71,-844 1101.33,-844 1101.33,-844 1101.33,-844 1101.33,-380.02 1101.33,-201.95"/>
<polygon fill="#d47d5e" stroke="#d47d5e" points="1395.71,-847.5 1405.71,-844 1395.71,-840.5 1395.71,-847.5"/>
<text text-anchor="middle" x="1541.5" y="-499.6" font-family="Sans-Serif" font-size="13.00" fill="#2d3436"> </text>
</g>
<!-- c65d6e9ac985467fac07b48eab036076 -->
<g id="node8" class="node">
<title>c65d6e9ac985467fac07b48eab036076</title>
<image xlink:href="/home/sura/.local/lib/python3.10/site-packages/resources/programming/flowchart/database.png" width="101px" height="101px" preserveAspectRatio="xMinYMin meet" x="598" y="-1097"/>
<text text-anchor="middle" x="648.5" y="-981.6" font-family="Sans-Serif" font-size="13.00" fill="#2d3436">dqa_lszh_result_0620</text>
</g>
<!-- 27f601cc202a40f7ba2ffd3e0cb2da53&#45;&gt;c65d6e9ac985467fac07b48eab036076 -->
<g id="edge9" class="edge">
<title>27f601cc202a40f7ba2ffd3e0cb2da53&#45;&gt;c65d6e9ac985467fac07b48eab036076</title>
<path fill="none" stroke="#d47d5e" d="M1474.33,-890.36C1474.33,-890.36 1474.33,-1102 1474.33,-1102 1474.33,-1102 878.22,-1102 698.92,-1102"/>
<polygon fill="#d47d5e" stroke="#d47d5e" points="1477.83,-890.36 1474.33,-880.36 1470.83,-890.36 1477.83,-890.36"/>
<text text-anchor="middle" x="1427.5" y="-940.6" font-family="Sans-Serif" font-size="13.00" fill="#2d3436"> </text>
</g>
<!-- 6fcb8832769e42f299975633f47ba128 -->
<g id="node11" class="node">
<title>6fcb8832769e42f299975633f47ba128</title>
<image xlink:href="/home/sura/.local/lib/python3.10/site-packages/resources/programming/flowchart/database.png" width="101px" height="101px" preserveAspectRatio="xMinYMin meet" x="766" y="-420"/>
<text text-anchor="middle" x="816.5" y="-304.6" font-family="Sans-Serif" font-size="13.00" fill="#2d3436">green2_card_res</text>
</g>
<!-- 27f601cc202a40f7ba2ffd3e0cb2da53&#45;&gt;6fcb8832769e42f299975633f47ba128 -->
<g id="edge46" class="edge">
<title>27f601cc202a40f7ba2ffd3e0cb2da53&#45;&gt;6fcb8832769e42f299975633f47ba128</title>
<path fill="none" stroke="#d47d5e" d="M1482.75,-730.6C1482.75,-730.6 1482.75,-703 1482.75,-703 1482.75,-703 851.33,-703 851.33,-703 851.33,-703 851.33,-535.36 851.33,-437.79"/>
<polygon fill="#d47d5e" stroke="#d47d5e" points="1479.25,-730.6 1482.75,-740.6 1486.25,-730.6 1479.25,-730.6"/>
<text text-anchor="middle" x="1323.5" y="-602.1" font-family="Sans-Serif" font-size="13.00" fill="#2d3436"> </text>
</g>
<!-- 1528e4cd99f94c2a99091f173c5b37d9&#45;&gt;6fd8367748d2488699b7c2e79175b525 -->
<g id="edge4" class="edge">
<title>1528e4cd99f94c2a99091f173c5b37d9&#45;&gt;6fd8367748d2488699b7c2e79175b525</title>
<path fill="none" stroke="#7b8f60" d="M1114,-289.58C1114,-289.58 1114,-261 1114,-261 1114,-261 564.5,-261 564.5,-261 564.5,-261 564.5,-232.04 564.5,-201.73"/>
<polygon fill="#7b8f60" stroke="#7b8f60" points="1110.5,-289.58 1114,-299.58 1117.5,-289.58 1110.5,-289.58"/>
<text text-anchor="middle" x="1060.5" y="-263.6" font-family="Sans-Serif" font-size="13.00" fill="#2d3436"> </text>
</g>
<!-- 1528e4cd99f94c2a99091f173c5b37d9&#45;&gt;d91a7ab5fca54d0583454bd7fc1f032e -->
<g id="edge5" class="edge">
<title>1528e4cd99f94c2a99091f173c5b37d9&#45;&gt;d91a7ab5fca54d0583454bd7fc1f032e</title>
<path fill="none" stroke="#7b8f60" d="M1110.5,-289.57C1110.5,-289.57 1110.5,-281 1110.5,-281 1110.5,-281 371.57,-281 371.57,-281 371.57,-281 371.57,-240.28 371.57,-201.64"/>
<polygon fill="#7b8f60" stroke="#7b8f60" points="1107,-289.57 1110.5,-299.57 1114,-289.57 1107,-289.57"/>
<text text-anchor="middle" x="594.5" y="-263.6" font-family="Sans-Serif" font-size="13.00" fill="#2d3436"> </text>
</g>
<!-- 1528e4cd99f94c2a99091f173c5b37d9&#45;&gt;0a942916bbf84345a85710cbe812d3f7 -->
<g id="edge6" class="edge">
<title>1528e4cd99f94c2a99091f173c5b37d9&#45;&gt;0a942916bbf84345a85710cbe812d3f7</title>
<path fill="none" stroke="#7b8f60" d="M1197,-289.73C1197,-289.73 1197,-201.61 1197,-201.61"/>
<polygon fill="#7b8f60" stroke="#7b8f60" points="1193.5,-289.73 1197,-299.73 1200.5,-289.73 1193.5,-289.73"/>
<text text-anchor="middle" x="1216.5" y="-263.6" font-family="Sans-Serif" font-size="13.00" fill="#2d3436"> </text>
</g>
<!-- 1528e4cd99f94c2a99091f173c5b37d9&#45;&gt;392bfa46944d458f87974d37ee86ea04 -->
<g id="edge7" class="edge">
<title>1528e4cd99f94c2a99091f173c5b37d9&#45;&gt;392bfa46944d458f87974d37ee86ea04</title>
<path fill="none" stroke="#7b8f60" d="M1117.5,-289.73C1117.5,-289.73 1117.5,-201.61 1117.5,-201.61"/>
<polygon fill="#7b8f60" stroke="#7b8f60" points="1114,-289.73 1117.5,-299.73 1121,-289.73 1114,-289.73"/>
<text text-anchor="middle" x="1164.5" y="-263.6" font-family="Sans-Serif" font-size="13.00" fill="#2d3436"> </text>
</g>
<!-- c65d6e9ac985467fac07b48eab036076&#45;&gt;27f601cc202a40f7ba2ffd3e0cb2da53 -->
<g id="edge14" class="edge">
<title>c65d6e9ac985467fac07b48eab036076&#45;&gt;27f601cc202a40f7ba2ffd3e0cb2da53</title>
<path fill="none" stroke="#cba1d4" d="M710.47,-1090C710.47,-1090 1440.67,-1090 1440.67,-1090 1440.67,-1090 1440.67,-961.62 1440.67,-878.87"/>
<polygon fill="#cba1d4" stroke="#cba1d4" points="710.47,-1086.5 700.47,-1090 710.47,-1093.5 710.47,-1086.5"/>
<text text-anchor="middle" x="1342.5" y="-940.6" font-family="Sans-Serif" font-size="13.00" fill="#2d3436"> </text>
</g>
<!-- c65d6e9ac985467fac07b48eab036076&#45;&gt;6fd8367748d2488699b7c2e79175b525 -->
<g id="edge10" class="edge">
<title>c65d6e9ac985467fac07b48eab036076&#45;&gt;6fd8367748d2488699b7c2e79175b525</title>
<path fill="none" stroke="#cba1d4" d="M586.75,-1023C586.75,-1023 511.5,-1023 511.5,-1023 511.5,-1023 511.5,-410.11 511.5,-201.82"/>
<polygon fill="#cba1d4" stroke="#cba1d4" points="586.75,-1026.5 596.75,-1023 586.75,-1019.5 586.75,-1026.5"/>
<text text-anchor="middle" x="268.5" y="-602.1" font-family="Sans-Serif" font-size="13.00" fill="#2d3436"> </text>
</g>
<!-- c65d6e9ac985467fac07b48eab036076&#45;&gt;d91a7ab5fca54d0583454bd7fc1f032e -->
<g id="edge11" class="edge">
<title>c65d6e9ac985467fac07b48eab036076&#45;&gt;d91a7ab5fca54d0583454bd7fc1f032e</title>
<path fill="none" stroke="#cba1d4" d="M586.6,-1069C586.6,-1069 299.43,-1069 299.43,-1069 299.43,-1069 299.43,-417.57 299.43,-201.91"/>
<polygon fill="#cba1d4" stroke="#cba1d4" points="586.6,-1072.5 596.6,-1069 586.6,-1065.5 586.6,-1072.5"/>
<text text-anchor="middle" x="178.5" y="-602.1" font-family="Sans-Serif" font-size="13.00" fill="#2d3436"> </text>
</g>
<!-- c65d6e9ac985467fac07b48eab036076&#45;&gt;1528e4cd99f94c2a99091f173c5b37d9 -->
<g id="edge29" class="edge">
<title>c65d6e9ac985467fac07b48eab036076&#45;&gt;1528e4cd99f94c2a99091f173c5b37d9</title>
<path fill="none" stroke="#cba1d4" d="M710.21,-1065C710.21,-1065 1157.5,-1065 1157.5,-1065 1157.5,-1065 1157.5,-613.01 1157.5,-437.77"/>
<polygon fill="#cba1d4" stroke="#cba1d4" points="710.21,-1061.5 700.21,-1065 710.21,-1068.5 710.21,-1061.5"/>
<text text-anchor="middle" x="1181.5" y="-704.6" font-family="Sans-Serif" font-size="13.00" fill="#2d3436"> </text>
</g>
<!-- c65d6e9ac985467fac07b48eab036076&#45;&gt;0a942916bbf84345a85710cbe812d3f7 -->
<g id="edge30" class="edge">
<title>c65d6e9ac985467fac07b48eab036076&#45;&gt;0a942916bbf84345a85710cbe812d3f7</title>
<path fill="none" stroke="#cba1d4" d="M710.38,-1077C710.38,-1077 1242.2,-1077 1242.2,-1077 1242.2,-1077 1242.2,-418.46 1242.2,-201.73"/>
<polygon fill="#cba1d4" stroke="#cba1d4" points="710.38,-1073.5 700.38,-1077 710.38,-1080.5 710.38,-1073.5"/>
<text text-anchor="middle" x="448.5" y="-602.1" font-family="Sans-Serif" font-size="13.00" fill="#2d3436"> </text>
</g>
<!-- c65d6e9ac985467fac07b48eab036076&#45;&gt;392bfa46944d458f87974d37ee86ea04 -->
<g id="edge45" class="edge">
<title>c65d6e9ac985467fac07b48eab036076&#45;&gt;392bfa46944d458f87974d37ee86ea04</title>
<path fill="none" stroke="#cba1d4" d="M710.44,-1052C710.44,-1052 1095.67,-1052 1095.67,-1052 1095.67,-1052 1095.67,-414.65 1095.67,-201.79"/>
<polygon fill="#cba1d4" stroke="#cba1d4" points="710.44,-1048.5 700.44,-1052 710.44,-1055.5 710.44,-1048.5"/>
<text text-anchor="middle" x="358.5" y="-602.1" font-family="Sans-Serif" font-size="13.00" fill="#2d3436"> </text>
</g>
<!-- c65d6e9ac985467fac07b48eab036076&#45;&gt;c65d6e9ac985467fac07b48eab036076 -->
<g id="edge31" class="edge">
<title>c65d6e9ac985467fac07b48eab036076&#45;&gt;c65d6e9ac985467fac07b48eab036076</title>
<path fill="none" stroke="#cba1d4" d="M648.5,-1126.17C648.5,-1126.17 648.5,-1133 648.5,-1133 648.5,-1133 577.5,-1133 577.5,-1133 577.5,-1133 577.5,-928 577.5,-928 577.5,-928 618,-928 618,-928 618,-928 618,-951.91 618,-978.25"/>
<polygon fill="#cba1d4" stroke="#cba1d4" points="652,-1126.17 648.5,-1116.17 645,-1126.17 652,-1126.17"/>
</g>
<!-- 1e52bfc54628431ab7f84d7cdce19dd7 -->
<g id="node9" class="node">
<title>1e52bfc54628431ab7f84d7cdce19dd7</title>
<image xlink:href="/home/sura/.local/lib/python3.10/site-packages/resources/programming/flowchart/database.png" width="101px" height="101px" preserveAspectRatio="xMinYMin meet" x="845" y="-861"/>
<text text-anchor="middle" x="895.5" y="-745.6" font-family="Sans-Serif" font-size="13.00" fill="#2d3436">green_action10_trans</text>
</g>
<!-- c65d6e9ac985467fac07b48eab036076&#45;&gt;1e52bfc54628431ab7f84d7cdce19dd7 -->
<g id="edge12" class="edge">
<title>c65d6e9ac985467fac07b48eab036076&#45;&gt;1e52bfc54628431ab7f84d7cdce19dd7</title>
<path fill="none" stroke="#cba1d4" d="M710.3,-1002C710.3,-1002 895.5,-1002 895.5,-1002 895.5,-1002 895.5,-933.82 895.5,-878.82"/>
<polygon fill="#cba1d4" stroke="#cba1d4" points="710.3,-998.5 700.3,-1002 710.3,-1005.5 710.3,-998.5"/>
<text text-anchor="middle" x="846.5" y="-940.6" font-family="Sans-Serif" font-size="13.00" fill="#2d3436"> </text>
</g>
<!-- a96485cdfdd6434b9575a6775181da36 -->
<g id="node10" class="node">
<title>a96485cdfdd6434b9575a6775181da36</title>
<image xlink:href="/home/sura/.local/lib/python3.10/site-packages/resources/programming/flowchart/database.png" width="101px" height="101px" preserveAspectRatio="xMinYMin meet" x="864" y="-656"/>
<text text-anchor="middle" x="914.5" y="-540.6" font-family="Sans-Serif" font-size="13.00" fill="#2d3436">green2_action2_all</text>
</g>
<!-- c65d6e9ac985467fac07b48eab036076&#45;&gt;a96485cdfdd6434b9575a6775181da36 -->
<g id="edge15" class="edge">
<title>c65d6e9ac985467fac07b48eab036076&#45;&gt;a96485cdfdd6434b9575a6775181da36</title>
<path fill="none" stroke="#cba1d4" d="M710.19,-1027C710.19,-1027 958.67,-1027 958.67,-1027 958.67,-1027 958.67,-792.98 958.67,-673.69"/>
<polygon fill="#cba1d4" stroke="#cba1d4" points="710.19,-1023.5 700.19,-1027 710.19,-1030.5 710.19,-1023.5"/>
<text text-anchor="middle" x="1178.5" y="-807.1" font-family="Sans-Serif" font-size="13.00" fill="#2d3436"> </text>
</g>
<!-- c65d6e9ac985467fac07b48eab036076&#45;&gt;6fcb8832769e42f299975633f47ba128 -->
<g id="edge33" class="edge">
<title>c65d6e9ac985467fac07b48eab036076&#45;&gt;6fcb8832769e42f299975633f47ba128</title>
<path fill="none" stroke="#cba1d4" d="M710.16,-990C710.16,-990 823.5,-990 823.5,-990 823.5,-990 823.5,-599.35 823.5,-437.98"/>
<polygon fill="#cba1d4" stroke="#cba1d4" points="710.16,-986.5 700.16,-990 710.16,-993.5 710.16,-986.5"/>
<text text-anchor="middle" x="494.5" y="-704.6" font-family="Sans-Serif" font-size="13.00" fill="#2d3436"> </text>
</g>
<!-- 8f2da7dc12354d63a0ff88222c3c60ee -->
<g id="node12" class="node">
<title>8f2da7dc12354d63a0ff88222c3c60ee</title>
<image xlink:href="/home/sura/.local/lib/python3.10/site-packages/resources/programming/flowchart/database.png" width="101px" height="101px" preserveAspectRatio="xMinYMin meet" x="629" y="-656"/>
<text text-anchor="middle" x="679.5" y="-540.6" font-family="Sans-Serif" font-size="13.00" fill="#2d3436">v3_1_issu@card</text>
</g>
<!-- c65d6e9ac985467fac07b48eab036076&#45;&gt;8f2da7dc12354d63a0ff88222c3c60ee -->
<g id="edge28" class="edge">
<title>c65d6e9ac985467fac07b48eab036076&#45;&gt;8f2da7dc12354d63a0ff88222c3c60ee</title>
<path fill="none" stroke="#cba1d4" d="M668.25,-966.56C668.25,-966.56 668.25,-673.72 668.25,-673.72"/>
<polygon fill="#cba1d4" stroke="#cba1d4" points="664.75,-966.56 668.25,-976.56 671.75,-966.56 664.75,-966.56"/>
<text text-anchor="middle" x="421.5" y="-807.1" font-family="Sans-Serif" font-size="13.00" fill="#2d3436"> </text>
</g>
<!-- 83d521491cd442d49512fa6e82c8e704 -->
<g id="node13" class="node">
<title>83d521491cd442d49512fa6e82c8e704</title>
<image xlink:href="/home/sura/.local/lib/python3.10/site-packages/resources/programming/flowchart/database.png" width="101px" height="101px" preserveAspectRatio="xMinYMin meet" x="989" y="-861"/>
<text text-anchor="middle" x="1039.5" y="-745.6" font-family="Sans-Serif" font-size="13.00" fill="#2d3436">bocnet_g_mgr_elect_social_card</text>
</g>
<!-- c65d6e9ac985467fac07b48eab036076&#45;&gt;83d521491cd442d49512fa6e82c8e704 -->
<g id="edge32" class="edge">
<title>c65d6e9ac985467fac07b48eab036076&#45;&gt;83d521491cd442d49512fa6e82c8e704</title>
<path fill="none" stroke="#cba1d4" d="M710.33,-1040C710.33,-1040 1039.5,-1040 1039.5,-1040 1039.5,-1040 1039.5,-946.39 1039.5,-878.74"/>
<polygon fill="#cba1d4" stroke="#cba1d4" points="710.33,-1036.5 700.33,-1040 710.33,-1043.5 710.33,-1036.5"/>
<text text-anchor="middle" x="970.5" y="-940.6" font-family="Sans-Serif" font-size="13.00" fill="#2d3436"> </text>
</g>
<!-- bb1ff301db284a57830cc6503883a4a2 -->
<g id="node14" class="node">
<title>bb1ff301db284a57830cc6503883a4a2</title>
<image xlink:href="/home/sura/.local/lib/python3.10/site-packages/resources/programming/flowchart/database.png" width="101px" height="101px" preserveAspectRatio="xMinYMin meet" x="557" y="-861"/>
<text text-anchor="middle" x="607.5" y="-745.6" font-family="Sans-Serif" font-size="13.00" fill="#2d3436">sj_all</text>
</g>
<!-- c65d6e9ac985467fac07b48eab036076&#45;&gt;bb1ff301db284a57830cc6503883a4a2 -->
<g id="edge34" class="edge">
<title>c65d6e9ac985467fac07b48eab036076&#45;&gt;bb1ff301db284a57830cc6503883a4a2</title>
<path fill="none" stroke="#cba1d4" d="M638,-966.73C638,-966.73 638,-878.61 638,-878.61"/>
<polygon fill="#cba1d4" stroke="#cba1d4" points="634.5,-966.73 638,-976.73 641.5,-966.73 634.5,-966.73"/>
<text text-anchor="middle" x="614.5" y="-940.6" font-family="Sans-Serif" font-size="13.00" fill="#2d3436"> </text>
</g>
<!-- b5684be9941a4795b2950dcb9181e01a -->
<g id="node15" class="node">
<title>b5684be9941a4795b2950dcb9181e01a</title>
<image xlink:href="/home/sura/.local/lib/python3.10/site-packages/resources/programming/flowchart/database.png" width="101px" height="101px" preserveAspectRatio="xMinYMin meet" x="701" y="-861"/>
<text text-anchor="middle" x="751.5" y="-745.6" font-family="Sans-Serif" font-size="13.00" fill="#2d3436">green_action3_all</text>
</g>
<!-- c65d6e9ac985467fac07b48eab036076&#45;&gt;b5684be9941a4795b2950dcb9181e01a -->
<g id="edge35" class="edge">
<title>c65d6e9ac985467fac07b48eab036076&#45;&gt;b5684be9941a4795b2950dcb9181e01a</title>
<path fill="none" stroke="#cba1d4" d="M688.75,-966.55C688.75,-966.55 688.75,-833 688.75,-833 688.75,-833 693.85,-833 701.15,-833"/>
<polygon fill="#cba1d4" stroke="#cba1d4" points="685.25,-966.55 688.75,-976.55 692.25,-966.55 685.25,-966.55"/>
<text text-anchor="middle" x="686.5" y="-940.6" font-family="Sans-Serif" font-size="13.00" fill="#2d3436"> </text>
</g>
<!-- 1e52bfc54628431ab7f84d7cdce19dd7&#45;&gt;0a942916bbf84345a85710cbe812d3f7 -->
<g id="edge13" class="edge">
<title>1e52bfc54628431ab7f84d7cdce19dd7&#45;&gt;0a942916bbf84345a85710cbe812d3f7</title>
<path fill="none" stroke="#b48a83" d="M905,-730.64C905,-730.64 905,-693 905,-693 905,-693 1230.8,-693 1230.8,-693 1230.8,-693 1230.8,-351.08 1230.8,-201.83"/>
<polygon fill="#b48a83" stroke="#b48a83" points="901.5,-730.64 905,-740.64 908.5,-730.64 901.5,-730.64"/>
<text text-anchor="middle" x="1313.5" y="-499.6" font-family="Sans-Serif" font-size="13.00" fill="#2d3436"> </text>
</g>
<!-- a96485cdfdd6434b9575a6775181da36&#45;&gt;6fd8367748d2488699b7c2e79175b525 -->
<g id="edge16" class="edge">
<title>a96485cdfdd6434b9575a6775181da36&#45;&gt;6fd8367748d2488699b7c2e79175b525</title>
<path fill="none" stroke="#e526a1" d="M916,-525.68C916,-525.68 916,-99 916,-99 916,-99 673.99,-99 566.69,-99"/>
<polygon fill="#e526a1" stroke="#e526a1" points="912.5,-525.68 916,-535.68 919.5,-525.68 912.5,-525.68"/>
<text text-anchor="middle" x="493.5" y="-366.1" font-family="Sans-Serif" font-size="13.00" fill="#2d3436"> </text>
</g>
<!-- a96485cdfdd6434b9575a6775181da36&#45;&gt;d91a7ab5fca54d0583454bd7fc1f032e -->
<g id="edge17" class="edge">
<title>a96485cdfdd6434b9575a6775181da36&#45;&gt;d91a7ab5fca54d0583454bd7fc1f032e</title>
<path fill="none" stroke="#e526a1" d="M891.5,-525.74C891.5,-525.74 891.5,-487 891.5,-487 891.5,-487 342.71,-487 342.71,-487 342.71,-487 342.71,-304.38 342.71,-201.66"/>
<polygon fill="#e526a1" stroke="#e526a1" points="888,-525.74 891.5,-535.74 895,-525.74 888,-525.74"/>
<text text-anchor="middle" x="313.5" y="-366.1" font-family="Sans-Serif" font-size="13.00" fill="#2d3436"> </text>
</g>
<!-- a96485cdfdd6434b9575a6775181da36&#45;&gt;1528e4cd99f94c2a99091f173c5b37d9 -->
<g id="edge18" class="edge">
<title>a96485cdfdd6434b9575a6775181da36&#45;&gt;1528e4cd99f94c2a99091f173c5b37d9</title>
<path fill="none" stroke="#e526a1" d="M940.5,-525.71C940.5,-525.71 940.5,-403 940.5,-403 940.5,-403 1043.07,-403 1107.17,-403"/>
<polygon fill="#e526a1" stroke="#e526a1" points="937,-525.71 940.5,-535.71 944,-525.71 937,-525.71"/>
<text text-anchor="middle" x="1076.5" y="-499.6" font-family="Sans-Serif" font-size="13.00" fill="#2d3436"> </text>
</g>
<!-- a96485cdfdd6434b9575a6775181da36&#45;&gt;0a942916bbf84345a85710cbe812d3f7 -->
<g id="edge19" class="edge">
<title>a96485cdfdd6434b9575a6775181da36&#45;&gt;0a942916bbf84345a85710cbe812d3f7</title>
<path fill="none" stroke="#e526a1" d="M976.36,-628C976.36,-628 1219.4,-628 1219.4,-628 1219.4,-628 1219.4,-337.76 1219.4,-202"/>
<polygon fill="#e526a1" stroke="#e526a1" points="976.36,-624.5 966.36,-628 976.36,-631.5 976.36,-624.5"/>
<text text-anchor="middle" x="1296.5" y="-366.1" font-family="Sans-Serif" font-size="13.00" fill="#2d3436"> </text>
</g>
<!-- a96485cdfdd6434b9575a6775181da36&#45;&gt;392bfa46944d458f87974d37ee86ea04 -->
<g id="edge27" class="edge">
<title>a96485cdfdd6434b9575a6775181da36&#45;&gt;392bfa46944d458f87974d37ee86ea04</title>
<path fill="none" stroke="#e526a1" d="M976.26,-582C976.26,-582 1066.67,-582 1066.67,-582 1066.67,-582 1066.67,-327.08 1066.67,-201.62"/>
<polygon fill="#e526a1" stroke="#e526a1" points="976.26,-578.5 966.26,-582 976.26,-585.5 976.26,-578.5"/>
<text text-anchor="middle" x="955.5" y="-366.1" font-family="Sans-Serif" font-size="13.00" fill="#2d3436"> </text>
</g>
<!-- a96485cdfdd6434b9575a6775181da36&#45;&gt;c65d6e9ac985467fac07b48eab036076 -->
<g id="edge20" class="edge">
<title>a96485cdfdd6434b9575a6775181da36&#45;&gt;c65d6e9ac985467fac07b48eab036076</title>
<path fill="none" stroke="#e526a1" d="M952.33,-685.09C952.33,-685.09 952.33,-1015 952.33,-1015 952.33,-1015 784.97,-1015 698.67,-1015"/>
<polygon fill="#e526a1" stroke="#e526a1" points="955.83,-685.09 952.33,-675.09 948.83,-685.09 955.83,-685.09"/>
<text text-anchor="middle" x="511.5" y="-807.1" font-family="Sans-Serif" font-size="13.00" fill="#2d3436"> </text>
</g>
<!-- a96485cdfdd6434b9575a6775181da36&#45;&gt;6fcb8832769e42f299975633f47ba128 -->
<g id="edge21" class="edge">
<title>a96485cdfdd6434b9575a6775181da36&#45;&gt;6fcb8832769e42f299975633f47ba128</title>
<path fill="none" stroke="#e526a1" d="M858.32,-582C858.32,-582 857.67,-582 857.67,-582 857.67,-582 857.67,-500.03 857.67,-437.91"/>
<polygon fill="#e526a1" stroke="#e526a1" points="852.67,-585.5 862.67,-582 852.67,-578.5 852.67,-585.5"/>
<text text-anchor="middle" x="892.5" y="-499.6" font-family="Sans-Serif" font-size="13.00" fill="#2d3436"> </text>
</g>
<!-- 6fcb8832769e42f299975633f47ba128&#45;&gt;6fd8367748d2488699b7c2e79175b525 -->
<g id="edge22" class="edge">
<title>6fcb8832769e42f299975633f47ba128&#45;&gt;6fd8367748d2488699b7c2e79175b525</title>
<path fill="none" stroke="#fd07b4" d="M754.71,-346C754.71,-346 562,-346 562,-346 562,-346 562,-264.03 562,-201.91"/>
<polygon fill="#fd07b4" stroke="#fd07b4" points="754.71,-349.5 764.71,-346 754.71,-342.5 754.71,-349.5"/>
<text text-anchor="middle" x="542.5" y="-263.6" font-family="Sans-Serif" font-size="13.00" fill="#2d3436"> </text>
</g>
<!-- 6fcb8832769e42f299975633f47ba128&#45;&gt;d91a7ab5fca54d0583454bd7fc1f032e -->
<g id="edge23" class="edge">
<title>6fcb8832769e42f299975633f47ba128&#45;&gt;d91a7ab5fca54d0583454bd7fc1f032e</title>
<path fill="none" stroke="#fd07b4" d="M754.51,-392C754.51,-392 357.14,-392 357.14,-392 357.14,-392 357.14,-278.34 357.14,-201.76"/>
<polygon fill="#fd07b4" stroke="#fd07b4" points="754.51,-395.5 764.51,-392 754.51,-388.5 754.51,-395.5"/>
<text text-anchor="middle" x="362.5" y="-263.6" font-family="Sans-Serif" font-size="13.00" fill="#2d3436"> </text>
</g>
<!-- 6fcb8832769e42f299975633f47ba128&#45;&gt;1528e4cd99f94c2a99091f173c5b37d9 -->
<g id="edge24" class="edge">
<title>6fcb8832769e42f299975633f47ba128&#45;&gt;1528e4cd99f94c2a99091f173c5b37d9</title>
<path fill="none" stroke="#fd07b4" d="M878.33,-369C878.33,-369 1107.26,-369 1107.26,-369"/>
<polygon fill="#fd07b4" stroke="#fd07b4" points="878.33,-365.5 868.33,-369 878.33,-372.5 878.33,-365.5"/>
<text text-anchor="middle" x="959.5" y="-499.6" font-family="Sans-Serif" font-size="13.00" fill="#2d3436"> </text>
</g>
<!-- 6fcb8832769e42f299975633f47ba128&#45;&gt;0a942916bbf84345a85710cbe812d3f7 -->
<g id="edge25" class="edge">
<title>6fcb8832769e42f299975633f47ba128&#45;&gt;0a942916bbf84345a85710cbe812d3f7</title>
<path fill="none" stroke="#fd07b4" d="M816.5,-289.6C816.5,-289.6 816.5,-241 816.5,-241 816.5,-241 1186,-241 1186,-241 1186,-241 1186,-223.09 1186,-201.89"/>
<polygon fill="#fd07b4" stroke="#fd07b4" points="813,-289.6 816.5,-299.6 820,-289.6 813,-289.6"/>
<text text-anchor="middle" x="1112.5" y="-263.6" font-family="Sans-Serif" font-size="13.00" fill="#2d3436"> </text>
</g>
<!-- 6fcb8832769e42f299975633f47ba128&#45;&gt;392bfa46944d458f87974d37ee86ea04 -->
<g id="edge26" class="edge">
<title>6fcb8832769e42f299975633f47ba128&#45;&gt;392bfa46944d458f87974d37ee86ea04</title>
<path fill="none" stroke="#fd07b4" d="M878.36,-335C878.36,-335 1043.33,-335 1043.33,-335 1043.33,-335 1043.33,-260.42 1043.33,-202"/>
<polygon fill="#fd07b4" stroke="#fd07b4" points="878.36,-331.5 868.36,-335 878.36,-338.5 878.36,-331.5"/>
<text text-anchor="middle" x="881.5" y="-263.6" font-family="Sans-Serif" font-size="13.00" fill="#2d3436"> </text>
</g>
<!-- b5684be9941a4795b2950dcb9181e01a&#45;&gt;6fd8367748d2488699b7c2e79175b525 -->
<g id="edge36" class="edge">
<title>b5684be9941a4795b2950dcb9181e01a&#45;&gt;6fd8367748d2488699b7c2e79175b525</title>
<path fill="none" stroke="#0ab29e" d="M739,-730.61C739,-730.61 739,-133 739,-133 739,-133 632.64,-133 566.99,-133"/>
<polygon fill="#0ab29e" stroke="#0ab29e" points="735.5,-730.61 739,-740.61 742.5,-730.61 735.5,-730.61"/>
<text text-anchor="middle" x="519.5" y="-499.6" font-family="Sans-Serif" font-size="13.00" fill="#2d3436"> </text>
</g>
<!-- b5684be9941a4795b2950dcb9181e01a&#45;&gt;d91a7ab5fca54d0583454bd7fc1f032e -->
<g id="edge37" class="edge">
<title>b5684be9941a4795b2950dcb9181e01a&#45;&gt;d91a7ab5fca54d0583454bd7fc1f032e</title>
<path fill="none" stroke="#0ab29e" d="M710.67,-733.03C710.67,-733.03 710.67,-732 710.67,-732 710.67,-732 313.86,-732 313.86,-732 313.86,-732 313.86,-358.9 313.86,-201.86"/>
<polygon fill="#0ab29e" stroke="#0ab29e" points="707.17,-730.75 710.67,-740.75 714.17,-730.75 707.17,-730.75"/>
<text text-anchor="middle" x="318.5" y="-499.6" font-family="Sans-Serif" font-size="13.00" fill="#2d3436"> </text>
</g>
<!-- b5684be9941a4795b2950dcb9181e01a&#45;&gt;1528e4cd99f94c2a99091f173c5b37d9 -->
<g id="edge40" class="edge">
<title>b5684be9941a4795b2950dcb9181e01a&#45;&gt;1528e4cd99f94c2a99091f173c5b37d9</title>
<path fill="none" stroke="#0ab29e" d="M775,-730.76C775,-730.76 775,-683 775,-683 775,-683 1132.25,-683 1132.25,-683 1132.25,-683 1132.25,-530.16 1132.25,-437.91"/>
<polygon fill="#0ab29e" stroke="#0ab29e" points="771.5,-730.76 775,-740.76 778.5,-730.76 771.5,-730.76"/>
<text text-anchor="middle" x="1098.5" y="-602.1" font-family="Sans-Serif" font-size="13.00" fill="#2d3436"> </text>
</g>
<!-- b5684be9941a4795b2950dcb9181e01a&#45;&gt;0a942916bbf84345a85710cbe812d3f7 -->
<g id="edge41" class="edge">
<title>b5684be9941a4795b2950dcb9181e01a&#45;&gt;0a942916bbf84345a85710cbe812d3f7</title>
<path fill="none" stroke="#0ab29e" d="M757,-730.5C757,-730.5 757,-221 757,-221 757,-221 1175,-221 1175,-221 1175,-221 1175,-212.88 1175,-201.58"/>
<polygon fill="#0ab29e" stroke="#0ab29e" points="753.5,-730.5 757,-740.5 760.5,-730.5 753.5,-730.5"/>
<text text-anchor="middle" x="1261.5" y="-499.6" font-family="Sans-Serif" font-size="13.00" fill="#2d3436"> </text>
</g>
<!-- b5684be9941a4795b2950dcb9181e01a&#45;&gt;392bfa46944d458f87974d37ee86ea04 -->
<g id="edge44" class="edge">
<title>b5684be9941a4795b2950dcb9181e01a&#45;&gt;392bfa46944d458f87974d37ee86ea04</title>
<path fill="none" stroke="#0ab29e" d="M748,-730.73C748,-730.73 748,-167 748,-167 748,-167 929.41,-167 1020.11,-167"/>
<polygon fill="#0ab29e" stroke="#0ab29e" points="744.5,-730.73 748,-740.73 751.5,-730.73 744.5,-730.73"/>
<text text-anchor="middle" x="1011.5" y="-499.6" font-family="Sans-Serif" font-size="13.00" fill="#2d3436"> </text>
</g>
<!-- b5684be9941a4795b2950dcb9181e01a&#45;&gt;c65d6e9ac985467fac07b48eab036076 -->
<g id="edge42" class="edge">
<title>b5684be9941a4795b2950dcb9181e01a&#45;&gt;c65d6e9ac985467fac07b48eab036076</title>
<path fill="none" stroke="#0ab29e" d="M689.68,-787C689.68,-787 678.5,-787 678.5,-787 678.5,-787 678.5,-901.43 678.5,-978.32"/>
<polygon fill="#0ab29e" stroke="#0ab29e" points="689.68,-790.5 699.68,-787 689.68,-783.5 689.68,-790.5"/>
<text text-anchor="middle" x="748.5" y="-940.6" font-family="Sans-Serif" font-size="13.00" fill="#2d3436"> </text>
</g>
<!-- b5684be9941a4795b2950dcb9181e01a&#45;&gt;a96485cdfdd6434b9575a6775181da36 -->
<g id="edge38" class="edge">
<title>b5684be9941a4795b2950dcb9181e01a&#45;&gt;a96485cdfdd6434b9575a6775181da36</title>
<path fill="none" stroke="#0ab29e" d="M793,-730.51C793,-730.51 793,-628 793,-628 793,-628 830.65,-628 864.03,-628"/>
<polygon fill="#0ab29e" stroke="#0ab29e" points="789.5,-730.51 793,-740.51 796.5,-730.51 789.5,-730.51"/>
<text text-anchor="middle" x="892.5" y="-704.6" font-family="Sans-Serif" font-size="13.00" fill="#2d3436"> </text>
</g>
<!-- b5684be9941a4795b2950dcb9181e01a&#45;&gt;6fcb8832769e42f299975633f47ba128 -->
<g id="edge43" class="edge">
<title>b5684be9941a4795b2950dcb9181e01a&#45;&gt;6fcb8832769e42f299975633f47ba128</title>
<path fill="none" stroke="#0ab29e" d="M784,-730.56C784,-730.56 784,-437.72 784,-437.72"/>
<polygon fill="#0ab29e" stroke="#0ab29e" points="780.5,-730.56 784,-740.56 787.5,-730.56 780.5,-730.56"/>
<text text-anchor="middle" x="818.5" y="-602.1" font-family="Sans-Serif" font-size="13.00" fill="#2d3436"> </text>
</g>
<!-- b5684be9941a4795b2950dcb9181e01a&#45;&gt;8f2da7dc12354d63a0ff88222c3c60ee -->
<g id="edge39" class="edge">
<title>b5684be9941a4795b2950dcb9181e01a&#45;&gt;8f2da7dc12354d63a0ff88222c3c60ee</title>
<path fill="none" stroke="#0ab29e" d="M720.33,-730.72C720.33,-730.72 720.33,-673.81 720.33,-673.81"/>
<polygon fill="#0ab29e" stroke="#0ab29e" points="716.83,-730.72 720.33,-740.72 723.83,-730.72 716.83,-730.72"/>
<text text-anchor="middle" x="717.5" y="-704.6" font-family="Sans-Serif" font-size="13.00" fill="#2d3436"> </text>
</g>
</g>
</svg>
