<?xml version="1.0" encoding="UTF-8" standalone="no"?>
<!DOCTYPE svg PUBLIC "-//W3C//DTD SVG 1.1//EN"
 "http://www.w3.org/Graphics/SVG/1.1/DTD/svg11.dtd">
<!-- Generated by graphviz version 7.0.6 (0)
 -->
<!-- Title: 表关系依赖图 Pages: 1 -->
<svg width="1217pt" height="832pt"
 viewBox="0.00 0.00 1217.00 832.00" xmlns="http://www.w3.org/2000/svg" xmlns:xlink="http://www.w3.org/1999/xlink">
<g id="graph0" class="graph" transform="scale(1 1) rotate(0) translate(144 688)">
<title>表关系依赖图</title>
<polygon fill="white" stroke="none" points="-144,144 -144,-688 1073,-688 1073,144 -144,144"/>
<text text-anchor="middle" x="464.5" y="-9" font-family="Sans-Serif" font-size="15.00" fill="#2d3436">表关系依赖图</text>
<!-- 9062447c3a1a4286b0ee444dc6cd6820 -->
<g id="node1" class="node">
<title>9062447c3a1a4286b0ee444dc6cd6820</title>
<image xlink:href="/home/sura/.local/lib/python3.10/site-packages/resources/digitalocean/database/dbaas-primary.png" width="101px" height="101px" preserveAspectRatio="xMinYMin meet" x="360" y="-526"/>
<text text-anchor="middle" x="410.5" y="-410.6" font-family="Sans-Serif" font-size="13.00" fill="#2d3436">Root</text>
</g>
<!-- 1741b80e04024889a2141e14c2900725 -->
<g id="node2" class="node">
<title>1741b80e04024889a2141e14c2900725</title>
<image xlink:href="/home/sura/.local/lib/python3.10/site-packages/resources/digitalocean/database/dbaas-primary.png" width="101px" height="101px" preserveAspectRatio="xMinYMin meet" x="0" y="-335"/>
<text text-anchor="middle" x="50.5" y="-219.6" font-family="Sans-Serif" font-size="13.00" fill="#2d3436">dqa_lszh_result_0715</text>
</g>
<!-- 9062447c3a1a4286b0ee444dc6cd6820&#45;&gt;1741b80e04024889a2141e14c2900725 -->
<g id="edge1" class="edge">
<title>9062447c3a1a4286b0ee444dc6cd6820&#45;&gt;1741b80e04024889a2141e14c2900725</title>
<path fill="none" stroke="#7b8894" d="M360.06,-498C260.99,-498 50.5,-498 50.5,-498 50.5,-498 50.5,-415.38 50.5,-352.93"/>
</g>
<!-- b42188aece8a4789af8639b693e8b924 -->
<g id="node3" class="node">
<title>b42188aece8a4789af8639b693e8b924</title>
<image xlink:href="/home/sura/.local/lib/python3.10/site-packages/resources/digitalocean/database/dbaas-primary.png" width="101px" height="101px" preserveAspectRatio="xMinYMin meet" x="144" y="-335"/>
<text text-anchor="middle" x="194.5" y="-219.6" font-family="Sans-Serif" font-size="13.00" fill="#2d3436">green_action10_trans</text>
</g>
<!-- 9062447c3a1a4286b0ee444dc6cd6820&#45;&gt;b42188aece8a4789af8639b693e8b924 -->
<g id="edge2" class="edge">
<title>9062447c3a1a4286b0ee444dc6cd6820&#45;&gt;b42188aece8a4789af8639b693e8b924</title>
<path fill="none" stroke="#7b8894" d="M360.13,-452C296.3,-452 194.5,-452 194.5,-452 194.5,-452 194.5,-399 194.5,-352.63"/>
</g>
<!-- fecbbc732548417da43677a324e1808a -->
<g id="node5" class="node">
<title>fecbbc732548417da43677a324e1808a</title>
<image xlink:href="/home/sura/.local/lib/python3.10/site-packages/resources/digitalocean/database/dbaas-primary.png" width="101px" height="101px" preserveAspectRatio="xMinYMin meet" x="288" y="-335"/>
<text text-anchor="middle" x="338.5" y="-219.6" font-family="Sans-Serif" font-size="13.00" fill="#2d3436">green2_card_all</text>
</g>
<!-- 9062447c3a1a4286b0ee444dc6cd6820&#45;&gt;fecbbc732548417da43677a324e1808a -->
<g id="edge4" class="edge">
<title>9062447c3a1a4286b0ee444dc6cd6820&#45;&gt;fecbbc732548417da43677a324e1808a</title>
<path fill="none" stroke="#7b8894" d="M374.5,-407.08C374.5,-389.42 374.5,-370.41 374.5,-352.76"/>
</g>
<!-- 66a9a2219a48498f844797f4824e6a21 -->
<g id="node9" class="node">
<title>66a9a2219a48498f844797f4824e6a21</title>
<image xlink:href="/home/sura/.local/lib/python3.10/site-packages/resources/digitalocean/database/dbaas-primary.png" width="101px" height="101px" preserveAspectRatio="xMinYMin meet" x="432" y="-335"/>
<text text-anchor="middle" x="482.5" y="-219.6" font-family="Sans-Serif" font-size="13.00" fill="#2d3436">green2_card_res</text>
</g>
<!-- 9062447c3a1a4286b0ee444dc6cd6820&#45;&gt;66a9a2219a48498f844797f4824e6a21 -->
<g id="edge8" class="edge">
<title>9062447c3a1a4286b0ee444dc6cd6820&#45;&gt;66a9a2219a48498f844797f4824e6a21</title>
<path fill="none" stroke="#7b8894" d="M446.5,-407.08C446.5,-389.42 446.5,-370.41 446.5,-352.76"/>
</g>
<!-- 09c66dd1fd154a7f951f5f0f9d0f2218 -->
<g id="node10" class="node">
<title>09c66dd1fd154a7f951f5f0f9d0f2218</title>
<image xlink:href="/home/sura/.local/lib/python3.10/site-packages/resources/digitalocean/database/dbaas-primary.png" width="101px" height="101px" preserveAspectRatio="xMinYMin meet" x="576" y="-335"/>
<text text-anchor="middle" x="626.5" y="-219.6" font-family="Sans-Serif" font-size="13.00" fill="#2d3436">green2_action2_all</text>
</g>
<!-- 9062447c3a1a4286b0ee444dc6cd6820&#45;&gt;09c66dd1fd154a7f951f5f0f9d0f2218 -->
<g id="edge9" class="edge">
<title>9062447c3a1a4286b0ee444dc6cd6820&#45;&gt;09c66dd1fd154a7f951f5f0f9d0f2218</title>
<path fill="none" stroke="#7b8894" d="M460.87,-452C524.7,-452 626.5,-452 626.5,-452 626.5,-452 626.5,-399 626.5,-352.63"/>
</g>
<!-- 85d6f76b7be445798379b0cf5e480b57 -->
<g id="node11" class="node">
<title>85d6f76b7be445798379b0cf5e480b57</title>
<image xlink:href="/home/sura/.local/lib/python3.10/site-packages/resources/digitalocean/database/dbaas-primary.png" width="101px" height="101px" preserveAspectRatio="xMinYMin meet" x="720" y="-335"/>
<text text-anchor="middle" x="770.5" y="-219.6" font-family="Sans-Serif" font-size="13.00" fill="#2d3436">green_action3_all</text>
</g>
<!-- 9062447c3a1a4286b0ee444dc6cd6820&#45;&gt;85d6f76b7be445798379b0cf5e480b57 -->
<g id="edge10" class="edge">
<title>9062447c3a1a4286b0ee444dc6cd6820&#45;&gt;85d6f76b7be445798379b0cf5e480b57</title>
<path fill="none" stroke="#7b8894" d="M460.94,-498C560.01,-498 770.5,-498 770.5,-498 770.5,-498 770.5,-415.38 770.5,-352.93"/>
</g>
<!-- 1244013a519e41d2a2f2cf943fa2b801 -->
<g id="node4" class="node">
<title>1244013a519e41d2a2f2cf943fa2b801</title>
<image xlink:href="/home/sura/.local/lib/python3.10/site-packages/resources/digitalocean/database/dbaas-primary.png" width="101px" height="101px" preserveAspectRatio="xMinYMin meet" x="72" y="-144"/>
<text text-anchor="middle" x="122.5" y="-28.6" font-family="Sans-Serif" font-size="13.00" fill="#2d3436">ctis_txn_tif_bas_p</text>
</g>
<!-- b42188aece8a4789af8639b693e8b924&#45;&gt;1244013a519e41d2a2f2cf943fa2b801 -->
<g id="edge3" class="edge">
<title>b42188aece8a4789af8639b693e8b924&#45;&gt;1244013a519e41d2a2f2cf943fa2b801</title>
<path fill="none" stroke="#4348fa" d="M158.5,-204.57C158.5,-204.57 158.5,-161.76 158.5,-161.76"/>
<polygon fill="#4348fa" stroke="#4348fa" points="155,-204.57 158.5,-214.57 162,-204.57 155,-204.57"/>
</g>
<!-- 442ee83a20c847ecbf7e0b5e921dafa8 -->
<g id="node6" class="node">
<title>442ee83a20c847ecbf7e0b5e921dafa8</title>
<image xlink:href="/home/sura/.local/lib/python3.10/site-packages/resources/digitalocean/database/dbaas-primary.png" width="101px" height="101px" preserveAspectRatio="xMinYMin meet" x="216" y="-144"/>
<text text-anchor="middle" x="266.5" y="-28.6" font-family="Sans-Serif" font-size="13.00" fill="#2d3436">bocnet_users_chnl</text>
</g>
<!-- fecbbc732548417da43677a324e1808a&#45;&gt;442ee83a20c847ecbf7e0b5e921dafa8 -->
<g id="edge5" class="edge">
<title>fecbbc732548417da43677a324e1808a&#45;&gt;442ee83a20c847ecbf7e0b5e921dafa8</title>
<path fill="none" stroke="#d72a07" d="M302.5,-204.57C302.5,-204.57 302.5,-161.76 302.5,-161.76"/>
<polygon fill="#d72a07" stroke="#d72a07" points="299,-204.57 302.5,-214.57 306,-204.57 299,-204.57"/>
</g>
<!-- 3c24d58c6fc24f2b890016c1edfbe3b4 -->
<g id="node7" class="node">
<title>3c24d58c6fc24f2b890016c1edfbe3b4</title>
<image xlink:href="/home/sura/.local/lib/python3.10/site-packages/resources/digitalocean/database/dbaas-primary.png" width="101px" height="101px" preserveAspectRatio="xMinYMin meet" x="360" y="-144"/>
<text text-anchor="middle" x="410.5" y="-28.6" font-family="Sans-Serif" font-size="13.00" fill="#2d3436">bancs_cadm</text>
</g>
<!-- fecbbc732548417da43677a324e1808a&#45;&gt;3c24d58c6fc24f2b890016c1edfbe3b4 -->
<g id="edge6" class="edge">
<title>fecbbc732548417da43677a324e1808a&#45;&gt;3c24d58c6fc24f2b890016c1edfbe3b4</title>
<path fill="none" stroke="#d72a07" d="M369.67,-204.57C369.67,-204.57 369.67,-161.76 369.67,-161.76"/>
<polygon fill="#d72a07" stroke="#d72a07" points="366.17,-204.57 369.67,-214.57 373.17,-204.57 366.17,-204.57"/>
</g>
<!-- 1dcb92b7c0d24abb834754b8d08323c5 -->
<g id="node8" class="node">
<title>1dcb92b7c0d24abb834754b8d08323c5</title>
<image xlink:href="/home/sura/.local/lib/python3.10/site-packages/resources/digitalocean/database/dbaas-primary.png" width="101px" height="101px" preserveAspectRatio="xMinYMin meet" x="504" y="-144"/>
<text text-anchor="middle" x="554.5" y="-28.6" font-family="Sans-Serif" font-size="13.00" fill="#2d3436">bocnet_customer</text>
</g>
<!-- fecbbc732548417da43677a324e1808a&#45;&gt;1dcb92b7c0d24abb834754b8d08323c5 -->
<g id="edge7" class="edge">
<title>fecbbc732548417da43677a324e1808a&#45;&gt;1dcb92b7c0d24abb834754b8d08323c5</title>
<path fill="none" stroke="#d72a07" d="M379.33,-204.6C379.33,-204.6 379.33,-189 379.33,-189 379.33,-189 518.5,-189 518.5,-189 518.5,-189 518.5,-177.2 518.5,-161.89"/>
<polygon fill="#d72a07" stroke="#d72a07" points="375.83,-204.6 379.33,-214.6 382.83,-204.6 375.83,-204.6"/>
</g>
<!-- f1bce173efe84c54af16aa1df16d92ae -->
<g id="node12" class="node">
<title>f1bce173efe84c54af16aa1df16d92ae</title>
<image xlink:href="/home/sura/.local/lib/python3.10/site-packages/resources/digitalocean/database/dbaas-primary.png" width="101px" height="101px" preserveAspectRatio="xMinYMin meet" x="684" y="-144"/>
<text text-anchor="middle" x="734.5" y="-28.6" font-family="Sans-Serif" font-size="13.00" fill="#2d3436">grxxzl_20200803</text>
</g>
<!-- 85d6f76b7be445798379b0cf5e480b57&#45;&gt;f1bce173efe84c54af16aa1df16d92ae -->
<g id="edge11" class="edge">
<title>85d6f76b7be445798379b0cf5e480b57&#45;&gt;f1bce173efe84c54af16aa1df16d92ae</title>
<path fill="none" stroke="#6fffb4" d="M752.5,-204.57C752.5,-204.57 752.5,-161.76 752.5,-161.76"/>
<polygon fill="#6fffb4" stroke="#6fffb4" points="749,-204.57 752.5,-214.57 756,-204.57 749,-204.57"/>
</g>
<!-- a7a3fce9a5bf4a0f84291c8dd9d2e71f -->
<g id="node13" class="node">
<title>a7a3fce9a5bf4a0f84291c8dd9d2e71f</title>
<image xlink:href="/home/sura/.local/lib/python3.10/site-packages/resources/digitalocean/database/dbaas-primary.png" width="101px" height="101px" preserveAspectRatio="xMinYMin meet" x="828" y="-144"/>
<text text-anchor="middle" x="878.5" y="-28.6" font-family="Sans-Serif" font-size="13.00" fill="#2d3436">v3_1_issu@card</text>
</g>
<!-- 85d6f76b7be445798379b0cf5e480b57&#45;&gt;a7a3fce9a5bf4a0f84291c8dd9d2e71f -->
<g id="edge12" class="edge">
<title>85d6f76b7be445798379b0cf5e480b57&#45;&gt;a7a3fce9a5bf4a0f84291c8dd9d2e71f</title>
<path fill="none" stroke="#6fffb4" d="M803,-204.66C803,-204.66 803,-93 803,-93 803,-93 814.29,-93 828.14,-93"/>
<polygon fill="#6fffb4" stroke="#6fffb4" points="799.5,-204.66 803,-214.66 806.5,-204.66 799.5,-204.66"/>
</g>
</g>
</svg>
