<?xml version="1.0" encoding="UTF-8" standalone="no"?>
<!DOCTYPE svg PUBLIC "-//W3C//DTD SVG 1.1//EN"
 "http://www.w3.org/Graphics/SVG/1.1/DTD/svg11.dtd">
<!-- Generated by graphviz version 7.1.0 (0)
 -->
<!-- Title: 表关系依赖图 Pages: 1 -->
<svg width="2016pt" height="1424pt"
 viewBox="0.00 0.00 2015.50 1424.00" xmlns="http://www.w3.org/2000/svg" xmlns:xlink="http://www.w3.org/1999/xlink">
<g id="graph0" class="graph" transform="scale(1 1) rotate(0) translate(144 1280)">
<title>表关系依赖图</title>
<polygon fill="white" stroke="none" points="-144,144 -144,-1280 1871.5,-1280 1871.5,144 -144,144"/>
<text text-anchor="middle" x="863.75" y="-9" font-family="Sans-Serif" font-size="15.00" fill="#2d3436">表关系依赖图</text>
<g id="clust1" class="cluster">
<title>cluster_Root源</title>
<path fill="#e5f5fd" stroke="#aeb6be" d="M121.5,-33C121.5,-33 1707.5,-33 1707.5,-33 1713.5,-33 1719.5,-39 1719.5,-45 1719.5,-45 1719.5,-1116 1719.5,-1116 1719.5,-1122 1713.5,-1128 1707.5,-1128 1707.5,-1128 121.5,-1128 121.5,-1128 115.5,-1128 109.5,-1122 109.5,-1116 109.5,-1116 109.5,-45 109.5,-45 109.5,-39 115.5,-33 121.5,-33"/>
<text text-anchor="middle" x="137.5" y="-1114.4" font-family="Sans-Serif" font-size="12.00" fill="#2d3436">Root源</text>
</g>
<g id="clust2" class="cluster">
<title>cluster_脚本:lszh_result.sql</title>
<path fill="#ebf3e7" stroke="#aeb6be" d="M129.5,-41C129.5,-41 1699.5,-41 1699.5,-41 1705.5,-41 1711.5,-47 1711.5,-53 1711.5,-53 1711.5,-1087 1711.5,-1087 1711.5,-1093 1705.5,-1099 1699.5,-1099 1699.5,-1099 129.5,-1099 129.5,-1099 123.5,-1099 117.5,-1093 117.5,-1087 117.5,-1087 117.5,-53 117.5,-53 117.5,-47 123.5,-41 129.5,-41"/>
<text text-anchor="middle" x="179" y="-1085.4" font-family="Sans-Serif" font-size="12.00" fill="#2d3436">脚本:lszh_result.sql</text>
</g>
<g id="clust3" class="cluster">
<title>cluster_dqa_lszh_result_0620源</title>
<path fill="#ece8f6" stroke="#aeb6be" d="M290.5,-49C290.5,-49 1609.5,-49 1609.5,-49 1615.5,-49 1621.5,-55 1621.5,-61 1621.5,-61 1621.5,-872 1621.5,-872 1621.5,-878 1615.5,-884 1609.5,-884 1609.5,-884 290.5,-884 290.5,-884 284.5,-884 278.5,-878 278.5,-872 278.5,-872 278.5,-61 278.5,-61 278.5,-55 284.5,-49 290.5,-49"/>
<text text-anchor="middle" x="352.5" y="-870.4" font-family="Sans-Serif" font-size="12.00" fill="#2d3436">dqa_lszh_result_0620源</text>
</g>
<g id="clust4" class="cluster">
<title>cluster_green_action10_trans源</title>
<path fill="#fdf7e3" stroke="#aeb6be" d="M459.5,-65C459.5,-65 585.5,-65 585.5,-65 591.5,-65 597.5,-71 597.5,-77 597.5,-77 597.5,-227 597.5,-227 597.5,-233 591.5,-239 585.5,-239 585.5,-239 459.5,-239 459.5,-239 453.5,-239 447.5,-233 447.5,-227 447.5,-227 447.5,-77 447.5,-77 447.5,-71 453.5,-65 459.5,-65"/>
<text text-anchor="middle" x="522.5" y="-225.4" font-family="Sans-Serif" font-size="12.00" fill="#2d3436">green_action10_trans源</text>
</g>
<g id="clust5" class="cluster">
<title>cluster_green2_action2_all源</title>
<path fill="#fdf7e3" stroke="#aeb6be" d="M742.5,-57C742.5,-57 1024.5,-57 1024.5,-57 1030.5,-57 1036.5,-63 1036.5,-69 1036.5,-69 1036.5,-657 1036.5,-657 1036.5,-663 1030.5,-669 1024.5,-669 1024.5,-669 742.5,-669 742.5,-669 736.5,-669 730.5,-663 730.5,-657 730.5,-657 730.5,-69 730.5,-69 730.5,-63 736.5,-57 742.5,-57"/>
<text text-anchor="middle" x="797.5" y="-655.4" font-family="Sans-Serif" font-size="12.00" fill="#2d3436">green2_action2_all源</text>
</g>
<g id="clust6" class="cluster">
<title>cluster_green2_card_res源</title>
<path fill="#e5f5fd" stroke="#aeb6be" d="M750.5,-65C750.5,-65 988.5,-65 988.5,-65 994.5,-65 1000.5,-71 1000.5,-77 1000.5,-77 1000.5,-442 1000.5,-442 1000.5,-448 994.5,-454 988.5,-454 988.5,-454 750.5,-454 750.5,-454 744.5,-454 738.5,-448 738.5,-442 738.5,-442 738.5,-77 738.5,-77 738.5,-71 744.5,-65 750.5,-65"/>
<text text-anchor="middle" x="799" y="-440.4" font-family="Sans-Serif" font-size="12.00" fill="#2d3436">green2_card_res源</text>
</g>
<!-- 8f9ada79c7d0445d8a2eb934d4c97c3d -->
<g id="node1" class="node">
<title>8f9ada79c7d0445d8a2eb934d4c97c3d</title>
<image xlink:href="/home/sura/.local/lib/python3.10/site-packages/resources/programming/flowchart/database.png" width="101px" height="101px" preserveAspectRatio="xMinYMin meet" x="0" y="-1052"/>
<text text-anchor="middle" x="50.5" y="-936.6" font-family="Sans-Serif" font-size="13.00" fill="#2d3436">Root</text>
</g>
<!-- 8b5ff5bae8c04208af8b0bd846318195 -->
<g id="node2" class="node">
<title>8b5ff5bae8c04208af8b0bd846318195</title>
<image xlink:href="/home/sura/.local/lib/python3.10/site-packages/resources/programming/flowchart/database.png" width="101px" height="101px" preserveAspectRatio="xMinYMin meet" x="675" y="-1052"/>
<text text-anchor="middle" x="725.5" y="-936.6" font-family="Sans-Serif" font-size="13.00" fill="#2d3436">dqa_lszh_result_0620</text>
</g>
<!-- 8b5ff5bae8c04208af8b0bd846318195&#45;&gt;8b5ff5bae8c04208af8b0bd846318195 -->
<g id="edge4" class="edge">
<title>8b5ff5bae8c04208af8b0bd846318195&#45;&gt;8b5ff5bae8c04208af8b0bd846318195</title>
<path fill="none" stroke="#432869" d="M725.5,-1081.17C725.5,-1081.17 725.5,-1088 725.5,-1088 725.5,-1088 813,-1088 813,-1088 813,-1088 813,-894 813,-894 813,-894 767,-894 767,-894 767,-894 767,-911.91 767,-933.11"/>
<polygon fill="#432869" stroke="#432869" points="729,-1081.17 725.5,-1071.17 722,-1081.17 729,-1081.17"/>
</g>
<!-- cb65741cb3b24c7fa391b4ed060f8883 -->
<g id="node3" class="node">
<title>cb65741cb3b24c7fa391b4ed060f8883</title>
<image xlink:href="/home/sura/.local/lib/python3.10/site-packages/resources/programming/flowchart/database.png" width="101px" height="101px" preserveAspectRatio="xMinYMin meet" x="287" y="-407"/>
<text text-anchor="middle" x="337.5" y="-291.6" font-family="Sans-Serif" font-size="13.00" fill="#2d3436">green_action10_trans</text>
</g>
<!-- 8b5ff5bae8c04208af8b0bd846318195&#45;&gt;cb65741cb3b24c7fa391b4ed060f8883 -->
<g id="edge1" class="edge">
<title>8b5ff5bae8c04208af8b0bd846318195&#45;&gt;cb65741cb3b24c7fa391b4ed060f8883</title>
<path fill="none" stroke="#432869" d="M695.57,-921.52C695.57,-921.52 695.57,-397 695.57,-397 695.57,-397 486.21,-397 387.67,-397"/>
<polygon fill="#432869" stroke="#432869" points="692.07,-921.52 695.57,-931.52 699.07,-921.52 692.07,-921.52"/>
<text text-anchor="middle" x="301.5" y="-680.6" font-family="Sans-Serif" font-size="13.00" fill="#2d3436"> </text>
</g>
<!-- 4ec47d7356f34e8ab0c3c1805dfa0bda -->
<g id="node4" class="node">
<title>4ec47d7356f34e8ab0c3c1805dfa0bda</title>
<image xlink:href="/home/sura/.local/lib/python3.10/site-packages/resources/programming/flowchart/database.png" width="101px" height="101px" preserveAspectRatio="xMinYMin meet" x="472" y="-192"/>
<text text-anchor="middle" x="522.5" y="-76.6" font-family="Sans-Serif" font-size="13.00" fill="#2d3436">ctis_txn_tif_bas_p</text>
</g>
<!-- 8b5ff5bae8c04208af8b0bd846318195&#45;&gt;4ec47d7356f34e8ab0c3c1805dfa0bda -->
<g id="edge26" class="edge">
<title>8b5ff5bae8c04208af8b0bd846318195&#45;&gt;4ec47d7356f34e8ab0c3c1805dfa0bda</title>
<path fill="none" stroke="#432869" d="M663.63,-1001C663.63,-1001 546.43,-1001 546.43,-1001 546.43,-1001 546.43,-412.95 546.43,-209.66"/>
<polygon fill="#432869" stroke="#432869" points="663.63,-1004.5 673.63,-1001 663.63,-997.5 663.63,-1004.5"/>
<text text-anchor="middle" x="170.5" y="-568.1" font-family="Sans-Serif" font-size="13.00" fill="#2d3436"> </text>
</g>
<!-- 2ee5e9ff2a7d4335b6482727f80fa1db -->
<g id="node5" class="node">
<title>2ee5e9ff2a7d4335b6482727f80fa1db</title>
<image xlink:href="/home/sura/.local/lib/python3.10/site-packages/resources/programming/flowchart/database.png" width="101px" height="101px" preserveAspectRatio="xMinYMin meet" x="1272" y="-192"/>
<text text-anchor="middle" x="1322.5" y="-76.6" font-family="Sans-Serif" font-size="13.00" fill="#2d3436">bocnet_customer</text>
</g>
<!-- 8b5ff5bae8c04208af8b0bd846318195&#45;&gt;2ee5e9ff2a7d4335b6482727f80fa1db -->
<g id="edge3" class="edge">
<title>8b5ff5bae8c04208af8b0bd846318195&#45;&gt;2ee5e9ff2a7d4335b6482727f80fa1db</title>
<path fill="none" stroke="#432869" d="M787.3,-1054C787.3,-1054 1327.5,-1054 1327.5,-1054 1327.5,-1054 1327.5,-421.56 1327.5,-209.71"/>
<polygon fill="#432869" stroke="#432869" points="787.3,-1050.5 777.3,-1054 787.3,-1057.5 787.3,-1050.5"/>
<text text-anchor="middle" x="260.5" y="-568.1" font-family="Sans-Serif" font-size="13.00" fill="#2d3436"> </text>
</g>
<!-- 4967403c23c14bb68754f11c13985681 -->
<g id="node6" class="node">
<title>4967403c23c14bb68754f11c13985681</title>
<image xlink:href="/home/sura/.local/lib/python3.10/site-packages/resources/programming/flowchart/database.png" width="101px" height="101px" preserveAspectRatio="xMinYMin meet" x="441" y="-622"/>
<text text-anchor="middle" x="491.5" y="-506.6" font-family="Sans-Serif" font-size="13.00" fill="#2d3436">v3_1_issu@card</text>
</g>
<!-- 8b5ff5bae8c04208af8b0bd846318195&#45;&gt;4967403c23c14bb68754f11c13985681 -->
<g id="edge5" class="edge">
<title>8b5ff5bae8c04208af8b0bd846318195&#45;&gt;4967403c23c14bb68754f11c13985681</title>
<path fill="none" stroke="#432869" d="M685.29,-921.83C685.29,-921.83 685.29,-605 685.29,-605 685.29,-605 599.33,-605 541.91,-605"/>
<polygon fill="#432869" stroke="#432869" points="681.79,-921.83 685.29,-931.83 688.79,-921.83 681.79,-921.83"/>
<text text-anchor="middle" x="433.5" y="-783.1" font-family="Sans-Serif" font-size="13.00" fill="#2d3436"> </text>
</g>
<!-- 2297deadeceb4e408670afc6da85422e -->
<g id="node7" class="node">
<title>2297deadeceb4e408670afc6da85422e</title>
<image xlink:href="/home/sura/.local/lib/python3.10/site-packages/resources/programming/flowchart/database.png" width="101px" height="101px" preserveAspectRatio="xMinYMin meet" x="1071" y="-622"/>
<text text-anchor="middle" x="1121.5" y="-506.6" font-family="Sans-Serif" font-size="13.00" fill="#2d3436">green2_action2_all</text>
</g>
<!-- 8b5ff5bae8c04208af8b0bd846318195&#45;&gt;2297deadeceb4e408670afc6da85422e -->
<g id="edge6" class="edge">
<title>8b5ff5bae8c04208af8b0bd846318195&#45;&gt;2297deadeceb4e408670afc6da85422e</title>
<path fill="none" stroke="#432869" d="M787.36,-1024C787.36,-1024 1160.67,-1024 1160.67,-1024 1160.67,-1024 1160.67,-766.14 1160.67,-639.73"/>
<polygon fill="#432869" stroke="#432869" points="787.36,-1020.5 777.36,-1024 787.36,-1027.5 787.36,-1020.5"/>
<text text-anchor="middle" x="703.5" y="-783.1" font-family="Sans-Serif" font-size="13.00" fill="#2d3436"> </text>
</g>
<!-- e075fa9648e14124ab84925d7610116e -->
<g id="node8" class="node">
<title>e075fa9648e14124ab84925d7610116e</title>
<image xlink:href="/home/sura/.local/lib/python3.10/site-packages/resources/programming/flowchart/database.png" width="101px" height="101px" preserveAspectRatio="xMinYMin meet" x="884" y="-622"/>
<text text-anchor="middle" x="934.5" y="-506.6" font-family="Sans-Serif" font-size="13.00" fill="#2d3436">green2_card_res</text>
</g>
<!-- 8b5ff5bae8c04208af8b0bd846318195&#45;&gt;e075fa9648e14124ab84925d7610116e -->
<g id="edge24" class="edge">
<title>8b5ff5bae8c04208af8b0bd846318195&#45;&gt;e075fa9648e14124ab84925d7610116e</title>
<path fill="none" stroke="#432869" d="M736.71,-921.77C736.71,-921.77 736.71,-571 736.71,-571 736.71,-571 825.48,-571 884.08,-571"/>
<polygon fill="#432869" stroke="#432869" points="733.21,-921.77 736.71,-931.77 740.21,-921.77 733.21,-921.77"/>
<text text-anchor="middle" x="523.5" y="-783.1" font-family="Sans-Serif" font-size="13.00" fill="#2d3436"> </text>
</g>
<!-- 4d579fa1c75d4d0980ffe3493a7cabd0 -->
<g id="node9" class="node">
<title>4d579fa1c75d4d0980ffe3493a7cabd0</title>
<image xlink:href="/home/sura/.local/lib/python3.10/site-packages/resources/programming/flowchart/database.png" width="101px" height="101px" preserveAspectRatio="xMinYMin meet" x="747" y="-192"/>
<text text-anchor="middle" x="797.5" y="-76.6" font-family="Sans-Serif" font-size="13.00" fill="#2d3436">bocnet_users_chnl</text>
</g>
<!-- 8b5ff5bae8c04208af8b0bd846318195&#45;&gt;4d579fa1c75d4d0980ffe3493a7cabd0 -->
<g id="edge25" class="edge">
<title>8b5ff5bae8c04208af8b0bd846318195&#45;&gt;4d579fa1c75d4d0980ffe3493a7cabd0</title>
<path fill="none" stroke="#432869" d="M705.86,-921.75C705.86,-921.75 705.86,-141 705.86,-141 705.86,-141 725.83,-141 747.12,-141"/>
<polygon fill="#432869" stroke="#432869" points="702.36,-921.75 705.86,-931.75 709.36,-921.75 702.36,-921.75"/>
<text text-anchor="middle" x="1611.5" y="-568.1" font-family="Sans-Serif" font-size="13.00" fill="#2d3436"> </text>
</g>
<!-- 00715418df1e47309a62348bf23fbb83 -->
<g id="node10" class="node">
<title>00715418df1e47309a62348bf23fbb83</title>
<image xlink:href="/home/sura/.local/lib/python3.10/site-packages/resources/programming/flowchart/database.png" width="101px" height="101px" preserveAspectRatio="xMinYMin meet" x="891" y="-192"/>
<text text-anchor="middle" x="941.5" y="-76.6" font-family="Sans-Serif" font-size="13.00" fill="#2d3436">bancs_cadm</text>
</g>
<!-- 8b5ff5bae8c04208af8b0bd846318195&#45;&gt;00715418df1e47309a62348bf23fbb83 -->
<g id="edge27" class="edge">
<title>8b5ff5bae8c04208af8b0bd846318195&#45;&gt;00715418df1e47309a62348bf23fbb83</title>
<path fill="none" stroke="#432869" d="M726.43,-921.69C726.43,-921.69 726.43,-477 726.43,-477 726.43,-477 928.6,-477 928.6,-477 928.6,-477 928.6,-307.89 928.6,-209.8"/>
<polygon fill="#432869" stroke="#432869" points="722.93,-921.69 726.43,-931.69 729.93,-921.69 722.93,-921.69"/>
<text text-anchor="middle" x="1701.5" y="-568.1" font-family="Sans-Serif" font-size="13.00" fill="#2d3436"> </text>
</g>
<!-- 392a32c35f564b1b902d14de268ed9ce -->
<g id="node11" class="node">
<title>392a32c35f564b1b902d14de268ed9ce</title>
<image xlink:href="/home/sura/.local/lib/python3.10/site-packages/resources/programming/flowchart/database.png" width="101px" height="101px" preserveAspectRatio="xMinYMin meet" x="747" y="-407"/>
<text text-anchor="middle" x="797.5" y="-291.6" font-family="Sans-Serif" font-size="13.00" fill="#2d3436">green2_card_all</text>
</g>
<!-- 8b5ff5bae8c04208af8b0bd846318195&#45;&gt;392a32c35f564b1b902d14de268ed9ce -->
<g id="edge36" class="edge">
<title>8b5ff5bae8c04208af8b0bd846318195&#45;&gt;392a32c35f564b1b902d14de268ed9ce</title>
<path fill="none" stroke="#432869" d="M716.14,-921.5C716.14,-921.5 716.14,-370 716.14,-370 716.14,-370 730.62,-370 747.36,-370"/>
<polygon fill="#432869" stroke="#432869" points="712.64,-921.5 716.14,-931.5 719.64,-921.5 712.64,-921.5"/>
<text text-anchor="middle" x="353.5" y="-680.6" font-family="Sans-Serif" font-size="13.00" fill="#2d3436"> </text>
</g>
<!-- d34c9189d62b420c86664b5f0ade679b -->
<g id="node12" class="node">
<title>d34c9189d62b420c86664b5f0ade679b</title>
<image xlink:href="/home/sura/.local/lib/python3.10/site-packages/resources/programming/flowchart/database.png" width="101px" height="101px" preserveAspectRatio="xMinYMin meet" x="1181" y="-837"/>
<text text-anchor="middle" x="1231.5" y="-721.6" font-family="Sans-Serif" font-size="13.00" fill="#2d3436">bocnet_g_mgr_elect_social_card</text>
</g>
<!-- 8b5ff5bae8c04208af8b0bd846318195&#45;&gt;d34c9189d62b420c86664b5f0ade679b -->
<g id="edge23" class="edge">
<title>8b5ff5bae8c04208af8b0bd846318195&#45;&gt;d34c9189d62b420c86664b5f0ade679b</title>
<path fill="none" stroke="#432869" d="M787.38,-1039C787.38,-1039 1231.5,-1039 1231.5,-1039 1231.5,-1039 1231.5,-929.61 1231.5,-854.83"/>
<polygon fill="#432869" stroke="#432869" points="787.38,-1035.5 777.38,-1039 787.38,-1042.5 787.38,-1035.5"/>
<text text-anchor="middle" x="1179.5" y="-895.6" font-family="Sans-Serif" font-size="13.00" fill="#2d3436"> </text>
</g>
<!-- 4af88c0a1a5c40348604a4f462327751 -->
<g id="node13" class="node">
<title>4af88c0a1a5c40348604a4f462327751</title>
<image xlink:href="/home/sura/.local/lib/python3.10/site-packages/resources/programming/flowchart/database.png" width="101px" height="101px" preserveAspectRatio="xMinYMin meet" x="893" y="-837"/>
<text text-anchor="middle" x="943.5" y="-721.6" font-family="Sans-Serif" font-size="13.00" fill="#2d3436">dqa_lszh_result_0715</text>
</g>
<!-- 8b5ff5bae8c04208af8b0bd846318195&#45;&gt;4af88c0a1a5c40348604a4f462327751 -->
<g id="edge28" class="edge">
<title>8b5ff5bae8c04208af8b0bd846318195&#45;&gt;4af88c0a1a5c40348604a4f462327751</title>
<path fill="none" stroke="#432869" d="M787.39,-963C787.39,-963 960.33,-963 960.33,-963 960.33,-963 960.33,-904.61 960.33,-854.99"/>
<polygon fill="#432869" stroke="#432869" points="787.39,-959.5 777.39,-963 787.39,-966.5 787.39,-959.5"/>
<text text-anchor="middle" x="928.5" y="-895.6" font-family="Sans-Serif" font-size="13.00" fill="#2d3436"> </text>
</g>
<!-- 8d7559753b7847a4a4aa587d38b7837e -->
<g id="node14" class="node">
<title>8d7559753b7847a4a4aa587d38b7837e</title>
<image xlink:href="/home/sura/.local/lib/python3.10/site-packages/resources/programming/flowchart/database.png" width="101px" height="101px" preserveAspectRatio="xMinYMin meet" x="749" y="-837"/>
<text text-anchor="middle" x="799.5" y="-721.6" font-family="Sans-Serif" font-size="13.00" fill="#2d3436">sj_all</text>
</g>
<!-- 8b5ff5bae8c04208af8b0bd846318195&#45;&gt;8d7559753b7847a4a4aa587d38b7837e -->
<g id="edge37" class="edge">
<title>8b5ff5bae8c04208af8b0bd846318195&#45;&gt;8d7559753b7847a4a4aa587d38b7837e</title>
<path fill="none" stroke="#432869" d="M758,-921.66C758,-921.66 758,-854.65 758,-854.65"/>
<polygon fill="#432869" stroke="#432869" points="754.5,-921.66 758,-931.66 761.5,-921.66 754.5,-921.66"/>
<text text-anchor="middle" x="776.5" y="-895.6" font-family="Sans-Serif" font-size="13.00" fill="#2d3436"> </text>
</g>
<!-- 1135a0dd93b243fb981a84ae5280b5ac -->
<g id="node15" class="node">
<title>1135a0dd93b243fb981a84ae5280b5ac</title>
<image xlink:href="/home/sura/.local/lib/python3.10/site-packages/resources/programming/flowchart/database.png" width="101px" height="101px" preserveAspectRatio="xMinYMin meet" x="1037" y="-837"/>
<text text-anchor="middle" x="1087.5" y="-721.6" font-family="Sans-Serif" font-size="13.00" fill="#2d3436">green_action3_all</text>
</g>
<!-- 8b5ff5bae8c04208af8b0bd846318195&#45;&gt;1135a0dd93b243fb981a84ae5280b5ac -->
<g id="edge38" class="edge">
<title>8b5ff5bae8c04208af8b0bd846318195&#45;&gt;1135a0dd93b243fb981a84ae5280b5ac</title>
<path fill="none" stroke="#432869" d="M787.32,-993C787.32,-993 1104.33,-993 1104.33,-993 1104.33,-993 1104.33,-915.08 1104.33,-854.97"/>
<polygon fill="#432869" stroke="#432869" points="787.32,-989.5 777.32,-993 787.32,-996.5 787.32,-989.5"/>
<text text-anchor="middle" x="1008.5" y="-895.6" font-family="Sans-Serif" font-size="13.00" fill="#2d3436"> </text>
</g>
<!-- cb65741cb3b24c7fa391b4ed060f8883&#45;&gt;4ec47d7356f34e8ab0c3c1805dfa0bda -->
<g id="edge2" class="edge">
<title>cb65741cb3b24c7fa391b4ed060f8883&#45;&gt;4ec47d7356f34e8ab0c3c1805dfa0bda</title>
<path fill="none" stroke="#c8b06b" d="M399.41,-315C399.41,-315 507,-315 507,-315 507,-315 507,-258.18 507,-209.57"/>
<polygon fill="#c8b06b" stroke="#c8b06b" points="399.41,-311.5 389.41,-315 399.41,-318.5 399.41,-311.5"/>
<text text-anchor="middle" x="381.5" y="-250.6" font-family="Sans-Serif" font-size="13.00" fill="#2d3436"> </text>
</g>
<!-- 2297deadeceb4e408670afc6da85422e&#45;&gt;8b5ff5bae8c04208af8b0bd846318195 -->
<g id="edge8" class="edge">
<title>2297deadeceb4e408670afc6da85422e&#45;&gt;8b5ff5bae8c04208af8b0bd846318195</title>
<path fill="none" stroke="#8b0230" d="M1149.33,-651.37C1149.33,-651.37 1149.33,-1009 1149.33,-1009 1149.33,-1009 888.05,-1009 775.78,-1009"/>
<polygon fill="#8b0230" stroke="#8b0230" points="1152.83,-651.37 1149.33,-641.37 1145.83,-651.37 1152.83,-651.37"/>
<text text-anchor="middle" x="613.5" y="-783.1" font-family="Sans-Serif" font-size="13.00" fill="#2d3436"> </text>
</g>
<!-- 2297deadeceb4e408670afc6da85422e&#45;&gt;4ec47d7356f34e8ab0c3c1805dfa0bda -->
<g id="edge20" class="edge">
<title>2297deadeceb4e408670afc6da85422e&#45;&gt;4ec47d7356f34e8ab0c3c1805dfa0bda</title>
<path fill="none" stroke="#8b0230" d="M1091.2,-491.64C1091.2,-491.64 1091.2,-451 1091.2,-451 1091.2,-451 564.14,-451 564.14,-451 564.14,-451 564.14,-300.95 564.14,-209.8"/>
<polygon fill="#8b0230" stroke="#8b0230" points="1087.7,-491.64 1091.2,-501.64 1094.7,-491.64 1087.7,-491.64"/>
<text text-anchor="middle" x="701.5" y="-353.1" font-family="Sans-Serif" font-size="13.00" fill="#2d3436"> </text>
</g>
<!-- 2297deadeceb4e408670afc6da85422e&#45;&gt;2ee5e9ff2a7d4335b6482727f80fa1db -->
<g id="edge7" class="edge">
<title>2297deadeceb4e408670afc6da85422e&#45;&gt;2ee5e9ff2a7d4335b6482727f80fa1db</title>
<path fill="none" stroke="#8b0230" d="M1183.39,-571C1183.39,-571 1278,-571 1278,-571 1278,-571 1278,-330.66 1278,-209.56"/>
<polygon fill="#8b0230" stroke="#8b0230" points="1183.39,-567.5 1173.39,-571 1183.39,-574.5 1183.39,-567.5"/>
<text text-anchor="middle" x="1386.5" y="-353.1" font-family="Sans-Serif" font-size="13.00" fill="#2d3436"> </text>
</g>
<!-- 2297deadeceb4e408670afc6da85422e&#45;&gt;e075fa9648e14124ab84925d7610116e -->
<g id="edge9" class="edge">
<title>2297deadeceb4e408670afc6da85422e&#45;&gt;e075fa9648e14124ab84925d7610116e</title>
<path fill="none" stroke="#8b0230" d="M1059.87,-548C1059.87,-548 984.75,-548 984.75,-548"/>
<polygon fill="#8b0230" stroke="#8b0230" points="1059.87,-551.5 1069.87,-548 1059.87,-544.5 1059.87,-551.5"/>
</g>
<!-- 2297deadeceb4e408670afc6da85422e&#45;&gt;4d579fa1c75d4d0980ffe3493a7cabd0 -->
<g id="edge19" class="edge">
<title>2297deadeceb4e408670afc6da85422e&#45;&gt;4d579fa1c75d4d0980ffe3493a7cabd0</title>
<path fill="none" stroke="#8b0230" d="M1131.6,-491.69C1131.6,-491.69 1131.6,-236 1131.6,-236 1131.6,-236 822.75,-236 822.75,-236 822.75,-236 822.75,-224.71 822.75,-209.93"/>
<polygon fill="#8b0230" stroke="#8b0230" points="1128.1,-491.69 1131.6,-501.69 1135.1,-491.69 1128.1,-491.69"/>
<text text-anchor="middle" x="1206.5" y="-353.1" font-family="Sans-Serif" font-size="13.00" fill="#2d3436"> </text>
</g>
<!-- 2297deadeceb4e408670afc6da85422e&#45;&gt;00715418df1e47309a62348bf23fbb83 -->
<g id="edge21" class="edge">
<title>2297deadeceb4e408670afc6da85422e&#45;&gt;00715418df1e47309a62348bf23fbb83</title>
<path fill="none" stroke="#8b0230" d="M1151.8,-491.95C1151.8,-491.95 1151.8,-107 1151.8,-107 1151.8,-107 1054.09,-107 991.87,-107"/>
<polygon fill="#8b0230" stroke="#8b0230" points="1148.3,-491.95 1151.8,-501.95 1155.3,-491.95 1148.3,-491.95"/>
<text text-anchor="middle" x="1296.5" y="-353.1" font-family="Sans-Serif" font-size="13.00" fill="#2d3436"> </text>
</g>
<!-- 2297deadeceb4e408670afc6da85422e&#45;&gt;392a32c35f564b1b902d14de268ed9ce -->
<g id="edge22" class="edge">
<title>2297deadeceb4e408670afc6da85422e&#45;&gt;392a32c35f564b1b902d14de268ed9ce</title>
<path fill="none" stroke="#8b0230" d="M1111.4,-491.8C1111.4,-491.8 1111.4,-339 1111.4,-339 1111.4,-339 936.67,-339 847.93,-339"/>
<polygon fill="#8b0230" stroke="#8b0230" points="1107.9,-491.8 1111.4,-501.8 1114.9,-491.8 1107.9,-491.8"/>
<text text-anchor="middle" x="1091.5" y="-465.6" font-family="Sans-Serif" font-size="13.00" fill="#2d3436"> </text>
</g>
<!-- e075fa9648e14124ab84925d7610116e&#45;&gt;4ec47d7356f34e8ab0c3c1805dfa0bda -->
<g id="edge12" class="edge">
<title>e075fa9648e14124ab84925d7610116e&#45;&gt;4ec47d7356f34e8ab0c3c1805dfa0bda</title>
<path fill="none" stroke="#6afd1b" d="M872.83,-537C872.83,-537 559.71,-537 559.71,-537 559.71,-537 559.71,-323.14 559.71,-209.94"/>
<polygon fill="#6afd1b" stroke="#6afd1b" points="872.83,-540.5 882.83,-537 872.83,-533.5 872.83,-540.5"/>
<text text-anchor="middle" x="611.5" y="-353.1" font-family="Sans-Serif" font-size="13.00" fill="#2d3436"> </text>
</g>
<!-- e075fa9648e14124ab84925d7610116e&#45;&gt;2ee5e9ff2a7d4335b6482727f80fa1db -->
<g id="edge10" class="edge">
<title>e075fa9648e14124ab84925d7610116e&#45;&gt;2ee5e9ff2a7d4335b6482727f80fa1db</title>
<path fill="none" stroke="#6afd1b" d="M966.2,-491.65C966.2,-491.65 966.2,-407 966.2,-407 966.2,-407 1276,-407 1276,-407 1276,-407 1276,-288.54 1276,-209.87"/>
<polygon fill="#6afd1b" stroke="#6afd1b" points="962.7,-491.65 966.2,-501.65 969.7,-491.65 962.7,-491.65"/>
<text text-anchor="middle" x="1116.5" y="-353.1" font-family="Sans-Serif" font-size="13.00" fill="#2d3436"> </text>
</g>
<!-- e075fa9648e14124ab84925d7610116e&#45;&gt;4d579fa1c75d4d0980ffe3493a7cabd0 -->
<g id="edge11" class="edge">
<title>e075fa9648e14124ab84925d7610116e&#45;&gt;4d579fa1c75d4d0980ffe3493a7cabd0</title>
<path fill="none" stroke="#6afd1b" d="M888.67,-491.6C888.67,-491.6 888.67,-118 888.67,-118 888.67,-118 868.97,-118 847.88,-118"/>
<polygon fill="#6afd1b" stroke="#6afd1b" points="885.17,-491.6 888.67,-501.6 892.17,-491.6 885.17,-491.6"/>
<text text-anchor="middle" x="936.5" y="-353.1" font-family="Sans-Serif" font-size="13.00" fill="#2d3436"> </text>
</g>
<!-- e075fa9648e14124ab84925d7610116e&#45;&gt;00715418df1e47309a62348bf23fbb83 -->
<g id="edge13" class="edge">
<title>e075fa9648e14124ab84925d7610116e&#45;&gt;00715418df1e47309a62348bf23fbb83</title>
<path fill="none" stroke="#6afd1b" d="M947.4,-491.85C947.4,-491.85 947.4,-209.67 947.4,-209.67"/>
<polygon fill="#6afd1b" stroke="#6afd1b" points="943.9,-491.85 947.4,-501.85 950.9,-491.85 943.9,-491.85"/>
<text text-anchor="middle" x="1026.5" y="-353.1" font-family="Sans-Serif" font-size="13.00" fill="#2d3436"> </text>
</g>
<!-- e075fa9648e14124ab84925d7610116e&#45;&gt;392a32c35f564b1b902d14de268ed9ce -->
<g id="edge14" class="edge">
<title>e075fa9648e14124ab84925d7610116e&#45;&gt;392a32c35f564b1b902d14de268ed9ce</title>
<path fill="none" stroke="#6afd1b" d="M886.33,-491.63C886.33,-491.63 886.33,-390 886.33,-390 886.33,-390 867.94,-390 847.89,-390"/>
<polygon fill="#6afd1b" stroke="#6afd1b" points="882.83,-491.63 886.33,-501.63 889.83,-491.63 882.83,-491.63"/>
<text text-anchor="middle" x="907.5" y="-465.6" font-family="Sans-Serif" font-size="13.00" fill="#2d3436"> </text>
</g>
<!-- 392a32c35f564b1b902d14de268ed9ce&#45;&gt;4ec47d7356f34e8ab0c3c1805dfa0bda -->
<g id="edge17" class="edge">
<title>392a32c35f564b1b902d14de268ed9ce&#45;&gt;4ec47d7356f34e8ab0c3c1805dfa0bda</title>
<path fill="none" stroke="#ba5a73" d="M735.75,-342C735.75,-342 568.57,-342 568.57,-342 568.57,-342 568.57,-268.02 568.57,-209.94"/>
<polygon fill="#ba5a73" stroke="#ba5a73" points="735.75,-345.5 745.75,-342 735.75,-338.5 735.75,-345.5"/>
<text text-anchor="middle" x="703.5" y="-250.6" font-family="Sans-Serif" font-size="13.00" fill="#2d3436"> </text>
</g>
<!-- 392a32c35f564b1b902d14de268ed9ce&#45;&gt;2ee5e9ff2a7d4335b6482727f80fa1db -->
<g id="edge15" class="edge">
<title>392a32c35f564b1b902d14de268ed9ce&#45;&gt;2ee5e9ff2a7d4335b6482727f80fa1db</title>
<path fill="none" stroke="#ba5a73" d="M859.11,-322C859.11,-322 1274,-322 1274,-322 1274,-322 1274,-261.06 1274,-210"/>
<polygon fill="#ba5a73" stroke="#ba5a73" points="859.11,-318.5 849.11,-322 859.11,-325.5 859.11,-318.5"/>
<text text-anchor="middle" x="1136.5" y="-250.6" font-family="Sans-Serif" font-size="13.00" fill="#2d3436"> </text>
</g>
<!-- 392a32c35f564b1b902d14de268ed9ce&#45;&gt;4d579fa1c75d4d0980ffe3493a7cabd0 -->
<g id="edge16" class="edge">
<title>392a32c35f564b1b902d14de268ed9ce&#45;&gt;4d579fa1c75d4d0980ffe3493a7cabd0</title>
<path fill="none" stroke="#ba5a73" d="M772.25,-276.66C772.25,-276.66 772.25,-209.65 772.25,-209.65"/>
<polygon fill="#ba5a73" stroke="#ba5a73" points="768.75,-276.66 772.25,-286.66 775.75,-276.66 768.75,-276.66"/>
<text text-anchor="middle" x="799.5" y="-250.6" font-family="Sans-Serif" font-size="13.00" fill="#2d3436"> </text>
</g>
<!-- 392a32c35f564b1b902d14de268ed9ce&#45;&gt;00715418df1e47309a62348bf23fbb83 -->
<g id="edge18" class="edge">
<title>392a32c35f564b1b902d14de268ed9ce&#45;&gt;00715418df1e47309a62348bf23fbb83</title>
<path fill="none" stroke="#ba5a73" d="M859.25,-305C859.25,-305 909.8,-305 909.8,-305 909.8,-305 909.8,-254.69 909.8,-209.89"/>
<polygon fill="#ba5a73" stroke="#ba5a73" points="859.25,-301.5 849.25,-305 859.25,-308.5 859.25,-301.5"/>
<text text-anchor="middle" x="889.5" y="-250.6" font-family="Sans-Serif" font-size="13.00" fill="#2d3436"> </text>
</g>
<!-- 4af88c0a1a5c40348604a4f462327751&#45;&gt;8b5ff5bae8c04208af8b0bd846318195 -->
<g id="edge30" class="edge">
<title>4af88c0a1a5c40348604a4f462327751&#45;&gt;8b5ff5bae8c04208af8b0bd846318195</title>
<path fill="none" stroke="#594d8f" d="M926.67,-866.5C926.67,-866.5 926.67,-948 926.67,-948 926.67,-948 835.33,-948 775.74,-948"/>
<polygon fill="#594d8f" stroke="#594d8f" points="930.17,-866.5 926.67,-856.5 923.17,-866.5 930.17,-866.5"/>
<text text-anchor="middle" x="860.5" y="-895.6" font-family="Sans-Serif" font-size="13.00" fill="#2d3436"> </text>
</g>
<!-- 4af88c0a1a5c40348604a4f462327751&#45;&gt;4ec47d7356f34e8ab0c3c1805dfa0bda -->
<g id="edge33" class="edge">
<title>4af88c0a1a5c40348604a4f462327751&#45;&gt;4ec47d7356f34e8ab0c3c1805dfa0bda</title>
<path fill="none" stroke="#594d8f" d="M916,-706.78C916,-706.78 916,-702 916,-702 916,-702 550.86,-702 550.86,-702 550.86,-702 550.86,-359.47 550.86,-209.95"/>
<polygon fill="#594d8f" stroke="#594d8f" points="912.5,-706.78 916,-716.78 919.5,-706.78 912.5,-706.78"/>
<text text-anchor="middle" x="424.5" y="-465.6" font-family="Sans-Serif" font-size="13.00" fill="#2d3436"> </text>
</g>
<!-- 4af88c0a1a5c40348604a4f462327751&#45;&gt;2ee5e9ff2a7d4335b6482727f80fa1db -->
<g id="edge29" class="edge">
<title>4af88c0a1a5c40348604a4f462327751&#45;&gt;2ee5e9ff2a7d4335b6482727f80fa1db</title>
<path fill="none" stroke="#594d8f" d="M962,-706.56C962,-706.56 962,-686 962,-686 962,-686 1280,-686 1280,-686 1280,-686 1280,-356.15 1280,-209.91"/>
<polygon fill="#594d8f" stroke="#594d8f" points="958.5,-706.56 962,-716.56 965.5,-706.56 958.5,-706.56"/>
<text text-anchor="middle" x="1455.5" y="-465.6" font-family="Sans-Serif" font-size="13.00" fill="#2d3436"> </text>
</g>
<!-- 4af88c0a1a5c40348604a4f462327751&#45;&gt;e075fa9648e14124ab84925d7610116e -->
<g id="edge31" class="edge">
<title>4af88c0a1a5c40348604a4f462327751&#45;&gt;e075fa9648e14124ab84925d7610116e</title>
<path fill="none" stroke="#594d8f" d="M939,-706.66C939,-706.66 939,-639.65 939,-639.65"/>
<polygon fill="#594d8f" stroke="#594d8f" points="935.5,-706.66 939,-716.66 942.5,-706.66 935.5,-706.66"/>
<text text-anchor="middle" x="935.5" y="-680.6" font-family="Sans-Serif" font-size="13.00" fill="#2d3436"> </text>
</g>
<!-- 4af88c0a1a5c40348604a4f462327751&#45;&gt;4d579fa1c75d4d0980ffe3493a7cabd0 -->
<g id="edge32" class="edge">
<title>4af88c0a1a5c40348604a4f462327751&#45;&gt;4d579fa1c75d4d0980ffe3493a7cabd0</title>
<path fill="none" stroke="#594d8f" d="M881.81,-786C881.81,-786 867,-786 867,-786 867,-786 867,-164 867,-164 867,-164 858.6,-164 847.64,-164"/>
<polygon fill="#594d8f" stroke="#594d8f" points="881.81,-789.5 891.81,-786 881.81,-782.5 881.81,-789.5"/>
<text text-anchor="middle" x="488.5" y="-465.6" font-family="Sans-Serif" font-size="13.00" fill="#2d3436"> </text>
</g>
<!-- 4af88c0a1a5c40348604a4f462327751&#45;&gt;00715418df1e47309a62348bf23fbb83 -->
<g id="edge34" class="edge">
<title>4af88c0a1a5c40348604a4f462327751&#45;&gt;00715418df1e47309a62348bf23fbb83</title>
<path fill="none" stroke="#594d8f" d="M989.67,-706.57C989.67,-706.57 989.67,-209.7 989.67,-209.7"/>
<polygon fill="#594d8f" stroke="#594d8f" points="986.17,-706.57 989.67,-716.57 993.17,-706.57 986.17,-706.57"/>
<text text-anchor="middle" x="1403.5" y="-465.6" font-family="Sans-Serif" font-size="13.00" fill="#2d3436"> </text>
</g>
<!-- 4af88c0a1a5c40348604a4f462327751&#45;&gt;392a32c35f564b1b902d14de268ed9ce -->
<g id="edge35" class="edge">
<title>4af88c0a1a5c40348604a4f462327751&#45;&gt;392a32c35f564b1b902d14de268ed9ce</title>
<path fill="none" stroke="#594d8f" d="M987.33,-706.71C987.33,-706.71 987.33,-373 987.33,-373 987.33,-373 904.11,-373 847.87,-373"/>
<polygon fill="#594d8f" stroke="#594d8f" points="983.83,-706.71 987.33,-716.71 990.83,-706.71 983.83,-706.71"/>
<text text-anchor="middle" x="675.5" y="-568.1" font-family="Sans-Serif" font-size="13.00" fill="#2d3436"> </text>
</g>
<!-- 1135a0dd93b243fb981a84ae5280b5ac&#45;&gt;8b5ff5bae8c04208af8b0bd846318195 -->
<g id="edge40" class="edge">
<title>1135a0dd93b243fb981a84ae5280b5ac&#45;&gt;8b5ff5bae8c04208af8b0bd846318195</title>
<path fill="none" stroke="#5f018c" d="M1070.67,-866.34C1070.67,-866.34 1070.67,-978 1070.67,-978 1070.67,-978 871.42,-978 775.69,-978"/>
<polygon fill="#5f018c" stroke="#5f018c" points="1074.17,-866.34 1070.67,-856.34 1067.17,-866.34 1074.17,-866.34"/>
<text text-anchor="middle" x="1074.5" y="-895.6" font-family="Sans-Serif" font-size="13.00" fill="#2d3436"> </text>
</g>
<!-- 1135a0dd93b243fb981a84ae5280b5ac&#45;&gt;4ec47d7356f34e8ab0c3c1805dfa0bda -->
<g id="edge45" class="edge">
<title>1135a0dd93b243fb981a84ae5280b5ac&#45;&gt;4ec47d7356f34e8ab0c3c1805dfa0bda</title>
<path fill="none" stroke="#5f018c" d="M1045.5,-706.54C1045.5,-706.54 1045.5,-655 1045.5,-655 1045.5,-655 555.29,-655 555.29,-655 555.29,-655 555.29,-349.76 555.29,-209.95"/>
<polygon fill="#5f018c" stroke="#5f018c" points="1042,-706.54 1045.5,-716.54 1049,-706.54 1042,-706.54"/>
<text text-anchor="middle" x="598.5" y="-465.6" font-family="Sans-Serif" font-size="13.00" fill="#2d3436"> </text>
</g>
<!-- 1135a0dd93b243fb981a84ae5280b5ac&#45;&gt;2ee5e9ff2a7d4335b6482727f80fa1db -->
<g id="edge39" class="edge">
<title>1135a0dd93b243fb981a84ae5280b5ac&#45;&gt;2ee5e9ff2a7d4335b6482727f80fa1db</title>
<path fill="none" stroke="#5f018c" d="M1066.75,-706.62C1066.75,-706.62 1066.75,-175 1066.75,-175 1066.75,-175 1197.8,-175 1272.28,-175"/>
<polygon fill="#5f018c" stroke="#5f018c" points="1063.25,-706.62 1066.75,-716.62 1070.25,-706.62 1063.25,-706.62"/>
<text text-anchor="middle" x="1611.5" y="-465.6" font-family="Sans-Serif" font-size="13.00" fill="#2d3436"> </text>
</g>
<!-- 1135a0dd93b243fb981a84ae5280b5ac&#45;&gt;4967403c23c14bb68754f11c13985681 -->
<g id="edge41" class="edge">
<title>1135a0dd93b243fb981a84ae5280b5ac&#45;&gt;4967403c23c14bb68754f11c13985681</title>
<path fill="none" stroke="#5f018c" d="M1041.25,-706.8C1041.25,-706.8 1041.25,-671 1041.25,-671 1041.25,-671 491.5,-671 491.5,-671 491.5,-671 491.5,-657.15 491.5,-639.79"/>
<polygon fill="#5f018c" stroke="#5f018c" points="1037.75,-706.8 1041.25,-716.8 1044.75,-706.8 1037.75,-706.8"/>
<text text-anchor="middle" x="994.5" y="-680.6" font-family="Sans-Serif" font-size="13.00" fill="#2d3436"> </text>
</g>
<!-- 1135a0dd93b243fb981a84ae5280b5ac&#45;&gt;2297deadeceb4e408670afc6da85422e -->
<g id="edge42" class="edge">
<title>1135a0dd93b243fb981a84ae5280b5ac&#45;&gt;2297deadeceb4e408670afc6da85422e</title>
<path fill="none" stroke="#5f018c" d="M1104.5,-706.66C1104.5,-706.66 1104.5,-639.65 1104.5,-639.65"/>
<polygon fill="#5f018c" stroke="#5f018c" points="1101,-706.66 1104.5,-716.66 1108,-706.66 1101,-706.66"/>
<text text-anchor="middle" x="1120.5" y="-680.6" font-family="Sans-Serif" font-size="13.00" fill="#2d3436"> </text>
</g>
<!-- 1135a0dd93b243fb981a84ae5280b5ac&#45;&gt;e075fa9648e14124ab84925d7610116e -->
<g id="edge43" class="edge">
<title>1135a0dd93b243fb981a84ae5280b5ac&#45;&gt;e075fa9648e14124ab84925d7610116e</title>
<path fill="none" stroke="#5f018c" d="M1049.75,-706.58C1049.75,-706.58 1049.75,-594 1049.75,-594 1049.75,-594 1015.77,-594 984.72,-594"/>
<polygon fill="#5f018c" stroke="#5f018c" points="1046.25,-706.58 1049.75,-716.58 1053.25,-706.58 1046.25,-706.58"/>
<text text-anchor="middle" x="1065.5" y="-680.6" font-family="Sans-Serif" font-size="13.00" fill="#2d3436"> </text>
</g>
<!-- 1135a0dd93b243fb981a84ae5280b5ac&#45;&gt;4d579fa1c75d4d0980ffe3493a7cabd0 -->
<g id="edge44" class="edge">
<title>1135a0dd93b243fb981a84ae5280b5ac&#45;&gt;4d579fa1c75d4d0980ffe3493a7cabd0</title>
<path fill="none" stroke="#5f018c" d="M1058.25,-706.69C1058.25,-706.69 1058.25,-262 1058.25,-262 1058.25,-262 797.5,-262 797.5,-262 797.5,-262 797.5,-237.04 797.5,-209.85"/>
<polygon fill="#5f018c" stroke="#5f018c" points="1054.75,-706.69 1058.25,-716.69 1061.75,-706.69 1054.75,-706.69"/>
<text text-anchor="middle" x="1507.5" y="-465.6" font-family="Sans-Serif" font-size="13.00" fill="#2d3436"> </text>
</g>
<!-- 1135a0dd93b243fb981a84ae5280b5ac&#45;&gt;00715418df1e47309a62348bf23fbb83 -->
<g id="edge46" class="edge">
<title>1135a0dd93b243fb981a84ae5280b5ac&#45;&gt;00715418df1e47309a62348bf23fbb83</title>
<path fill="none" stroke="#5f018c" d="M1062.5,-706.52C1062.5,-706.52 1062.5,-141 1062.5,-141 1062.5,-141 1025.01,-141 991.76,-141"/>
<polygon fill="#5f018c" stroke="#5f018c" points="1059,-706.52 1062.5,-716.52 1066,-706.52 1059,-706.52"/>
<text text-anchor="middle" x="1559.5" y="-465.6" font-family="Sans-Serif" font-size="13.00" fill="#2d3436"> </text>
</g>
<!-- 1135a0dd93b243fb981a84ae5280b5ac&#45;&gt;392a32c35f564b1b902d14de268ed9ce -->
<g id="edge47" class="edge">
<title>1135a0dd93b243fb981a84ae5280b5ac&#45;&gt;392a32c35f564b1b902d14de268ed9ce</title>
<path fill="none" stroke="#5f018c" d="M1054,-706.77C1054,-706.77 1054,-356 1054,-356 1054,-356 922.57,-356 847.87,-356"/>
<polygon fill="#5f018c" stroke="#5f018c" points="1050.5,-706.77 1054,-716.77 1057.5,-706.77 1050.5,-706.77"/>
<text text-anchor="middle" x="838.5" y="-568.1" font-family="Sans-Serif" font-size="13.00" fill="#2d3436"> </text>
</g>
</g>
</svg>
